<svg xmlns="http://www.w3.org/2000/svg" width="980" height="146" viewBox="0 0 980 146">
<style>text{font-family:Menlo,Consolas,monospace;font-size:12px;fill:#222}.grid{stroke:#ddd;stroke-width:1}</style>
<rect x="0" y="0" width="980" height="146" fill="#fff"/>
<text x="490.0" y="24" text-anchor="middle">Anchored Diversity Tournament Score Ladder</text>
<line class="grid" x1="240.0" y1="40" x2="240.0" y2="122"/>
<text x="240.0" y="140" text-anchor="middle">0%</text>
<line class="grid" x1="380.0" y1="40" x2="380.0" y2="122"/>
<text x="380.0" y="140" text-anchor="middle">20%</text>
<line class="grid" x1="520.0" y1="40" x2="520.0" y2="122"/>
<text x="520.0" y="140" text-anchor="middle">40%</text>
<line class="grid" x1="660.0" y1="40" x2="660.0" y2="122"/>
<text x="660.0" y="140" text-anchor="middle">60%</text>
<line class="grid" x1="800.0" y1="40" x2="800.0" y2="122"/>
<text x="800.0" y="140" text-anchor="middle">80%</text>
<line class="grid" x1="940.0" y1="40" x2="940.0" y2="122"/>
<text x="940.0" y="140" text-anchor="middle">100%</text>
<text x="10" y="54.0">sf1500</text>
<rect x="240" y="40.0" width="700.0" height="14" fill="#e45756"/>
<text x="948.0" y="52.0">100.0%</text>
<text x="10" y="76.0">phase1_minimax</text>
<rect x="240" y="62.0" width="350.0" height="14" fill="#4c78a8"/>
<text x="598.0" y="74.0">50.0%</text>
<text x="10" y="98.0">phase2_10x12_ab_pvs_id</text>
<rect x="240" y="84.0" width="0.0" height="14" fill="#4c78a8"/>
<text x="248.0" y="96.0">0.0%</text>
</svg>
