<svg xmlns="http://www.w3.org/2000/svg" width="980" height="1246" viewBox="0 0 980 1246">
<style>text{font-family:Menlo,Consolas,monospace;font-size:12px;fill:#222}.grid{stroke:#ddd;stroke-width:1}</style>
<rect x="0" y="0" width="980" height="1246" fill="#fff"/>
<text x="490.0" y="24" text-anchor="middle">Anchored Diversity Tournament Score Ladder</text>
<line class="grid" x1="240.0" y1="40" x2="240.0" y2="1222"/>
<text x="240.0" y="1240" text-anchor="middle">0%</text>
<line class="grid" x1="380.0" y1="40" x2="380.0" y2="1222"/>
<text x="380.0" y="1240" text-anchor="middle">20%</text>
<line class="grid" x1="520.0" y1="40" x2="520.0" y2="1222"/>
<text x="520.0" y="1240" text-anchor="middle">40%</text>
<line class="grid" x1="660.0" y1="40" x2="660.0" y2="1222"/>
<text x="660.0" y="1240" text-anchor="middle">60%</text>
<line class="grid" x1="800.0" y1="40" x2="800.0" y2="1222"/>
<text x="800.0" y="1240" text-anchor="middle">80%</text>
<line class="grid" x1="940.0" y1="40" x2="940.0" y2="1222"/>
<text x="940.0" y="1240" text-anchor="middle">100%</text>
<text x="10" y="54.0">sf2500</text>
<rect x="240" y="40.0" width="682.5" height="14" fill="#e45756"/>
<text x="930.5" y="52.0">97.5%</text>
<text x="10" y="76.0">sf2000</text>
<rect x="240" y="62.0" width="642.6" height="14" fill="#e45756"/>
<text x="890.6" y="74.0">91.8%</text>
<text x="10" y="98.0">sf1500</text>
<rect x="240" y="84.0" width="560.0" height="14" fill="#e45756"/>
<text x="808.0" y="96.0">80.0%</text>
<text x="10" y="120.0">phase3_full_eval</text>
<rect x="240" y="106.0" width="583.1" height="14" fill="#4c78a8"/>
<text x="831.1" y="118.0">83.3%</text>
<text x="10" y="142.0">phase2_10x12_ab_pvs_id</text>
<rect x="240" y="128.0" width="437.5" height="14" fill="#4c78a8"/>
<text x="685.5" y="140.0">62.5%</text>
<text x="10" y="164.0">stratified_variant_28</text>
<rect x="240" y="150.0" width="437.5" height="14" fill="#4c78a8"/>
<text x="685.5" y="162.0">62.5%</text>
<text x="10" y="186.0">stratified_variant_09</text>
<rect x="240" y="172.0" width="233.1" height="14" fill="#4c78a8"/>
<text x="481.1" y="184.0">33.3%</text>
<text x="10" y="208.0">strong_variant_02</text>
<rect x="240" y="194.0" width="233.1" height="14" fill="#4c78a8"/>
<text x="481.1" y="206.0">33.3%</text>
<text x="10" y="230.0">stratified_variant_90</text>
<rect x="240" y="216.0" width="204.4" height="14" fill="#4c78a8"/>
<text x="452.4" y="228.0">29.2%</text>
<text x="10" y="252.0">stratified_variant_31</text>
<rect x="240" y="238.0" width="175.0" height="14" fill="#4c78a8"/>
<text x="423.0" y="250.0">25.0%</text>
<text x="10" y="274.0">stratified_variant_61</text>
<rect x="240" y="260.0" width="175.0" height="14" fill="#4c78a8"/>
<text x="423.0" y="272.0">25.0%</text>
<text x="10" y="296.0">stratified_variant_02</text>
<rect x="240" y="282.0" width="145.6" height="14" fill="#4c78a8"/>
<text x="393.6" y="294.0">20.8%</text>
<text x="10" y="318.0">stratified_variant_27</text>
<rect x="240" y="304.0" width="145.6" height="14" fill="#4c78a8"/>
<text x="393.6" y="316.0">20.8%</text>
<text x="10" y="340.0">stratified_variant_33</text>
<rect x="240" y="326.0" width="145.6" height="14" fill="#4c78a8"/>
<text x="393.6" y="338.0">20.8%</text>
<text x="10" y="362.0">stratified_variant_82</text>
<rect x="240" y="348.0" width="145.6" height="14" fill="#4c78a8"/>
<text x="393.6" y="360.0">20.8%</text>
<text x="10" y="384.0">stratified_variant_100</text>
<rect x="240" y="370.0" width="116.9" height="14" fill="#4c78a8"/>
<text x="364.9" y="382.0">16.7%</text>
<text x="10" y="406.0">stratified_variant_13</text>
<rect x="240" y="392.0" width="116.9" height="14" fill="#4c78a8"/>
<text x="364.9" y="404.0">16.7%</text>
<text x="10" y="428.0">stratified_variant_18</text>
<rect x="240" y="414.0" width="116.9" height="14" fill="#4c78a8"/>
<text x="364.9" y="426.0">16.7%</text>
<text x="10" y="450.0">stratified_variant_72</text>
<rect x="240" y="436.0" width="116.9" height="14" fill="#4c78a8"/>
<text x="364.9" y="448.0">16.7%</text>
<text x="10" y="472.0">stratified_variant_64</text>
<rect x="240" y="458.0" width="58.1" height="14" fill="#4c78a8"/>
<text x="306.1" y="470.0">8.3%</text>
<text x="10" y="494.0">phase1_minimax</text>
<rect x="240" y="480.0" width="0.0" height="14" fill="#4c78a8"/>
<text x="248.0" y="492.0">0.0%</text>
<text x="10" y="516.0">stratified_variant_03</text>
<rect x="240" y="502.0" width="0.0" height="14" fill="#4c78a8"/>
<text x="248.0" y="514.0">0.0%</text>
<text x="10" y="538.0">stratified_variant_04</text>
<rect x="240" y="524.0" width="0.0" height="14" fill="#4c78a8"/>
<text x="248.0" y="536.0">0.0%</text>
<text x="10" y="560.0">stratified_variant_07</text>
<rect x="240" y="546.0" width="0.0" height="14" fill="#4c78a8"/>
<text x="248.0" y="558.0">0.0%</text>
<text x="10" y="582.0">stratified_variant_10</text>
<rect x="240" y="568.0" width="0.0" height="14" fill="#4c78a8"/>
<text x="248.0" y="580.0">0.0%</text>
<text x="10" y="604.0">stratified_variant_11</text>
<rect x="240" y="590.0" width="0.0" height="14" fill="#4c78a8"/>
<text x="248.0" y="602.0">0.0%</text>
<text x="10" y="626.0">stratified_variant_17</text>
<rect x="240" y="612.0" width="0.0" height="14" fill="#4c78a8"/>
<text x="248.0" y="624.0">0.0%</text>
<text x="10" y="648.0">stratified_variant_21</text>
<rect x="240" y="634.0" width="0.0" height="14" fill="#4c78a8"/>
<text x="248.0" y="646.0">0.0%</text>
<text x="10" y="670.0">stratified_variant_23</text>
<rect x="240" y="656.0" width="0.0" height="14" fill="#4c78a8"/>
<text x="248.0" y="668.0">0.0%</text>
<text x="10" y="692.0">stratified_variant_29</text>
<rect x="240" y="678.0" width="0.0" height="14" fill="#4c78a8"/>
<text x="248.0" y="690.0">0.0%</text>
<text x="10" y="714.0">stratified_variant_39</text>
<rect x="240" y="700.0" width="0.0" height="14" fill="#4c78a8"/>
<text x="248.0" y="712.0">0.0%</text>
<text x="10" y="736.0">stratified_variant_42</text>
<rect x="240" y="722.0" width="0.0" height="14" fill="#4c78a8"/>
<text x="248.0" y="734.0">0.0%</text>
<text x="10" y="758.0">stratified_variant_43</text>
<rect x="240" y="744.0" width="0.0" height="14" fill="#4c78a8"/>
<text x="248.0" y="756.0">0.0%</text>
<text x="10" y="780.0">stratified_variant_45</text>
<rect x="240" y="766.0" width="0.0" height="14" fill="#4c78a8"/>
<text x="248.0" y="778.0">0.0%</text>
<text x="10" y="802.0">stratified_variant_46</text>
<rect x="240" y="788.0" width="0.0" height="14" fill="#4c78a8"/>
<text x="248.0" y="800.0">0.0%</text>
<text x="10" y="824.0">stratified_variant_50</text>
<rect x="240" y="810.0" width="0.0" height="14" fill="#4c78a8"/>
<text x="248.0" y="822.0">0.0%</text>
<text x="10" y="846.0">stratified_variant_52</text>
<rect x="240" y="832.0" width="0.0" height="14" fill="#4c78a8"/>
<text x="248.0" y="844.0">0.0%</text>
<text x="10" y="868.0">stratified_variant_55</text>
<rect x="240" y="854.0" width="0.0" height="14" fill="#4c78a8"/>
<text x="248.0" y="866.0">0.0%</text>
<text x="10" y="890.0">stratified_variant_57</text>
<rect x="240" y="876.0" width="0.0" height="14" fill="#4c78a8"/>
<text x="248.0" y="888.0">0.0%</text>
<text x="10" y="912.0">stratified_variant_58</text>
<rect x="240" y="898.0" width="0.0" height="14" fill="#4c78a8"/>
<text x="248.0" y="910.0">0.0%</text>
<text x="10" y="934.0">stratified_variant_59</text>
<rect x="240" y="920.0" width="0.0" height="14" fill="#4c78a8"/>
<text x="248.0" y="932.0">0.0%</text>
<text x="10" y="956.0">stratified_variant_60</text>
<rect x="240" y="942.0" width="0.0" height="14" fill="#4c78a8"/>
<text x="248.0" y="954.0">0.0%</text>
<text x="10" y="978.0">stratified_variant_63</text>
<rect x="240" y="964.0" width="0.0" height="14" fill="#4c78a8"/>
<text x="248.0" y="976.0">0.0%</text>
<text x="10" y="1000.0">stratified_variant_65</text>
<rect x="240" y="986.0" width="0.0" height="14" fill="#4c78a8"/>
<text x="248.0" y="998.0">0.0%</text>
<text x="10" y="1022.0">stratified_variant_66</text>
<rect x="240" y="1008.0" width="0.0" height="14" fill="#4c78a8"/>
<text x="248.0" y="1020.0">0.0%</text>
<text x="10" y="1044.0">stratified_variant_69</text>
<rect x="240" y="1030.0" width="0.0" height="14" fill="#4c78a8"/>
<text x="248.0" y="1042.0">0.0%</text>
<text x="10" y="1066.0">stratified_variant_70</text>
<rect x="240" y="1052.0" width="0.0" height="14" fill="#4c78a8"/>
<text x="248.0" y="1064.0">0.0%</text>
<text x="10" y="1088.0">stratified_variant_78</text>
<rect x="240" y="1074.0" width="0.0" height="14" fill="#4c78a8"/>
<text x="248.0" y="1086.0">0.0%</text>
<text x="10" y="1110.0">stratified_variant_87</text>
<rect x="240" y="1096.0" width="0.0" height="14" fill="#4c78a8"/>
<text x="248.0" y="1108.0">0.0%</text>
<text x="10" y="1132.0">stratified_variant_91</text>
<rect x="240" y="1118.0" width="0.0" height="14" fill="#4c78a8"/>
<text x="248.0" y="1130.0">0.0%</text>
<text x="10" y="1154.0">stratified_variant_93</text>
<rect x="240" y="1140.0" width="0.0" height="14" fill="#4c78a8"/>
<text x="248.0" y="1152.0">0.0%</text>
<text x="10" y="1176.0">stratified_variant_97</text>
<rect x="240" y="1162.0" width="0.0" height="14" fill="#4c78a8"/>
<text x="248.0" y="1174.0">0.0%</text>
<text x="10" y="1198.0">stratified_variant_98</text>
<rect x="240" y="1184.0" width="0.0" height="14" fill="#4c78a8"/>
<text x="248.0" y="1196.0">0.0%</text>
</svg>
