<svg xmlns="http://www.w3.org/2000/svg" width="980" height="630" viewBox="0 0 980 630">
<style>text{font-family:Menlo,Consolas,monospace;font-size:12px;fill:#222} .axis{stroke:#333;stroke-width:1} .grid{stroke:#ddd;stroke-width:1}</style>
<rect x="0" y="0" width="980" height="630" fill="#ffffff"/>
<text x="490.0" y="24" text-anchor="middle">Fastest Screen-Passing Variants by Perft Time</text>
<text x="10" y="64.0">01</text>
<text x="40" y="64.0">stratified_variant_61</text>
<rect x="250" y="50.0" width="623.5" height="14" fill="#d62728"/>
<text x="881.5" y="62.0">0.197s</text>
<text x="970" y="64.0" text-anchor="end">10x12 Board__minimax__rich_eval</text>
<text x="10" y="86.0">02</text>
<text x="40" y="86.0">stratified_variant_87</text>
<rect x="250" y="72.0" width="626.7" height="14" fill="#ff7f0e"/>
<text x="884.7" y="84.0">0.198s</text>
<text x="970" y="86.0" text-anchor="end">0x88__pruning_full__rich_eval</text>
<text x="10" y="108.0">03</text>
<text x="40" y="108.0">stratified_variant_15</text>
<rect x="250" y="94.0" width="633.0" height="14" fill="#2ca02c"/>
<text x="891.0" y="106.0">0.200s</text>
<text x="970" y="108.0" text-anchor="end">Mailbox__pruning_full__rich_eval</text>
<text x="10" y="130.0">04</text>
<text x="40" y="130.0">stratified_variant_42</text>
<rect x="250" y="116.0" width="633.0" height="14" fill="#2ca02c"/>
<text x="891.0" y="128.0">0.200s</text>
<text x="970" y="130.0" text-anchor="end">Mailbox__alpha_beta__rich_eval</text>
<text x="10" y="152.0">05</text>
<text x="40" y="152.0">stratified_variant_75</text>
<rect x="250" y="138.0" width="633.0" height="14" fill="#2ca02c"/>
<text x="891.0" y="150.0">0.200s</text>
<text x="970" y="152.0" text-anchor="end">Mailbox__alpha_beta__rich_eval</text>
<text x="10" y="174.0">06</text>
<text x="40" y="174.0">stratified_variant_25</text>
<rect x="250" y="160.0" width="639.4" height="14" fill="#2ca02c"/>
<text x="897.4" y="172.0">0.202s</text>
<text x="970" y="174.0" text-anchor="end">Mailbox__pvs_id__rich_eval</text>
<text x="10" y="196.0">07</text>
<text x="40" y="196.0">stratified_variant_60</text>
<rect x="250" y="182.0" width="642.5" height="14" fill="#d62728"/>
<text x="900.5" y="194.0">0.203s</text>
<text x="970" y="196.0" text-anchor="end">10x12 Board__alpha_beta__rich_eval</text>
<text x="10" y="218.0">08</text>
<text x="40" y="218.0">stratified_variant_63</text>
<rect x="250" y="204.0" width="642.5" height="14" fill="#2ca02c"/>
<text x="900.5" y="216.0">0.203s</text>
<text x="970" y="218.0" text-anchor="end">Mailbox__negamax__rich_eval</text>
<text x="10" y="240.0">09</text>
<text x="40" y="240.0">stratified_variant_35</text>
<rect x="250" y="226.0" width="645.7" height="14" fill="#d62728"/>
<text x="903.7" y="238.0">0.204s</text>
<text x="970" y="240.0" text-anchor="end">10x12 Board__negamax__rich_eval</text>
<text x="10" y="262.0">10</text>
<text x="40" y="262.0">stratified_variant_41</text>
<rect x="250" y="248.0" width="645.7" height="14" fill="#2ca02c"/>
<text x="903.7" y="260.0">0.204s</text>
<text x="970" y="262.0" text-anchor="end">Mailbox__pruning_full__rich_eval</text>
<text x="10" y="284.0">11</text>
<text x="40" y="284.0">stratified_variant_94</text>
<rect x="250" y="270.0" width="648.9" height="14" fill="#ff7f0e"/>
<text x="906.9" y="282.0">0.205s</text>
<text x="970" y="284.0" text-anchor="end">0x88__alpha_beta__rich_eval</text>
<text x="10" y="306.0">12</text>
<text x="40" y="306.0">stratified_variant_92</text>
<rect x="250" y="292.0" width="655.2" height="14" fill="#d62728"/>
<text x="913.2" y="304.0">0.207s</text>
<text x="970" y="306.0" text-anchor="end">10x12 Board__alpha_beta__rich_eval</text>
<text x="10" y="328.0">13</text>
<text x="40" y="328.0">stratified_variant_95</text>
<rect x="250" y="314.0" width="658.3" height="14" fill="#2ca02c"/>
<text x="916.3" y="326.0">0.208s</text>
<text x="970" y="328.0" text-anchor="end">Mailbox__negamax__rich_eval</text>
<text x="10" y="350.0">14</text>
<text x="40" y="350.0">stratified_variant_33</text>
<rect x="250" y="336.0" width="664.7" height="14" fill="#d62728"/>
<text x="922.7" y="348.0">0.210s</text>
<text x="970" y="350.0" text-anchor="end">10x12 Board__pruning_full__rich_eval</text>
<text x="10" y="372.0">15</text>
<text x="40" y="372.0">stratified_variant_45</text>
<rect x="250" y="358.0" width="667.8" height="14" fill="#ff7f0e"/>
<text x="925.8" y="370.0">0.211s</text>
<text x="970" y="372.0" text-anchor="end">0x88__alpha_beta__rich_eval</text>
<text x="10" y="394.0">16</text>
<text x="40" y="394.0">stratified_variant_55</text>
<rect x="250" y="380.0" width="667.8" height="14" fill="#ff7f0e"/>
<text x="925.8" y="392.0">0.211s</text>
<text x="970" y="394.0" text-anchor="end">0x88__pruning_full__rich_eval</text>
<text x="10" y="416.0">17</text>
<text x="40" y="416.0">stratified_variant_81</text>
<rect x="250" y="402.0" width="671.0" height="14" fill="#ff7f0e"/>
<text x="929.0" y="414.0">0.212s</text>
<text x="970" y="416.0" text-anchor="end">0x88__negamax__rich_eval</text>
<text x="10" y="438.0">18</text>
<text x="40" y="438.0">stratified_variant_82</text>
<rect x="250" y="424.0" width="671.0" height="14" fill="#ff7f0e"/>
<text x="929.0" y="436.0">0.212s</text>
<text x="970" y="438.0" text-anchor="end">0x88__minimax__rich_eval</text>
<text x="10" y="460.0">19</text>
<text x="40" y="460.0">stratified_variant_66</text>
<rect x="250" y="446.0" width="677.3" height="14" fill="#ff7f0e"/>
<text x="935.3" y="458.0">0.214s</text>
<text x="970" y="460.0" text-anchor="end">0x88__minimax__rich_eval</text>
<text x="10" y="482.0">20</text>
<text x="40" y="482.0">stratified_variant_50</text>
<rect x="250" y="468.0" width="680.5" height="14" fill="#2ca02c"/>
<text x="938.5" y="480.0">0.215s</text>
<text x="970" y="482.0" text-anchor="end">Mailbox__minimax__structural_eval</text>
<text x="10" y="504.0">21</text>
<text x="40" y="504.0">stratified_variant_100</text>
<rect x="250" y="490.0" width="680.5" height="14" fill="#d62728"/>
<text x="938.5" y="502.0">0.215s</text>
<text x="970" y="504.0" text-anchor="end">10x12 Board__negamax__rich_eval</text>
<text x="10" y="526.0">22</text>
<text x="40" y="526.0">stratified_variant_11</text>
<rect x="250" y="512.0" width="686.8" height="14" fill="#2ca02c"/>
<text x="944.8" y="524.0">0.217s</text>
<text x="970" y="526.0" text-anchor="end">Mailbox__minimax__rich_eval</text>
<text x="10" y="548.0">23</text>
<text x="40" y="548.0">stratified_variant_83</text>
<rect x="250" y="534.0" width="686.8" height="14" fill="#d62728"/>
<text x="944.8" y="546.0">0.217s</text>
<text x="970" y="548.0" text-anchor="end">10x12 Board__pruning_full__rich_eval</text>
<text x="10" y="570.0">24</text>
<text x="40" y="570.0">stratified_variant_93</text>
<rect x="250" y="556.0" width="686.8" height="14" fill="#d62728"/>
<text x="944.8" y="568.0">0.217s</text>
<text x="970" y="570.0" text-anchor="end">10x12 Board__minimax__rich_eval</text>
<text x="10" y="592.0">25</text>
<text x="40" y="592.0">stratified_variant_77</text>
<rect x="250" y="578.0" width="690.0" height="14" fill="#d62728"/>
<text x="948.0" y="590.0">0.218s</text>
<text x="970" y="592.0" text-anchor="end">10x12 Board__minimax__rich_eval</text>
</svg>
