<svg xmlns="http://www.w3.org/2000/svg" width="920" height="520" viewBox="0 0 920 520">
<style>text{font-family:Menlo,Consolas,monospace;font-size:12px;fill:#222} .axis{stroke:#333;stroke-width:1} .grid{stroke:#ddd;stroke-width:1} .label{font-size:11px}</style>
<rect x="0" y="0" width="920" height="520" fill="#f7fbff"/>
<text x="460.0" y="22" text-anchor="middle">Mean Perft Time by Eval Tier</text>
<line class="grid" x1="70" y1="410.0" x2="890" y2="410.0"/>
<text class="label" x="62" y="414.0" text-anchor="end">0.00</text>
<line class="grid" x1="70" y1="336.0" x2="890" y2="336.0"/>
<text class="label" x="62" y="340.0" text-anchor="end">0.46</text>
<line class="grid" x1="70" y1="262.0" x2="890" y2="262.0"/>
<text class="label" x="62" y="266.0" text-anchor="end">0.91</text>
<line class="grid" x1="70" y1="188.0" x2="890" y2="188.0"/>
<text class="label" x="62" y="192.0" text-anchor="end">1.37</text>
<line class="grid" x1="70" y1="114.0" x2="890" y2="114.0"/>
<text class="label" x="62" y="118.0" text-anchor="end">1.82</text>
<line class="grid" x1="70" y1="40.0" x2="890" y2="40.0"/>
<text class="label" x="62" y="44.0" text-anchor="end">2.28</text>
<rect x="109.0" y="362.4" width="127.1" height="47.6" fill="#4c78a8"><title>material_eval: mean=0.293s n=2</title></rect>
<text class="label" x="172.5" y="354.4" text-anchor="middle">0.29</text>
<text class="label" x="172.5" y="475" text-anchor="middle">material_eval</text>
<text class="label" x="172.5" y="490" text-anchor="middle">n=2</text>
<rect x="313.9" y="371.8" width="127.1" height="38.2" fill="#f58518"><title>pst_eval: mean=0.235s n=4</title></rect>
<text class="label" x="377.5" y="363.8" text-anchor="middle">0.24</text>
<text class="label" x="377.5" y="475" text-anchor="middle">pst_eval</text>
<text class="label" x="377.5" y="490" text-anchor="middle">n=4</text>
<rect x="519.0" y="253.5" width="127.1" height="156.5" fill="#54a24b"><title>rich_eval: mean=0.963s n=87</title></rect>
<text class="label" x="582.5" y="245.5" text-anchor="middle">0.96</text>
<text class="label" x="582.5" y="475" text-anchor="middle">rich_eval</text>
<text class="label" x="582.5" y="490" text-anchor="middle">n=87</text>
<rect x="724.0" y="40.0" width="127.1" height="370.0" fill="#e45756"><title>structural_eval: mean=2.277s n=11</title></rect>
<text class="label" x="787.5" y="32.0" text-anchor="middle">2.28</text>
<text class="label" x="787.5" y="475" text-anchor="middle">structural_eval</text>
<text class="label" x="787.5" y="490" text-anchor="middle">n=11</text>
<line class="axis" x1="70" y1="410" x2="890" y2="410"/>
<line class="axis" x1="70" y1="40" x2="70" y2="410"/>
</svg>
