<svg xmlns="http://www.w3.org/2000/svg" width="980" height="630" viewBox="0 0 980 630">
<style>text{font-family:Menlo,Consolas,monospace;font-size:12px;fill:#222} .axis{stroke:#333;stroke-width:1} .grid{stroke:#ddd;stroke-width:1}</style>
<rect x="0" y="0" width="980" height="630" fill="#ffffff"/>
<text x="490.0" y="24" text-anchor="middle">Slowest Screen-Passing Variants by Perft Time</text>
<text x="10" y="64.0">01</text>
<text x="40" y="64.0">stratified_variant_30</text>
<rect x="250" y="50.0" width="690.0" height="14" fill="#ff7f0e"/>
<text x="948.0" y="62.0">36.192s</text>
<text x="970" y="64.0" text-anchor="end">0x88__minimax__rich_eval</text>
<text x="10" y="86.0">02</text>
<text x="40" y="86.0">stratified_variant_10</text>
<rect x="250" y="72.0" width="430.2" height="14" fill="#1f77b4"/>
<text x="688.2" y="84.0">22.565s</text>
<text x="970" y="86.0" text-anchor="end">Bitboards__minimax__structural_eval</text>
<text x="10" y="108.0">03</text>
<text x="40" y="108.0">stratified_variant_91</text>
<rect x="250" y="94.0" width="191.7" height="14" fill="#2ca02c"/>
<text x="449.7" y="106.0">10.057s</text>
<text x="970" y="108.0" text-anchor="end">Mailbox__alpha_beta__rich_eval</text>
<text x="10" y="130.0">04</text>
<text x="40" y="130.0">stratified_variant_17</text>
<rect x="250" y="116.0" width="181.8" height="14" fill="#d62728"/>
<text x="439.8" y="128.0">9.537s</text>
<text x="970" y="130.0" text-anchor="end">10x12 Board__alpha_beta__rich_eval</text>
<text x="10" y="152.0">05</text>
<text x="40" y="152.0">stratified_variant_56</text>
<rect x="250" y="138.0" width="154.1" height="14" fill="#2ca02c"/>
<text x="412.1" y="150.0">8.082s</text>
<text x="970" y="152.0" text-anchor="end">Mailbox__minimax__rich_eval</text>
<text x="10" y="174.0">06</text>
<text x="40" y="174.0">phase1_minimax</text>
<rect x="250" y="160.0" width="6.9" height="14" fill="#1f77b4"/>
<text x="264.9" y="172.0">0.361s</text>
<text x="970" y="174.0" text-anchor="end">Bitboards__minimax__material_eval</text>
<text x="10" y="196.0">07</text>
<text x="40" y="196.0">stratified_variant_69</text>
<rect x="250" y="182.0" width="6.6" height="14" fill="#1f77b4"/>
<text x="264.6" y="194.0">0.347s</text>
<text x="970" y="196.0" text-anchor="end">Bitboards__alpha_beta__rich_eval</text>
<text x="10" y="218.0">08</text>
<text x="40" y="218.0">stratified_variant_89</text>
<rect x="250" y="204.0" width="6.6" height="14" fill="#1f77b4"/>
<text x="264.6" y="216.0">0.344s</text>
<text x="970" y="218.0" text-anchor="end">Bitboards__minimax__rich_eval</text>
<text x="10" y="240.0">09</text>
<text x="40" y="240.0">stratified_variant_08</text>
<rect x="250" y="226.0" width="5.6" height="14" fill="#1f77b4"/>
<text x="263.6" y="238.0">0.294s</text>
<text x="970" y="240.0" text-anchor="end">Bitboards__negamax__rich_eval</text>
<text x="10" y="262.0">10</text>
<text x="40" y="262.0">stratified_variant_85</text>
<rect x="250" y="248.0" width="5.6" height="14" fill="#1f77b4"/>
<text x="263.6" y="260.0">0.293s</text>
<text x="970" y="262.0" text-anchor="end">Bitboards__alpha_beta__rich_eval</text>
<text x="10" y="284.0">11</text>
<text x="40" y="284.0">stratified_variant_44</text>
<rect x="250" y="270.0" width="5.6" height="14" fill="#d62728"/>
<text x="263.6" y="282.0">0.292s</text>
<text x="970" y="284.0" text-anchor="end">10x12 Board__minimax__rich_eval</text>
<text x="10" y="306.0">12</text>
<text x="40" y="306.0">stratified_variant_54</text>
<rect x="250" y="292.0" width="5.6" height="14" fill="#1f77b4"/>
<text x="263.6" y="304.0">0.292s</text>
<text x="970" y="306.0" text-anchor="end">Bitboards__negamax__rich_eval</text>
<text x="10" y="328.0">13</text>
<text x="40" y="328.0">stratified_variant_31</text>
<rect x="250" y="314.0" width="5.5" height="14" fill="#2ca02c"/>
<text x="263.5" y="326.0">0.290s</text>
<text x="970" y="328.0" text-anchor="end">Mailbox__minimax__structural_eval</text>
<text x="10" y="350.0">14</text>
<text x="40" y="350.0">stratified_variant_06</text>
<rect x="250" y="336.0" width="5.4" height="14" fill="#1f77b4"/>
<text x="263.4" y="348.0">0.284s</text>
<text x="970" y="350.0" text-anchor="end">Bitboards__alpha_beta__rich_eval</text>
<text x="10" y="372.0">15</text>
<text x="40" y="372.0">stratified_variant_21</text>
<rect x="250" y="358.0" width="5.4" height="14" fill="#1f77b4"/>
<text x="263.4" y="370.0">0.281s</text>
<text x="970" y="372.0" text-anchor="end">Bitboards__alpha_beta__structural_eval</text>
<text x="10" y="394.0">16</text>
<text x="40" y="394.0">stratified_variant_73</text>
<rect x="250" y="380.0" width="5.3" height="14" fill="#1f77b4"/>
<text x="263.3" y="392.0">0.279s</text>
<text x="970" y="394.0" text-anchor="end">Bitboards__minimax__rich_eval</text>
<text x="10" y="416.0">17</text>
<text x="40" y="416.0">stratified_variant_84</text>
<rect x="250" y="402.0" width="5.3" height="14" fill="#d62728"/>
<text x="263.3" y="414.0">0.276s</text>
<text x="970" y="416.0" text-anchor="end">10x12 Board__negamax__rich_eval</text>
<text x="10" y="438.0">18</text>
<text x="40" y="438.0">stratified_variant_53</text>
<rect x="250" y="424.0" width="5.2" height="14" fill="#1f77b4"/>
<text x="263.2" y="436.0">0.274s</text>
<text x="970" y="438.0" text-anchor="end">Bitboards__alpha_beta__rich_eval</text>
<text x="10" y="460.0">19</text>
<text x="40" y="460.0">stratified_variant_37</text>
<rect x="250" y="446.0" width="5.2" height="14" fill="#1f77b4"/>
<text x="263.2" y="458.0">0.272s</text>
<text x="970" y="460.0" text-anchor="end">Bitboards__negamax__rich_eval</text>
<text x="10" y="482.0">20</text>
<text x="40" y="482.0">stratified_variant_18</text>
<rect x="250" y="468.0" width="5.1" height="14" fill="#2ca02c"/>
<text x="263.1" y="480.0">0.270s</text>
<text x="970" y="482.0" text-anchor="end">Mailbox__minimax__pst_eval</text>
<text x="10" y="504.0">21</text>
<text x="40" y="504.0">stratified_variant_96</text>
<rect x="250" y="490.0" width="5.1" height="14" fill="#1f77b4"/>
<text x="263.1" y="502.0">0.269s</text>
<text x="970" y="504.0" text-anchor="end">Bitboards__pruning_full__rich_eval</text>
<text x="10" y="526.0">22</text>
<text x="40" y="526.0">stratified_variant_40</text>
<rect x="250" y="512.0" width="5.1" height="14" fill="#1f77b4"/>
<text x="263.1" y="524.0">0.268s</text>
<text x="970" y="526.0" text-anchor="end">Bitboards__minimax__rich_eval</text>
<text x="10" y="548.0">23</text>
<text x="40" y="548.0">stratified_variant_70</text>
<rect x="250" y="534.0" width="5.1" height="14" fill="#1f77b4"/>
<text x="263.1" y="546.0">0.268s</text>
<text x="970" y="548.0" text-anchor="end">Bitboards__negamax__rich_eval</text>
<text x="10" y="570.0">24</text>
<text x="40" y="570.0">stratified_variant_51</text>
<rect x="250" y="556.0" width="5.1" height="14" fill="#d62728"/>
<text x="263.1" y="568.0">0.267s</text>
<text x="970" y="570.0" text-anchor="end">10x12 Board__pruning_full__rich_eval</text>
<text x="10" y="592.0">25</text>
<text x="40" y="592.0">phase3_full_eval</text>
<rect x="250" y="578.0" width="5.0" height="14" fill="#1f77b4"/>
<text x="263.0" y="590.0">0.264s</text>
<text x="970" y="592.0" text-anchor="end">Bitboards__pvs_id__rich_eval</text>
</svg>
