<svg xmlns="http://www.w3.org/2000/svg" width="920" height="540" viewBox="0 0 920 540">
<style>text{font-family:Menlo,Consolas,monospace;font-size:12px;fill:#222} .axis{stroke:#333;stroke-width:1} .grid{stroke:#ddd;stroke-width:1} .label{font-size:11px}</style>
<rect x="0" y="0" width="920" height="540" fill="#fffaf0"/>
<line class="grid" x1="70.0" y1="35" x2="70.0" y2="480"/>
<text class="label" x="70.0" y="518" text-anchor="middle">15</text>
<line class="grid" x1="234.0" y1="35" x2="234.0" y2="480"/>
<text class="label" x="234.0" y="518" text-anchor="middle">20</text>
<line class="grid" x1="398.0" y1="35" x2="398.0" y2="480"/>
<text class="label" x="398.0" y="518" text-anchor="middle">24</text>
<line class="grid" x1="562.0" y1="35" x2="562.0" y2="480"/>
<text class="label" x="562.0" y="518" text-anchor="middle">29</text>
<line class="grid" x1="726.0" y1="35" x2="726.0" y2="480"/>
<text class="label" x="726.0" y="518" text-anchor="middle">33</text>
<line class="grid" x1="890.0" y1="35" x2="890.0" y2="480"/>
<text class="label" x="890.0" y="518" text-anchor="middle">38</text>
<line class="grid" x1="70" y1="480.0" x2="890" y2="480.0"/>
<text class="label" x="60" y="484.0" text-anchor="end">0.13</text>
<line class="grid" x1="70" y1="391.0" x2="890" y2="391.0"/>
<text class="label" x="60" y="395.0" text-anchor="end">0.15</text>
<line class="grid" x1="70" y1="302.0" x2="890" y2="302.0"/>
<text class="label" x="60" y="306.0" text-anchor="end">0.18</text>
<line class="grid" x1="70" y1="213.0" x2="890" y2="213.0"/>
<text class="label" x="60" y="217.0" text-anchor="end">0.20</text>
<line class="grid" x1="70" y1="124.0" x2="890" y2="124.0"/>
<text class="label" x="60" y="128.0" text-anchor="end">0.22</text>
<line class="grid" x1="70" y1="35.0" x2="890" y2="35.0"/>
<text class="label" x="60" y="39.0" text-anchor="end">0.24</text>
<line class="axis" x1="70" y1="480" x2="890" y2="480"/>
<line class="axis" x1="70" y1="35" x2="70" y2="480"/>
<text x="460.0" y="532" text-anchor="middle">Selected Feature Count</text>
<text x="18" y="270.0" text-anchor="middle" transform="rotate(-90 18 270.0)">Perft Time (s)</text>
<text x="460.0" y="20" text-anchor="middle">Perft Diversity Screen</text>
<circle cx="70.0" cy="35.0" r="6" fill="#1f77b4" stroke="#000" stroke-width="1"><title>phase1_minimax: Bitboards__minimax__material_eval, perft=0.241s</title></circle>
<circle cx="319.6" cy="480.0" r="6" fill="#d62728" stroke="#000" stroke-width="1"><title>phase2_10x12_ab_pvs_id: 10x12 Board__pvs_id__pst_eval, perft=0.132s</title></circle>
<circle cx="854.3" cy="471.8" r="6" fill="#1f77b4" stroke="#000" stroke-width="1"><title>phase3_full_eval: Bitboards__pvs_id__rich_eval, perft=0.134s</title></circle>
<circle cx="890.0" cy="431.0" r="6" fill="#1f77b4" stroke="#000" stroke-width="1"><title>strong_variant_02: Bitboards__pruning_full__rich_eval, perft=0.144s</title></circle>
<circle cx="462.2" cy="467.8" r="4" fill="#d62728" stroke="none" stroke-width="1"><title>stratified_variant_01: 10x12 Board__negamax__rich_eval, perft=0.135s</title></circle>
<text class="label" x="78.0" y="27.0">phase1_minimax</text>
<text class="label" x="327.6" y="472.0">phase2_10x12_ab_pvs_id</text>
<text class="label" x="862.3" y="463.8">phase3_full_eval</text>
<text class="label" x="898.0" y="423.0">strong_variant_02</text>
<rect x="728" y="28" width="170" height="120" fill="#ffffff" stroke="#ddd"/>
<text x="740" y="50" text-anchor="start">Board Family</text>
<circle cx="740" cy="70" r="5" fill="#1f77b4"/>
<text x="752" y="74">Bitboards</text>
<circle cx="740" cy="92" r="5" fill="#ff7f0e"/>
<text x="752" y="96">0x88</text>
<circle cx="740" cy="114" r="5" fill="#2ca02c"/>
<text x="752" y="118">Mailbox</text>
<circle cx="740" cy="136" r="5" fill="#d62728"/>
<text x="752" y="140">10x12 Board</text>
</svg>
