<svg xmlns="http://www.w3.org/2000/svg" width="980" height="630" viewBox="0 0 980 630">
<style>text{font-family:Menlo,Consolas,monospace;font-size:12px;fill:#222} .axis{stroke:#333;stroke-width:1} .grid{stroke:#ddd;stroke-width:1}</style>
<rect x="0" y="0" width="980" height="630" fill="#ffffff"/>
<text x="490.0" y="24" text-anchor="middle">Slowest Screen-Passing Variants by Perft Time</text>
<text x="10" y="64.0">01</text>
<text x="40" y="64.0">stratified_variant_30</text>
<rect x="250" y="50.0" width="690.0" height="14" fill="#ff7f0e"/>
<text x="948.0" y="62.0">37.625s</text>
<text x="970" y="64.0" text-anchor="end">0x88__minimax__rich_eval</text>
<text x="10" y="86.0">02</text>
<text x="40" y="86.0">stratified_variant_10</text>
<rect x="250" y="72.0" width="467.0" height="14" fill="#1f77b4"/>
<text x="725.0" y="84.0">25.467s</text>
<text x="970" y="86.0" text-anchor="end">Bitboards__minimax__structural_eval</text>
<text x="10" y="108.0">03</text>
<text x="40" y="108.0">stratified_variant_91</text>
<rect x="250" y="94.0" width="214.6" height="14" fill="#2ca02c"/>
<text x="472.6" y="106.0">11.702s</text>
<text x="970" y="108.0" text-anchor="end">Mailbox__alpha_beta__rich_eval</text>
<text x="10" y="130.0">04</text>
<text x="40" y="130.0">stratified_variant_17</text>
<rect x="250" y="116.0" width="201.1" height="14" fill="#d62728"/>
<text x="459.1" y="128.0">10.966s</text>
<text x="970" y="130.0" text-anchor="end">10x12 Board__alpha_beta__rich_eval</text>
<text x="10" y="152.0">05</text>
<text x="40" y="152.0">stratified_variant_56</text>
<rect x="250" y="138.0" width="173.0" height="14" fill="#2ca02c"/>
<text x="431.0" y="150.0">9.433s</text>
<text x="970" y="152.0" text-anchor="end">Mailbox__minimax__rich_eval</text>
<text x="10" y="174.0">06</text>
<text x="40" y="174.0">stratified_variant_85</text>
<rect x="250" y="160.0" width="74.7" height="14" fill="#1f77b4"/>
<text x="332.7" y="172.0">4.072s</text>
<text x="970" y="174.0" text-anchor="end">Bitboards__alpha_beta__rich_eval</text>
<text x="10" y="196.0">07</text>
<text x="40" y="196.0">stratified_variant_89</text>
<rect x="250" y="182.0" width="74.6" height="14" fill="#1f77b4"/>
<text x="332.6" y="194.0">4.069s</text>
<text x="970" y="196.0" text-anchor="end">Bitboards__minimax__rich_eval</text>
<text x="10" y="218.0">08</text>
<text x="40" y="218.0">stratified_variant_21</text>
<rect x="250" y="204.0" width="74.1" height="14" fill="#1f77b4"/>
<text x="332.1" y="216.0">4.039s</text>
<text x="970" y="218.0" text-anchor="end">Bitboards__alpha_beta__structural_eval</text>
<text x="10" y="240.0">09</text>
<text x="40" y="240.0">stratified_variant_54</text>
<rect x="250" y="226.0" width="73.5" height="14" fill="#1f77b4"/>
<text x="331.5" y="238.0">4.006s</text>
<text x="970" y="240.0" text-anchor="end">Bitboards__negamax__rich_eval</text>
<text x="10" y="262.0">10</text>
<text x="40" y="262.0">stratified_variant_06</text>
<rect x="250" y="248.0" width="73.1" height="14" fill="#1f77b4"/>
<text x="331.1" y="260.0">3.988s</text>
<text x="970" y="262.0" text-anchor="end">Bitboards__alpha_beta__rich_eval</text>
<text x="10" y="284.0">11</text>
<text x="40" y="284.0">stratified_variant_08</text>
<rect x="250" y="270.0" width="72.1" height="14" fill="#1f77b4"/>
<text x="330.1" y="282.0">3.929s</text>
<text x="970" y="284.0" text-anchor="end">Bitboards__negamax__rich_eval</text>
<text x="10" y="306.0">12</text>
<text x="40" y="306.0">stratified_variant_53</text>
<rect x="250" y="292.0" width="72.0" height="14" fill="#1f77b4"/>
<text x="330.0" y="304.0">3.927s</text>
<text x="970" y="306.0" text-anchor="end">Bitboards__alpha_beta__rich_eval</text>
<text x="10" y="328.0">13</text>
<text x="40" y="328.0">stratified_variant_37</text>
<rect x="250" y="314.0" width="71.4" height="14" fill="#1f77b4"/>
<text x="329.4" y="326.0">3.892s</text>
<text x="970" y="328.0" text-anchor="end">Bitboards__negamax__rich_eval</text>
<text x="10" y="350.0">14</text>
<text x="40" y="350.0">phase1_minimax</text>
<rect x="250" y="336.0" width="63.6" height="14" fill="#1f77b4"/>
<text x="321.6" y="348.0">3.470s</text>
<text x="970" y="350.0" text-anchor="end">Bitboards__minimax__material_eval</text>
<text x="10" y="372.0">15</text>
<text x="40" y="372.0">stratified_variant_36</text>
<rect x="250" y="358.0" width="63.3" height="14" fill="#1f77b4"/>
<text x="321.3" y="370.0">3.453s</text>
<text x="970" y="372.0" text-anchor="end">Bitboards__alpha_beta__rich_eval</text>
<text x="10" y="394.0">16</text>
<text x="40" y="394.0">stratified_variant_96</text>
<rect x="250" y="380.0" width="62.7" height="14" fill="#1f77b4"/>
<text x="320.7" y="392.0">3.421s</text>
<text x="970" y="394.0" text-anchor="end">Bitboards__pruning_full__rich_eval</text>
<text x="10" y="416.0">17</text>
<text x="40" y="416.0">stratified_variant_47</text>
<rect x="250" y="402.0" width="62.0" height="14" fill="#1f77b4"/>
<text x="320.0" y="414.0">3.381s</text>
<text x="970" y="416.0" text-anchor="end">Bitboards__pruning_full__rich_eval</text>
<text x="10" y="438.0">18</text>
<text x="40" y="438.0">stratified_variant_32</text>
<rect x="250" y="424.0" width="61.9" height="14" fill="#1f77b4"/>
<text x="319.9" y="436.0">3.377s</text>
<text x="970" y="438.0" text-anchor="end">Bitboards__pruning_full__structural_eval</text>
<text x="10" y="460.0">19</text>
<text x="40" y="460.0">stratified_variant_13</text>
<rect x="250" y="446.0" width="61.8" height="14" fill="#1f77b4"/>
<text x="319.8" y="458.0">3.368s</text>
<text x="970" y="460.0" text-anchor="end">Bitboards__pvs_id__rich_eval</text>
<text x="10" y="482.0">20</text>
<text x="40" y="482.0">stratified_variant_12</text>
<rect x="250" y="468.0" width="61.3" height="14" fill="#1f77b4"/>
<text x="319.3" y="480.0">3.340s</text>
<text x="970" y="482.0" text-anchor="end">Bitboards__minimax__rich_eval</text>
<text x="10" y="504.0">21</text>
<text x="40" y="504.0">stratified_variant_86</text>
<rect x="250" y="490.0" width="60.7" height="14" fill="#1f77b4"/>
<text x="318.7" y="502.0">3.309s</text>
<text x="970" y="504.0" text-anchor="end">Bitboards__negamax__rich_eval</text>
<text x="10" y="526.0">22</text>
<text x="40" y="526.0">stratified_variant_24</text>
<rect x="250" y="512.0" width="60.7" height="14" fill="#1f77b4"/>
<text x="318.7" y="524.0">3.308s</text>
<text x="970" y="526.0" text-anchor="end">Bitboards__pruning_full__rich_eval</text>
<text x="10" y="548.0">23</text>
<text x="40" y="548.0">phase3_full_eval</text>
<rect x="250" y="534.0" width="60.2" height="14" fill="#1f77b4"/>
<text x="318.2" y="546.0">3.285s</text>
<text x="970" y="548.0" text-anchor="end">Bitboards__pvs_id__rich_eval</text>
<text x="10" y="570.0">24</text>
<text x="40" y="570.0">stratified_variant_40</text>
<rect x="250" y="556.0" width="60.2" height="14" fill="#1f77b4"/>
<text x="318.2" y="568.0">3.284s</text>
<text x="970" y="570.0" text-anchor="end">Bitboards__minimax__rich_eval</text>
<text x="10" y="592.0">25</text>
<text x="40" y="592.0">stratified_variant_70</text>
<rect x="250" y="578.0" width="60.0" height="14" fill="#1f77b4"/>
<text x="318.0" y="590.0">3.271s</text>
<text x="970" y="592.0" text-anchor="end">Bitboards__negamax__rich_eval</text>
</svg>
