<svg xmlns="http://www.w3.org/2000/svg" width="780" height="280" viewBox="0 0 780 280">
<style>text{font-family:Menlo,Consolas,monospace;font-size:12px;fill:#222} .cell{stroke:#ddd;stroke-width:1}</style>
<rect x="0" y="0" width="780" height="280" fill="#fff"/>
<text x="390.0" y="28" text-anchor="middle">Sample Diversity: Board Family x Search Tier</text>
<text x="200.0" y="58" text-anchor="middle">alpha_beta</text>
<text x="320.0" y="58" text-anchor="middle">minimax</text>
<text x="440.0" y="58" text-anchor="middle">negamax</text>
<text x="560.0" y="58" text-anchor="middle">pruning_full</text>
<text x="680.0" y="58" text-anchor="middle">pvs_id</text>
<text x="130" y="104.0" text-anchor="end">0x88</text>
<text x="130" y="144.0" text-anchor="end">10x12 Board</text>
<text x="130" y="184.0" text-anchor="end">Bitboards</text>
<text x="130" y="224.0" text-anchor="end">Mailbox</text>
<rect class="cell" x="140" y="80" width="120" height="40" fill="rgb(232,211,195)"/>
<text x="200.0" y="104.0" text-anchor="middle">5</text>
<rect class="cell" x="260" y="80" width="120" height="40" fill="rgb(223,187,159)"/>
<text x="320.0" y="104.0" text-anchor="middle">8</text>
<rect class="cell" x="380" y="80" width="120" height="40" fill="rgb(232,211,195)"/>
<text x="440.0" y="104.0" text-anchor="middle">5</text>
<rect class="cell" x="500" y="80" width="120" height="40" fill="rgb(232,211,195)"/>
<text x="560.0" y="104.0" text-anchor="middle">5</text>
<rect class="cell" x="620" y="80" width="120" height="40" fill="rgb(247,251,255)"/>
<text x="680.0" y="104.0" text-anchor="middle">0</text>
<rect class="cell" x="140" y="120" width="120" height="40" fill="rgb(232,211,195)"/>
<text x="200.0" y="144.0" text-anchor="middle">5</text>
<rect class="cell" x="260" y="120" width="120" height="40" fill="rgb(229,203,183)"/>
<text x="320.0" y="144.0" text-anchor="middle">6</text>
<rect class="cell" x="380" y="120" width="120" height="40" fill="rgb(229,203,183)"/>
<text x="440.0" y="144.0" text-anchor="middle">6</text>
<rect class="cell" x="500" y="120" width="120" height="40" fill="rgb(229,203,183)"/>
<text x="560.0" y="144.0" text-anchor="middle">6</text>
<rect class="cell" x="620" y="120" width="120" height="40" fill="rgb(241,235,231)"/>
<text x="680.0" y="144.0" text-anchor="middle">2</text>
<rect class="cell" x="140" y="160" width="120" height="40" fill="rgb(229,203,183)"/>
<text x="200.0" y="184.0" text-anchor="middle">6</text>
<rect class="cell" x="260" y="160" width="120" height="40" fill="rgb(226,195,171)"/>
<text x="320.0" y="184.0" text-anchor="middle">7</text>
<rect class="cell" x="380" y="160" width="120" height="40" fill="rgb(232,211,195)"/>
<text x="440.0" y="184.0" text-anchor="middle">5</text>
<rect class="cell" x="500" y="160" width="120" height="40" fill="rgb(223,187,159)"/>
<text x="560.0" y="184.0" text-anchor="middle">8</text>
<rect class="cell" x="620" y="160" width="120" height="40" fill="rgb(241,235,231)"/>
<text x="680.0" y="184.0" text-anchor="middle">2</text>
<rect class="cell" x="140" y="200" width="120" height="40" fill="rgb(229,203,183)"/>
<text x="200.0" y="224.0" text-anchor="middle">6</text>
<rect class="cell" x="260" y="200" width="120" height="40" fill="rgb(217,171,135)"/>
<text x="320.0" y="224.0" text-anchor="middle">10</text>
<rect class="cell" x="380" y="200" width="120" height="40" fill="rgb(232,211,195)"/>
<text x="440.0" y="224.0" text-anchor="middle">5</text>
<rect class="cell" x="500" y="200" width="120" height="40" fill="rgb(229,203,183)"/>
<text x="560.0" y="224.0" text-anchor="middle">6</text>
<rect class="cell" x="620" y="200" width="120" height="40" fill="rgb(244,243,243)"/>
<text x="680.0" y="224.0" text-anchor="middle">1</text>
</svg>
