<svg xmlns="http://www.w3.org/2000/svg" width="920" height="520" viewBox="0 0 920 520">
<style>text{font-family:Menlo,Consolas,monospace;font-size:12px;fill:#222} .axis{stroke:#333;stroke-width:1} .grid{stroke:#ddd;stroke-width:1} .label{font-size:11px}</style>
<rect x="0" y="0" width="920" height="520" fill="#f7fbff"/>
<text x="460.0" y="22" text-anchor="middle">Mean Perft Time by Search Tier</text>
<line class="grid" x1="70" y1="410.0" x2="890" y2="410.0"/>
<text class="label" x="62" y="414.0" text-anchor="end">0.00</text>
<line class="grid" x1="70" y1="336.0" x2="890" y2="336.0"/>
<text class="label" x="62" y="340.0" text-anchor="end">0.48</text>
<line class="grid" x1="70" y1="262.0" x2="890" y2="262.0"/>
<text class="label" x="62" y="266.0" text-anchor="end">0.96</text>
<line class="grid" x1="70" y1="188.0" x2="890" y2="188.0"/>
<text class="label" x="62" y="192.0" text-anchor="end">1.44</text>
<line class="grid" x1="70" y1="114.0" x2="890" y2="114.0"/>
<text class="label" x="62" y="118.0" text-anchor="end">1.92</text>
<line class="grid" x1="70" y1="40.0" x2="890" y2="40.0"/>
<text class="label" x="62" y="44.0" text-anchor="end">2.40</text>
<rect x="101.2" y="232.7" width="101.7" height="177.3" fill="#4c78a8"><title>alpha_beta: mean=1.151s n=22</title></rect>
<text class="label" x="152.0" y="224.7" text-anchor="middle">1.15</text>
<text class="label" x="152.0" y="475" text-anchor="middle">alpha_beta</text>
<text class="label" x="152.0" y="490" text-anchor="middle">n=22</text>
<rect x="265.2" y="40.0" width="101.7" height="370.0" fill="#f58518"><title>minimax: mean=2.402s n=31</title></rect>
<text class="label" x="316.0" y="32.0" text-anchor="middle">2.40</text>
<text class="label" x="316.0" y="475" text-anchor="middle">minimax</text>
<text class="label" x="316.0" y="490" text-anchor="middle">n=31</text>
<rect x="429.2" y="370.3" width="101.7" height="39.7" fill="#54a24b"><title>negamax: mean=0.258s n=21</title></rect>
<text class="label" x="480.0" y="362.3" text-anchor="middle">0.26</text>
<text class="label" x="480.0" y="475" text-anchor="middle">negamax</text>
<text class="label" x="480.0" y="490" text-anchor="middle">n=21</text>
<rect x="593.2" y="371.5" width="101.7" height="38.5" fill="#e45756"><title>pruning_full: mean=0.250s n=25</title></rect>
<text class="label" x="644.0" y="363.5" text-anchor="middle">0.25</text>
<text class="label" x="644.0" y="475" text-anchor="middle">pruning_full</text>
<text class="label" x="644.0" y="490" text-anchor="middle">n=25</text>
<rect x="757.2" y="372.6" width="101.7" height="37.4" fill="#72b7b2"><title>pvs_id: mean=0.243s n=5</title></rect>
<text class="label" x="808.0" y="364.6" text-anchor="middle">0.24</text>
<text class="label" x="808.0" y="475" text-anchor="middle">pvs_id</text>
<text class="label" x="808.0" y="490" text-anchor="middle">n=5</text>
<line class="axis" x1="70" y1="410" x2="890" y2="410"/>
<line class="axis" x1="70" y1="40" x2="70" y2="410"/>
</svg>
