<svg xmlns="http://www.w3.org/2000/svg" width="980" height="630" viewBox="0 0 980 630">
<style>text{font-family:Menlo,Consolas,monospace;font-size:12px;fill:#222} .axis{stroke:#333;stroke-width:1} .grid{stroke:#ddd;stroke-width:1}</style>
<rect x="0" y="0" width="980" height="630" fill="#ffffff"/>
<text x="490.0" y="24" text-anchor="middle">Slowest Screen-Passing Variants by Perft Time</text>
<text x="10" y="64.0">01</text>
<text x="40" y="64.0">stratified_variant_30</text>
<rect x="250" y="50.0" width="690.0" height="14" fill="#ff7f0e"/>
<text x="948.0" y="62.0">36.525s</text>
<text x="970" y="64.0" text-anchor="end">0x88__minimax__rich_eval</text>
<text x="10" y="86.0">02</text>
<text x="40" y="86.0">stratified_variant_10</text>
<rect x="250" y="72.0" width="435.6" height="14" fill="#1f77b4"/>
<text x="693.6" y="84.0">23.059s</text>
<text x="970" y="86.0" text-anchor="end">Bitboards__minimax__structural_eval</text>
<text x="10" y="108.0">03</text>
<text x="40" y="108.0">stratified_variant_91</text>
<rect x="250" y="94.0" width="188.4" height="14" fill="#2ca02c"/>
<text x="446.4" y="106.0">9.971s</text>
<text x="970" y="108.0" text-anchor="end">Mailbox__alpha_beta__rich_eval</text>
<text x="10" y="130.0">04</text>
<text x="40" y="130.0">stratified_variant_17</text>
<rect x="250" y="116.0" width="181.6" height="14" fill="#d62728"/>
<text x="439.6" y="128.0">9.611s</text>
<text x="970" y="130.0" text-anchor="end">10x12 Board__alpha_beta__rich_eval</text>
<text x="10" y="152.0">05</text>
<text x="40" y="152.0">stratified_variant_56</text>
<rect x="250" y="138.0" width="149.1" height="14" fill="#2ca02c"/>
<text x="407.1" y="150.0">7.893s</text>
<text x="970" y="152.0" text-anchor="end">Mailbox__minimax__rich_eval</text>
<text x="10" y="174.0">06</text>
<text x="40" y="174.0">stratified_variant_62</text>
<rect x="250" y="160.0" width="11.1" height="14" fill="#ff7f0e"/>
<text x="269.1" y="172.0">0.590s</text>
<text x="970" y="174.0" text-anchor="end">0x88__alpha_beta__rich_eval</text>
<text x="10" y="196.0">07</text>
<text x="40" y="196.0">stratified_variant_80</text>
<rect x="250" y="182.0" width="8.6" height="14" fill="#1f77b4"/>
<text x="266.6" y="194.0">0.455s</text>
<text x="970" y="196.0" text-anchor="end">Bitboards__pruning_full__rich_eval</text>
<text x="10" y="218.0">08</text>
<text x="40" y="218.0">stratified_variant_86</text>
<rect x="250" y="204.0" width="8.4" height="14" fill="#1f77b4"/>
<text x="266.4" y="216.0">0.444s</text>
<text x="970" y="218.0" text-anchor="end">Bitboards__negamax__rich_eval</text>
<text x="10" y="240.0">09</text>
<text x="40" y="240.0">stratified_variant_29</text>
<rect x="250" y="226.0" width="7.3" height="14" fill="#2ca02c"/>
<text x="265.3" y="238.0">0.389s</text>
<text x="970" y="240.0" text-anchor="end">Mailbox__alpha_beta__structural_eval</text>
<text x="10" y="262.0">10</text>
<text x="40" y="262.0">stratified_variant_98</text>
<rect x="250" y="248.0" width="7.3" height="14" fill="#ff7f0e"/>
<text x="265.3" y="260.0">0.387s</text>
<text x="970" y="262.0" text-anchor="end">0x88__minimax__rich_eval</text>
<text x="10" y="284.0">11</text>
<text x="40" y="284.0">stratified_variant_45</text>
<rect x="250" y="270.0" width="7.1" height="14" fill="#ff7f0e"/>
<text x="265.1" y="282.0">0.377s</text>
<text x="970" y="284.0" text-anchor="end">0x88__alpha_beta__rich_eval</text>
<text x="10" y="306.0">12</text>
<text x="40" y="306.0">phase1_minimax</text>
<rect x="250" y="292.0" width="6.7" height="14" fill="#1f77b4"/>
<text x="264.7" y="304.0">0.357s</text>
<text x="970" y="306.0" text-anchor="end">Bitboards__minimax__material_eval</text>
<text x="10" y="328.0">13</text>
<text x="40" y="328.0">stratified_variant_65</text>
<rect x="250" y="314.0" width="6.6" height="14" fill="#ff7f0e"/>
<text x="264.6" y="326.0">0.352s</text>
<text x="970" y="328.0" text-anchor="end">0x88__negamax__rich_eval</text>
<text x="10" y="350.0">14</text>
<text x="40" y="350.0">stratified_variant_69</text>
<rect x="250" y="336.0" width="6.5" height="14" fill="#1f77b4"/>
<text x="264.5" y="348.0">0.342s</text>
<text x="970" y="350.0" text-anchor="end">Bitboards__alpha_beta__rich_eval</text>
<text x="10" y="372.0">15</text>
<text x="40" y="372.0">stratified_variant_71</text>
<rect x="250" y="358.0" width="5.8" height="14" fill="#ff7f0e"/>
<text x="263.8" y="370.0">0.309s</text>
<text x="970" y="372.0" text-anchor="end">0x88__pruning_full__rich_eval</text>
<text x="10" y="394.0">16</text>
<text x="40" y="394.0">stratified_variant_89</text>
<rect x="250" y="380.0" width="5.8" height="14" fill="#1f77b4"/>
<text x="263.8" y="392.0">0.305s</text>
<text x="970" y="394.0" text-anchor="end">Bitboards__minimax__rich_eval</text>
<text x="10" y="416.0">17</text>
<text x="40" y="416.0">stratified_variant_85</text>
<rect x="250" y="402.0" width="5.7" height="14" fill="#1f77b4"/>
<text x="263.7" y="414.0">0.303s</text>
<text x="970" y="416.0" text-anchor="end">Bitboards__alpha_beta__rich_eval</text>
<text x="10" y="438.0">18</text>
<text x="40" y="438.0">stratified_variant_08</text>
<rect x="250" y="424.0" width="5.7" height="14" fill="#1f77b4"/>
<text x="263.7" y="436.0">0.300s</text>
<text x="970" y="438.0" text-anchor="end">Bitboards__negamax__rich_eval</text>
<text x="10" y="460.0">19</text>
<text x="40" y="460.0">stratified_variant_48</text>
<rect x="250" y="446.0" width="5.6" height="14" fill="#ff7f0e"/>
<text x="263.6" y="458.0">0.299s</text>
<text x="970" y="460.0" text-anchor="end">0x88__negamax__rich_eval</text>
<text x="10" y="482.0">20</text>
<text x="40" y="482.0">stratified_variant_44</text>
<rect x="250" y="468.0" width="5.6" height="14" fill="#d62728"/>
<text x="263.6" y="480.0">0.298s</text>
<text x="970" y="482.0" text-anchor="end">10x12 Board__minimax__rich_eval</text>
<text x="10" y="504.0">21</text>
<text x="40" y="504.0">stratified_variant_54</text>
<rect x="250" y="490.0" width="5.5" height="14" fill="#1f77b4"/>
<text x="263.5" y="502.0">0.293s</text>
<text x="970" y="504.0" text-anchor="end">Bitboards__negamax__rich_eval</text>
<text x="10" y="526.0">22</text>
<text x="40" y="526.0">stratified_variant_21</text>
<rect x="250" y="512.0" width="5.4" height="14" fill="#1f77b4"/>
<text x="263.4" y="524.0">0.288s</text>
<text x="970" y="526.0" text-anchor="end">Bitboards__alpha_beta__structural_eval</text>
<text x="10" y="548.0">23</text>
<text x="40" y="548.0">stratified_variant_06</text>
<rect x="250" y="534.0" width="5.4" height="14" fill="#1f77b4"/>
<text x="263.4" y="546.0">0.284s</text>
<text x="970" y="548.0" text-anchor="end">Bitboards__alpha_beta__rich_eval</text>
<text x="10" y="570.0">24</text>
<text x="40" y="570.0">stratified_variant_37</text>
<rect x="250" y="556.0" width="5.3" height="14" fill="#1f77b4"/>
<text x="263.3" y="568.0">0.280s</text>
<text x="970" y="570.0" text-anchor="end">Bitboards__negamax__rich_eval</text>
<text x="10" y="592.0">25</text>
<text x="40" y="592.0">stratified_variant_40</text>
<rect x="250" y="578.0" width="5.2" height="14" fill="#1f77b4"/>
<text x="263.2" y="590.0">0.277s</text>
<text x="970" y="592.0" text-anchor="end">Bitboards__minimax__rich_eval</text>
</svg>
