<svg xmlns="http://www.w3.org/2000/svg" width="820" height="420" viewBox="0 0 820 420">
<style>text{font-family:Menlo,Consolas,monospace;font-size:12px;fill:#222} .axis{stroke:#333;stroke-width:1} .grid{stroke:#ddd;stroke-width:1}</style>
<rect x="0" y="0" width="820" height="420" fill="#fff"/>
<text x="410.0" y="22" text-anchor="middle">Correctness Probe Pass Rate</text>
<line class="grid" x1="70" y1="330.0" x2="790" y2="330.0"/>
<text x="62" y="334.0" text-anchor="end">0.0</text>
<line class="grid" x1="70" y1="272.0" x2="790" y2="272.0"/>
<text x="62" y="276.0" text-anchor="end">0.2</text>
<line class="grid" x1="70" y1="214.0" x2="790" y2="214.0"/>
<text x="62" y="218.0" text-anchor="end">0.4</text>
<line class="grid" x1="70" y1="156.0" x2="790" y2="156.0"/>
<text x="62" y="160.0" text-anchor="end">0.6</text>
<line class="grid" x1="70" y1="98.0" x2="790" y2="98.0"/>
<text x="62" y="102.0" text-anchor="end">0.8</text>
<line class="grid" x1="70" y1="40.0" x2="790" y2="40.0"/>
<text x="62" y="44.0" text-anchor="end">1.0</text>
<rect x="106.0" y="40.0" width="108.0" height="290.0" fill="#2ca02c"/>
<text x="160.0" y="32.0" text-anchor="middle">104/104</text>
<text x="160.0" y="385" text-anchor="middle">castle_tension</text>
<rect x="286.0" y="40.0" width="108.0" height="290.0" fill="#2ca02c"/>
<text x="340.0" y="32.0" text-anchor="middle">104/104</text>
<text x="340.0" y="385" text-anchor="middle">en_passant_window</text>
<rect x="466.0" y="40.0" width="108.0" height="290.0" fill="#2ca02c"/>
<text x="520.0" y="32.0" text-anchor="middle">104/104</text>
<text x="520.0" y="385" text-anchor="middle">promotion_race</text>
<rect x="646.0" y="40.0" width="108.0" height="290.0" fill="#2ca02c"/>
<text x="700.0" y="32.0" text-anchor="middle">104/104</text>
<text x="700.0" y="385" text-anchor="middle">startpos</text>
<line class="axis" x1="70" y1="330" x2="790" y2="330"/>
<line class="axis" x1="70" y1="40" x2="70" y2="330"/>
</svg>
