<svg xmlns="http://www.w3.org/2000/svg" width="980" height="560" viewBox="0 0 980 560">
<style>text{font-family:Menlo,Consolas,monospace;font-size:12px;fill:#222} .axis{stroke:#333;stroke-width:1} .grid{stroke:#ddd;stroke-width:1} .box{stroke:#333;stroke-width:1.2} .median{stroke:#111;stroke-width:2} .whisker{stroke:#333;stroke-width:1.2} .outlier{fill:#111}</style>
<rect x="0" y="0" width="980" height="560" fill="#fff"/>
<text x="490.0" y="22" text-anchor="middle">Perft Distribution by Search Tier</text>
<line class="grid" x1="80" y1="450.0" x2="950" y2="450.0"/>
<text x="72" y="454.0" text-anchor="end">0.00</text>
<line class="grid" x1="80" y1="368.0" x2="950" y2="368.0"/>
<text x="72" y="372.0" text-anchor="end">7.15</text>
<line class="grid" x1="80" y1="286.0" x2="950" y2="286.0"/>
<text x="72" y="290.0" text-anchor="end">14.30</text>
<line class="grid" x1="80" y1="204.0" x2="950" y2="204.0"/>
<text x="72" y="208.0" text-anchor="end">21.44</text>
<line class="grid" x1="80" y1="122.0" x2="950" y2="122.0"/>
<text x="72" y="126.0" text-anchor="end">28.59</text>
<line class="grid" x1="80" y1="40.0" x2="950" y2="40.0"/>
<text x="72" y="44.0" text-anchor="end">35.74</text>
<rect class="box" x="127.0" y="446.8" width="80.0" height="1.5" fill="#4c78a8" fill-opacity="0.70"><title>alpha_beta: median=0.247s q1=0.214s q3=0.280s n=22</title></rect>
<line class="median" x1="127.0" y1="447.2" x2="207.0" y2="447.2"/>
<line class="whisker" x1="167.0" y1="446.8" x2="167.0" y2="446.0"/>
<line class="whisker" x1="167.0" y1="447.5" x2="167.0" y2="447.8"/>
<line class="whisker" x1="144.6" y1="446.0" x2="189.4" y2="446.0"/>
<line class="whisker" x1="144.6" y1="447.8" x2="189.4" y2="447.8"/>
<circle class="outlier" cx="167.0" cy="342.4" r="3"/>
<circle class="outlier" cx="167.0" cy="335.2" r="3"/>
<text x="167.0" y="515" text-anchor="middle">alpha_beta</text>
<text x="167.0" y="532" text-anchor="middle">n=22</text>
<rect class="box" x="301.0" y="446.7" width="80.0" height="1.5" fill="#f58518" fill-opacity="0.70"><title>minimax: median=0.239s q1=0.215s q3=0.284s n=31</title></rect>
<line class="median" x1="301.0" y1="447.3" x2="381.0" y2="447.3"/>
<line class="whisker" x1="341.0" y1="446.7" x2="341.0" y2="445.7"/>
<line class="whisker" x1="341.0" y1="447.5" x2="341.0" y2="447.8"/>
<line class="whisker" x1="318.6" y1="445.7" x2="363.4" y2="445.7"/>
<line class="whisker" x1="318.6" y1="447.8" x2="363.4" y2="447.8"/>
<circle class="outlier" cx="341.0" cy="360.2" r="3"/>
<circle class="outlier" cx="341.0" cy="191.5" r="3"/>
<circle class="outlier" cx="341.0" cy="40.0" r="3"/>
<text x="341.0" y="515" text-anchor="middle">minimax</text>
<text x="341.0" y="532" text-anchor="middle">n=31</text>
<rect class="box" x="475.0" y="447.1" width="80.0" height="1.5" fill="#54a24b" fill-opacity="0.70"><title>negamax: median=0.224s q1=0.221s q3=0.253s n=21</title></rect>
<line class="median" x1="475.0" y1="447.4" x2="555.0" y2="447.4"/>
<line class="whisker" x1="515.0" y1="447.1" x2="515.0" y2="446.6"/>
<line class="whisker" x1="515.0" y1="447.5" x2="515.0" y2="447.7"/>
<line class="whisker" x1="492.6" y1="446.6" x2="537.4" y2="446.6"/>
<line class="whisker" x1="492.6" y1="447.7" x2="537.4" y2="447.7"/>
<text x="515.0" y="515" text-anchor="middle">negamax</text>
<text x="515.0" y="532" text-anchor="middle">n=21</text>
<rect class="box" x="649.0" y="447.1" width="80.0" height="1.5" fill="#e45756" fill-opacity="0.70"><title>pruning_full: median=0.237s q1=0.218s q3=0.250s n=25</title></rect>
<line class="median" x1="649.0" y1="447.3" x2="729.0" y2="447.3"/>
<line class="whisker" x1="689.0" y1="447.1" x2="689.0" y2="446.9"/>
<line class="whisker" x1="689.0" y1="447.5" x2="689.0" y2="447.7"/>
<line class="whisker" x1="666.6" y1="446.9" x2="711.4" y2="446.9"/>
<line class="whisker" x1="666.6" y1="447.7" x2="711.4" y2="447.7"/>
<text x="689.0" y="515" text-anchor="middle">pruning_full</text>
<text x="689.0" y="532" text-anchor="middle">n=25</text>
<rect class="box" x="823.0" y="447.0" width="80.0" height="1.5" fill="#72b7b2" fill-opacity="0.70"><title>pvs_id: median=0.233s q1=0.224s q3=0.261s n=5</title></rect>
<line class="median" x1="823.0" y1="447.3" x2="903.0" y2="447.3"/>
<line class="whisker" x1="863.0" y1="447.0" x2="863.0" y2="446.9"/>
<line class="whisker" x1="863.0" y1="447.4" x2="863.0" y2="447.5"/>
<line class="whisker" x1="840.6" y1="446.9" x2="885.4" y2="446.9"/>
<line class="whisker" x1="840.6" y1="447.5" x2="885.4" y2="447.5"/>
<text x="863.0" y="515" text-anchor="middle">pvs_id</text>
<text x="863.0" y="532" text-anchor="middle">n=5</text>
<line class="axis" x1="80" y1="450" x2="950" y2="450"/>
<line class="axis" x1="80" y1="40" x2="80" y2="450"/>
<text x="18" y="280.0" text-anchor="middle" transform="rotate(-90 18 280.0)">Perft Time (s)</text>
</svg>
