<svg xmlns="http://www.w3.org/2000/svg" width="760" height="420" viewBox="0 0 760 420">
<style>text{font-family:Menlo,Consolas,monospace;font-size:12px;fill:#222} .axis{stroke:#333;stroke-width:1} .grid{stroke:#ddd;stroke-width:1} .label{font-size:11px}</style>
<rect x="0" y="0" width="760" height="420" fill="#f7fbff"/>
<text x="380.0" y="22" text-anchor="middle">Mean Perft Time by Board Family</text>
<line class="grid" x1="70" y1="350.0" x2="730" y2="350.0"/>
<text class="label" x="62" y="354.0" text-anchor="end">0.00</text>
<line class="grid" x1="70" y1="288.0" x2="730" y2="288.0"/>
<text class="label" x="62" y="292.0" text-anchor="end">0.03</text>
<line class="grid" x1="70" y1="226.0" x2="730" y2="226.0"/>
<text class="label" x="62" y="230.0" text-anchor="end">0.05</text>
<line class="grid" x1="70" y1="164.0" x2="730" y2="164.0"/>
<text class="label" x="62" y="168.0" text-anchor="end">0.08</text>
<line class="grid" x1="70" y1="102.0" x2="730" y2="102.0"/>
<text class="label" x="62" y="106.0" text-anchor="end">0.10</text>
<line class="grid" x1="70" y1="40.0" x2="730" y2="40.0"/>
<text class="label" x="62" y="44.0" text-anchor="end">0.13</text>
<rect x="136.0" y="80.5" width="198.0" height="269.5" fill="#d62728"><title>10x12 Board: 0.111s</title></rect>
<text class="label" x="235.0" y="385" text-anchor="middle">10x12 Board</text>
<text class="label" x="235.0" y="74.5" text-anchor="middle">0.11</text>
<rect x="466.0" y="40.0" width="198.0" height="310.0" fill="#1f77b4"><title>Bitboards: 0.128s</title></rect>
<text class="label" x="565.0" y="385" text-anchor="middle">Bitboards</text>
<text class="label" x="565.0" y="34.0" text-anchor="middle">0.13</text>
<line class="axis" x1="70" y1="350" x2="730" y2="350"/>
<line class="axis" x1="70" y1="40" x2="70" y2="350"/>
<text x="380.0" y="412" text-anchor="middle">Board Family</text>
<text x="18" y="210.0" text-anchor="middle" transform="rotate(-90 18 210.0)">Mean Perft Time (s)</text>
</svg>
