<svg xmlns="http://www.w3.org/2000/svg" width="630" height="580" viewBox="0 0 630 580">
<style>text{font-family:Menlo,Consolas,monospace;font-size:12px;fill:#222}.cell{stroke:#ddd;stroke-width:1}</style>
<rect x="0" y="0" width="630" height="580" fill="#fff"/>
<text x="430" y="24" text-anchor="middle">Anchor Matchup Heatmap</text>
<text x="300.0" y="52" text-anchor="middle">sf2500</text>
<text x="420.0" y="52" text-anchor="middle">sf2000</text>
<text x="540.0" y="52" text-anchor="middle">sf1500</text>
<text x="232" y="86.0" text-anchor="end">phase3_full_eval</text>
<rect class="cell" x="240" y="70" width="120" height="24" fill="rgb(160,156,76)"/>
<text x="300.0" y="86.0" text-anchor="middle">2.0/4</text>
<rect class="cell" x="360" y="70" width="120" height="24" fill="rgb(122,186,66)"/>
<text x="420.0" y="86.0" text-anchor="middle">3.0/4</text>
<rect class="cell" x="480" y="70" width="120" height="24" fill="rgb(85,216,56)"/>
<text x="540.0" y="86.0" text-anchor="middle">4.0/4</text>
<text x="232" y="110.0" text-anchor="end">stratified_variant_28</text>
<rect class="cell" x="240" y="94" width="120" height="24" fill="rgb(197,126,86)"/>
<text x="300.0" y="110.0" text-anchor="middle">1.0/4</text>
<rect class="cell" x="360" y="94" width="120" height="24" fill="rgb(85,216,56)"/>
<text x="420.0" y="110.0" text-anchor="middle">4.0/4</text>
<rect class="cell" x="480" y="94" width="120" height="24" fill="rgb(85,216,56)"/>
<text x="540.0" y="110.0" text-anchor="middle">4.0/4</text>
<text x="232" y="134.0" text-anchor="end">phase2_10x12_ab_pvs_id</text>
<rect class="cell" x="240" y="118" width="120" height="24" fill="rgb(197,126,86)"/>
<text x="300.0" y="134.0" text-anchor="middle">1.0/4</text>
<rect class="cell" x="360" y="118" width="120" height="24" fill="rgb(160,156,76)"/>
<text x="420.0" y="134.0" text-anchor="middle">2.0/4</text>
<rect class="cell" x="480" y="118" width="120" height="24" fill="rgb(197,126,86)"/>
<text x="540.0" y="134.0" text-anchor="middle">1.0/4</text>
<text x="232" y="158.0" text-anchor="end">stratified_variant_82</text>
<rect class="cell" x="240" y="142" width="120" height="24" fill="rgb(216,111,91)"/>
<text x="300.0" y="158.0" text-anchor="middle">0.5/4</text>
<rect class="cell" x="360" y="142" width="120" height="24" fill="rgb(122,186,66)"/>
<text x="420.0" y="158.0" text-anchor="middle">3.0/4</text>
<rect class="cell" x="480" y="142" width="120" height="24" fill="rgb(122,186,66)"/>
<text x="540.0" y="158.0" text-anchor="middle">3.0/4</text>
<text x="232" y="182.0" text-anchor="end">stratified_variant_61</text>
<rect class="cell" x="240" y="166" width="120" height="24" fill="rgb(235,96,96)"/>
<text x="300.0" y="182.0" text-anchor="middle">0.0/4</text>
<rect class="cell" x="360" y="166" width="120" height="24" fill="rgb(235,96,96)"/>
<text x="420.0" y="182.0" text-anchor="middle">0.0/4</text>
<rect class="cell" x="480" y="166" width="120" height="24" fill="rgb(197,126,86)"/>
<text x="540.0" y="182.0" text-anchor="middle">1.0/4</text>
<text x="232" y="206.0" text-anchor="end">stratified_variant_09</text>
<rect class="cell" x="240" y="190" width="120" height="24" fill="rgb(235,96,96)"/>
<text x="300.0" y="206.0" text-anchor="middle">0.0/4</text>
<rect class="cell" x="360" y="190" width="120" height="24" fill="rgb(235,96,96)"/>
<text x="420.0" y="206.0" text-anchor="middle">0.0/4</text>
<rect class="cell" x="480" y="190" width="120" height="24" fill="rgb(85,216,56)"/>
<text x="540.0" y="206.0" text-anchor="middle">4.0/4</text>
<text x="232" y="230.0" text-anchor="end">strong_variant_02</text>
<rect class="cell" x="240" y="214" width="120" height="24" fill="rgb(197,126,86)"/>
<text x="300.0" y="230.0" text-anchor="middle">1.0/4</text>
<rect class="cell" x="360" y="214" width="120" height="24" fill="rgb(235,96,96)"/>
<text x="420.0" y="230.0" text-anchor="middle">0.0/4</text>
<rect class="cell" x="480" y="214" width="120" height="24" fill="rgb(122,186,66)"/>
<text x="540.0" y="230.0" text-anchor="middle">3.0/4</text>
<text x="232" y="254.0" text-anchor="end">stratified_variant_65</text>
<rect class="cell" x="240" y="238" width="120" height="24" fill="rgb(235,96,96)"/>
<text x="300.0" y="254.0" text-anchor="middle">0.0/4</text>
<rect class="cell" x="360" y="238" width="120" height="24" fill="rgb(235,96,96)"/>
<text x="420.0" y="254.0" text-anchor="middle">0.0/4</text>
<rect class="cell" x="480" y="238" width="120" height="24" fill="rgb(235,96,96)"/>
<text x="540.0" y="254.0" text-anchor="middle">0.0/4</text>
<text x="232" y="278.0" text-anchor="end">phase1_minimax</text>
<rect class="cell" x="240" y="262" width="120" height="24" fill="rgb(235,96,96)"/>
<text x="300.0" y="278.0" text-anchor="middle">0.0/4</text>
<rect class="cell" x="360" y="262" width="120" height="24" fill="rgb(235,96,96)"/>
<text x="420.0" y="278.0" text-anchor="middle">0.0/4</text>
<rect class="cell" x="480" y="262" width="120" height="24" fill="rgb(235,96,96)"/>
<text x="540.0" y="278.0" text-anchor="middle">0.0/4</text>
<text x="232" y="302.0" text-anchor="end">stratified_variant_97</text>
<rect class="cell" x="240" y="286" width="120" height="24" fill="rgb(235,96,96)"/>
<text x="300.0" y="302.0" text-anchor="middle">0.0/4</text>
<rect class="cell" x="360" y="286" width="120" height="24" fill="rgb(235,96,96)"/>
<text x="420.0" y="302.0" text-anchor="middle">0.0/4</text>
<rect class="cell" x="480" y="286" width="120" height="24" fill="rgb(235,96,96)"/>
<text x="540.0" y="302.0" text-anchor="middle">0.0/4</text>
<text x="232" y="326.0" text-anchor="end">stratified_variant_04</text>
<rect class="cell" x="240" y="310" width="120" height="24" fill="rgb(235,96,96)"/>
<text x="300.0" y="326.0" text-anchor="middle">0.0/4</text>
<rect class="cell" x="360" y="310" width="120" height="24" fill="rgb(235,96,96)"/>
<text x="420.0" y="326.0" text-anchor="middle">0.0/4</text>
<rect class="cell" x="480" y="310" width="120" height="24" fill="rgb(235,96,96)"/>
<text x="540.0" y="326.0" text-anchor="middle">0.0/4</text>
<text x="232" y="350.0" text-anchor="end">stratified_variant_43</text>
<rect class="cell" x="240" y="334" width="120" height="24" fill="rgb(235,96,96)"/>
<text x="300.0" y="350.0" text-anchor="middle">0.0/4</text>
<rect class="cell" x="360" y="334" width="120" height="24" fill="rgb(235,96,96)"/>
<text x="420.0" y="350.0" text-anchor="middle">0.0/4</text>
<rect class="cell" x="480" y="334" width="120" height="24" fill="rgb(235,96,96)"/>
<text x="540.0" y="350.0" text-anchor="middle">0.0/4</text>
<text x="232" y="374.0" text-anchor="end">stratified_variant_87</text>
<rect class="cell" x="240" y="358" width="120" height="24" fill="rgb(235,96,96)"/>
<text x="300.0" y="374.0" text-anchor="middle">0.0/4</text>
<rect class="cell" x="360" y="358" width="120" height="24" fill="rgb(235,96,96)"/>
<text x="420.0" y="374.0" text-anchor="middle">0.0/4</text>
<rect class="cell" x="480" y="358" width="120" height="24" fill="rgb(235,96,96)"/>
<text x="540.0" y="374.0" text-anchor="middle">0.0/4</text>
<text x="232" y="398.0" text-anchor="end">stratified_variant_60</text>
<rect class="cell" x="240" y="382" width="120" height="24" fill="rgb(235,96,96)"/>
<text x="300.0" y="398.0" text-anchor="middle">0.0/4</text>
<rect class="cell" x="360" y="382" width="120" height="24" fill="rgb(235,96,96)"/>
<text x="420.0" y="398.0" text-anchor="middle">0.0/4</text>
<rect class="cell" x="480" y="382" width="120" height="24" fill="rgb(235,96,96)"/>
<text x="540.0" y="398.0" text-anchor="middle">0.0/4</text>
<text x="232" y="422.0" text-anchor="end">stratified_variant_45</text>
<rect class="cell" x="240" y="406" width="120" height="24" fill="rgb(235,96,96)"/>
<text x="300.0" y="422.0" text-anchor="middle">0.0/4</text>
<rect class="cell" x="360" y="406" width="120" height="24" fill="rgb(235,96,96)"/>
<text x="420.0" y="422.0" text-anchor="middle">0.0/4</text>
<rect class="cell" x="480" y="406" width="120" height="24" fill="rgb(235,96,96)"/>
<text x="540.0" y="422.0" text-anchor="middle">0.0/4</text>
<text x="232" y="446.0" text-anchor="end">stratified_variant_78</text>
<rect class="cell" x="240" y="430" width="120" height="24" fill="rgb(235,96,96)"/>
<text x="300.0" y="446.0" text-anchor="middle">0.0/4</text>
<rect class="cell" x="360" y="430" width="120" height="24" fill="rgb(235,96,96)"/>
<text x="420.0" y="446.0" text-anchor="middle">0.0/4</text>
<rect class="cell" x="480" y="430" width="120" height="24" fill="rgb(235,96,96)"/>
<text x="540.0" y="446.0" text-anchor="middle">0.0/4</text>
<text x="232" y="470.0" text-anchor="end">stratified_variant_66</text>
<rect class="cell" x="240" y="454" width="120" height="24" fill="rgb(235,96,96)"/>
<text x="300.0" y="470.0" text-anchor="middle">0.0/4</text>
<rect class="cell" x="360" y="454" width="120" height="24" fill="rgb(235,96,96)"/>
<text x="420.0" y="470.0" text-anchor="middle">0.0/4</text>
<rect class="cell" x="480" y="454" width="120" height="24" fill="rgb(235,96,96)"/>
<text x="540.0" y="470.0" text-anchor="middle">0.0/4</text>
<text x="232" y="494.0" text-anchor="end">stratified_variant_55</text>
<rect class="cell" x="240" y="478" width="120" height="24" fill="rgb(235,96,96)"/>
<text x="300.0" y="494.0" text-anchor="middle">0.0/4</text>
<rect class="cell" x="360" y="478" width="120" height="24" fill="rgb(235,96,96)"/>
<text x="420.0" y="494.0" text-anchor="middle">0.0/4</text>
<rect class="cell" x="480" y="478" width="120" height="24" fill="rgb(235,96,96)"/>
<text x="540.0" y="494.0" text-anchor="middle">0.0/4</text>
<text x="232" y="518.0" text-anchor="end">stratified_variant_17</text>
<rect class="cell" x="240" y="502" width="120" height="24" fill="rgb(235,96,96)"/>
<text x="300.0" y="518.0" text-anchor="middle">0.0/4</text>
<rect class="cell" x="360" y="502" width="120" height="24" fill="rgb(235,96,96)"/>
<text x="420.0" y="518.0" text-anchor="middle">0.0/4</text>
<rect class="cell" x="480" y="502" width="120" height="24" fill="rgb(235,96,96)"/>
<text x="540.0" y="518.0" text-anchor="middle">0.0/4</text>
<text x="232" y="542.0" text-anchor="end">stratified_variant_98</text>
<rect class="cell" x="240" y="526" width="120" height="24" fill="rgb(235,96,96)"/>
<text x="300.0" y="542.0" text-anchor="middle">0.0/4</text>
<rect class="cell" x="360" y="526" width="120" height="24" fill="rgb(235,96,96)"/>
<text x="420.0" y="542.0" text-anchor="middle">0.0/4</text>
<rect class="cell" x="480" y="526" width="120" height="24" fill="rgb(235,96,96)"/>
<text x="540.0" y="542.0" text-anchor="middle">0.0/4</text>
</svg>
