<svg xmlns="http://www.w3.org/2000/svg" width="980" height="520" viewBox="0 0 980 520">
<style>text{font-family:Menlo,Consolas,monospace;font-size:12px;fill:#222}.axis{stroke:#333;stroke-width:1}.grid{stroke:#ddd;stroke-width:1}</style>
<rect x="0" y="0" width="980" height="520" fill="#fff"/>
<text x="490" y="24" text-anchor="middle">Rank Shift: Shallow Depth-3 vs Realistic 10+0.1</text>
<line class="grid" x1="290.0" y1="40" x2="290.0" y2="496"/>
<text x="290.0" y="514" text-anchor="middle">-55</text>
<line class="grid" x1="371.2" y1="40" x2="371.2" y2="496"/>
<text x="371.2" y="514" text-anchor="middle">-41</text>
<line class="grid" x1="452.5" y1="40" x2="452.5" y2="496"/>
<text x="452.5" y="514" text-anchor="middle">-28</text>
<line class="grid" x1="533.8" y1="40" x2="533.8" y2="496"/>
<text x="533.8" y="514" text-anchor="middle">-14</text>
<line class="grid" x1="615.0" y1="40" x2="615.0" y2="496"/>
<text x="615.0" y="514" text-anchor="middle">0</text>
<line class="grid" x1="696.2" y1="40" x2="696.2" y2="496"/>
<text x="696.2" y="514" text-anchor="middle">14</text>
<line class="grid" x1="777.5" y1="40" x2="777.5" y2="496"/>
<text x="777.5" y="514" text-anchor="middle">28</text>
<line class="grid" x1="858.8" y1="40" x2="858.8" y2="496"/>
<text x="858.8" y="514" text-anchor="middle">41</text>
<line class="grid" x1="940.0" y1="40" x2="940.0" y2="496"/>
<text x="940.0" y="514" text-anchor="middle">55</text>
<line class="axis" x1="615.0" y1="40" x2="615.0" y2="496"/>
<text x="10" y="54.0">stratified_variant_87</text>
<rect x="290.0" y="40.0" width="325.0" height="14" fill="#e45756"/>
<text x="282.0" y="52.0" text-anchor="end">-55.1</text>
<text x="10" y="76.0">stratified_variant_60</text>
<rect x="320.1" y="62.0" width="294.9" height="14" fill="#e45756"/>
<text x="312.1" y="74.0" text-anchor="end">-50.0</text>
<text x="10" y="98.0">stratified_variant_17</text>
<rect x="340.1" y="84.0" width="274.9" height="14" fill="#e45756"/>
<text x="332.1" y="96.0" text-anchor="end">-46.6</text>
<text x="10" y="120.0">stratified_variant_55</text>
<rect x="343.7" y="106.0" width="271.3" height="14" fill="#e45756"/>
<text x="335.7" y="118.0" text-anchor="end">-46.0</text>
<text x="10" y="142.0">stratified_variant_45</text>
<rect x="454.0" y="128.0" width="161.0" height="14" fill="#e45756"/>
<text x="446.0" y="140.0" text-anchor="end">-27.3</text>
<text x="10" y="164.0">stratified_variant_98</text>
<rect x="534.8" y="150.0" width="80.2" height="14" fill="#e45756"/>
<text x="526.8" y="162.0" text-anchor="end">-13.6</text>
<text x="10" y="186.0">phase1_minimax</text>
<rect x="564.9" y="172.0" width="50.1" height="14" fill="#e45756"/>
<text x="556.9" y="184.0" text-anchor="end">-8.5</text>
<text x="10" y="208.0">stratified_variant_82</text>
<rect x="615.0" y="194.0" width="3.5" height="14" fill="#4c78a8"/>
<text x="626.5" y="206.0" text-anchor="start">+0.6</text>
<text x="10" y="230.0">stratified_variant_78</text>
<rect x="615.0" y="216.0" width="10.0" height="14" fill="#4c78a8"/>
<text x="633.0" y="228.0" text-anchor="start">+1.7</text>
<text x="10" y="252.0">stratified_variant_04</text>
<rect x="615.0" y="238.0" width="27.1" height="14" fill="#4c78a8"/>
<text x="650.1" y="250.0" text-anchor="start">+4.6</text>
<text x="10" y="274.0">phase3_full_eval</text>
<rect x="615.0" y="260.0" width="53.1" height="14" fill="#4c78a8"/>
<text x="676.1" y="272.0" text-anchor="start">+9.0</text>
<text x="10" y="296.0">stratified_variant_43</text>
<rect x="615.0" y="282.0" width="56.6" height="14" fill="#4c78a8"/>
<text x="679.6" y="294.0" text-anchor="start">+9.6</text>
<text x="10" y="318.0">stratified_variant_09</text>
<rect x="615.0" y="304.0" width="63.7" height="14" fill="#4c78a8"/>
<text x="686.7" y="316.0" text-anchor="start">+10.8</text>
<text x="10" y="340.0">strong_variant_02</text>
<rect x="615.0" y="326.0" width="63.7" height="14" fill="#4c78a8"/>
<text x="686.7" y="338.0" text-anchor="start">+10.8</text>
<text x="10" y="362.0">stratified_variant_28</text>
<rect x="615.0" y="348.0" width="73.7" height="14" fill="#4c78a8"/>
<text x="696.7" y="360.0" text-anchor="start">+12.5</text>
<text x="10" y="384.0">phase2_10x12_ab_pvs_id</text>
<rect x="615.0" y="370.0" width="76.7" height="14" fill="#4c78a8"/>
<text x="699.7" y="382.0" text-anchor="start">+13.0</text>
<text x="10" y="406.0">stratified_variant_97</text>
<rect x="615.0" y="392.0" width="113.8" height="14" fill="#4c78a8"/>
<text x="736.8" y="404.0" text-anchor="start">+19.3</text>
<text x="10" y="428.0">stratified_variant_66</text>
<rect x="615.0" y="414.0" width="123.9" height="14" fill="#4c78a8"/>
<text x="746.9" y="426.0" text-anchor="start">+21.0</text>
<text x="10" y="450.0">stratified_variant_61</text>
<rect x="615.0" y="436.0" width="174.0" height="14" fill="#4c78a8"/>
<text x="797.0" y="448.0" text-anchor="start">+29.5</text>
<text x="10" y="472.0">stratified_variant_65</text>
<rect x="615.0" y="458.0" width="244.8" height="14" fill="#4c78a8"/>
<text x="867.8" y="470.0" text-anchor="start">+41.5</text>
</svg>
