<svg xmlns="http://www.w3.org/2000/svg" width="980" height="620" viewBox="0 0 980 620">
<style>text{font-family:Menlo,Consolas,monospace;font-size:12px;fill:#222}.grid{stroke:#ddd;stroke-width:1}.axis{stroke:#333;stroke-width:1}.anchor{stroke:#999;stroke-width:1.2;stroke-dasharray:5 4}.label{font-size:11px}</style>
<rect x="0" y="0" width="980" height="620" fill="#fff"/>
<text x="490" y="22" text-anchor="middle">Realistic Strength vs Perft-6 Runtime</text>
<line class="grid" x1="80" y1="555.0" x2="810" y2="555.0"/>
<text x="70" y="559.0" text-anchor="end">0%</text>
<line class="grid" x1="80" y1="452.0" x2="810" y2="452.0"/>
<text x="70" y="456.0" text-anchor="end">20%</text>
<line class="grid" x1="80" y1="349.0" x2="810" y2="349.0"/>
<text x="70" y="353.0" text-anchor="end">40%</text>
<line class="grid" x1="80" y1="246.0" x2="810" y2="246.0"/>
<text x="70" y="250.0" text-anchor="end">60%</text>
<line class="grid" x1="80" y1="143.0" x2="810" y2="143.0"/>
<text x="70" y="147.0" text-anchor="end">80%</text>
<line class="grid" x1="80" y1="40.0" x2="810" y2="40.0"/>
<text x="70" y="44.0" text-anchor="end">100%</text>
<line class="grid" x1="80.0" y1="40" x2="80.0" y2="555"/>
<text x="80.0" y="602" text-anchor="middle">1.5s</text>
<line class="grid" x1="226.0" y1="40" x2="226.0" y2="555"/>
<text x="226.0" y="602" text-anchor="middle">3.4s</text>
<line class="grid" x1="372.0" y1="40" x2="372.0" y2="555"/>
<text x="372.0" y="602" text-anchor="middle">5.3s</text>
<line class="grid" x1="518.0" y1="40" x2="518.0" y2="555"/>
<text x="518.0" y="602" text-anchor="middle">7.2s</text>
<line class="grid" x1="664.0" y1="40" x2="664.0" y2="555"/>
<text x="664.0" y="602" text-anchor="middle">9.1s</text>
<line class="grid" x1="810.0" y1="40" x2="810.0" y2="555"/>
<text x="810.0" y="602" text-anchor="middle">11.0s</text>
<line class="anchor" x1="80" y1="83.8" x2="810" y2="83.8"/>
<text class="label" x="968" y="87.8" text-anchor="end">sf2500: 91.5%</text>
<line class="anchor" x1="80" y1="139.4" x2="810" y2="139.4"/>
<text class="label" x="968" y="143.4" text-anchor="end">sf2000: 80.7%</text>
<line class="anchor" x1="80" y1="186.3" x2="810" y2="186.3"/>
<text class="label" x="968" y="190.3" text-anchor="end">sf1500: 71.6%</text>
<line class="axis" x1="80" y1="555" x2="810" y2="555"/>
<line class="axis" x1="80" y1="40" x2="80" y2="555"/>
<text x="445.0" y="618" text-anchor="middle">Perft-6 Runtime (s)</text>
<text x="18" y="297.5" text-anchor="middle" transform="rotate(-90 18 297.5)">Tournament Score</text>
<circle cx="220.1" cy="81.2" r="5" fill="#1f77b4" stroke="#111" stroke-width="0.6"><title>phase3_full_eval: score=92.0% perft6=3.285s</title></circle>
<text class="label" x="227.1" y="74.2">phase3_full_eval</text>
<circle cx="89.3" cy="104.4" r="4" fill="#ff7f0e" stroke="#111" stroke-width="0.6"><title>stratified_variant_28: score=87.5% perft6=1.582s</title></circle>
<text class="label" x="96.3" y="97.4">stratified_variant_28</text>
<circle cx="101.8" cy="125.0" r="5" fill="#d62728" stroke="#111" stroke-width="0.6"><title>phase2_10x12_ab_pvs_id: score=83.5% perft6=1.745s</title></circle>
<text class="label" x="108.8" y="118.0">phase2_10x12_ab_pvs_id</text>
<circle cx="86.5" cy="165.7" r="4" fill="#ff7f0e" stroke="#111" stroke-width="0.6"><title>stratified_variant_82: score=75.6% perft6=1.546s</title></circle>
<circle cx="99.4" cy="180.6" r="4" fill="#d62728" stroke="#111" stroke-width="0.6"><title>stratified_variant_61: score=72.7% perft6=1.714s</title></circle>
<circle cx="189.6" cy="195.0" r="4" fill="#ff7f0e" stroke="#111" stroke-width="0.6"><title>stratified_variant_09: score=69.9% perft6=2.888s</title></circle>
<circle cx="197.7" cy="200.7" r="5" fill="#1f77b4" stroke="#111" stroke-width="0.6"><title>strong_variant_02: score=68.8% perft6=2.994s</title></circle>
<text class="label" x="204.7" y="193.7">strong_variant_02</text>
<circle cx="172.9" cy="271.2" r="4" fill="#ff7f0e" stroke="#111" stroke-width="0.6"><title>stratified_variant_65: score=55.1% perft6=2.671s</title></circle>
<circle cx="234.3" cy="370.6" r="5" fill="#1f77b4" stroke="#111" stroke-width="0.6"><title>phase1_minimax: score=35.8% perft6=3.47s</title></circle>
<text class="label" x="241.3" y="363.6">phase1_minimax</text>
<circle cx="101.7" cy="373.7" r="4" fill="#ff7f0e" stroke="#111" stroke-width="0.6"><title>stratified_variant_97: score=35.2% perft6=1.744s</title></circle>
<circle cx="93.1" cy="379.4" r="4" fill="#ff7f0e" stroke="#111" stroke-width="0.6"><title>stratified_variant_04: score=34.1% perft6=1.632s</title></circle>
<circle cx="90.1" cy="382.5" r="4" fill="#d62728" stroke="#111" stroke-width="0.6"><title>stratified_variant_43: score=33.5% perft6=1.592s</title></circle>
<circle cx="89.1" cy="388.1" r="4" fill="#ff7f0e" stroke="#111" stroke-width="0.6"><title>stratified_variant_87: score=32.4% perft6=1.579s</title></circle>
<circle cx="100.8" cy="391.2" r="4" fill="#d62728" stroke="#111" stroke-width="0.6"><title>stratified_variant_60: score=31.8% perft6=1.732s</title></circle>
<circle cx="80.0" cy="396.9" r="4" fill="#ff7f0e" stroke="#111" stroke-width="0.6"><title>stratified_variant_45: score=30.7% perft6=1.461s</title></circle>
<circle cx="112.6" cy="411.8" r="4" fill="#ff7f0e" stroke="#111" stroke-width="0.6"><title>stratified_variant_78: score=27.8% perft6=1.885s</title></circle>
<circle cx="111.7" cy="429.3" r="4" fill="#ff7f0e" stroke="#111" stroke-width="0.6"><title>stratified_variant_66: score=24.4% perft6=1.874s</title></circle>
<circle cx="114.9" cy="499.4" r="4" fill="#ff7f0e" stroke="#111" stroke-width="0.6"><title>stratified_variant_55: score=10.8% perft6=1.916s</title></circle>
<text class="label" x="121.9" y="492.4">stratified_variant_55</text>
<circle cx="810.0" cy="543.2" r="4" fill="#d62728" stroke="#111" stroke-width="0.6"><title>stratified_variant_17: score=2.3% perft6=10.966s</title></circle>
<text class="label" x="817.0" y="536.2">stratified_variant_17</text>
<circle cx="183.5" cy="543.2" r="4" fill="#ff7f0e" stroke="#111" stroke-width="0.6"><title>stratified_variant_98: score=2.3% perft6=2.808s</title></circle>
<text class="label" x="190.5" y="536.2">stratified_variant_98</text>
<circle cx="830" cy="60" r="5" fill="#1f77b4" stroke="#111" stroke-width="0.6"/>
<text x="842" y="64.0">Bitboards</text>
<circle cx="830" cy="78" r="5" fill="#ff7f0e" stroke="#111" stroke-width="0.6"/>
<text x="842" y="82.0">0x88</text>
<circle cx="830" cy="96" r="5" fill="#2ca02c" stroke="#111" stroke-width="0.6"/>
<text x="842" y="100.0">Mailbox</text>
<circle cx="830" cy="114" r="5" fill="#d62728" stroke="#111" stroke-width="0.6"/>
<text x="842" y="118.0">10x12 Board</text>
</svg>
