<svg xmlns="http://www.w3.org/2000/svg" width="980" height="640" viewBox="0 0 980 640">
<style>text{font-family:Menlo,Consolas,monospace;font-size:12px;fill:#222}.grid{stroke:#ddd;stroke-width:1}</style>
<rect x="0" y="0" width="980" height="640" fill="#fff"/>
<text x="490.0" y="24" text-anchor="middle">Anchored Diversity Tournament Score Ladder</text>
<line class="grid" x1="240.0" y1="40" x2="240.0" y2="610"/>
<text x="240.0" y="630" text-anchor="middle">0%</text>
<line class="grid" x1="380.0" y1="40" x2="380.0" y2="610"/>
<text x="380.0" y="630" text-anchor="middle">20%</text>
<line class="grid" x1="520.0" y1="40" x2="520.0" y2="610"/>
<text x="520.0" y="630" text-anchor="middle">40%</text>
<line class="grid" x1="660.0" y1="40" x2="660.0" y2="610"/>
<text x="660.0" y="630" text-anchor="middle">60%</text>
<line class="grid" x1="800.0" y1="40" x2="800.0" y2="610"/>
<text x="800.0" y="630" text-anchor="middle">80%</text>
<line class="grid" x1="940.0" y1="40" x2="940.0" y2="610"/>
<text x="940.0" y="630" text-anchor="middle">100%</text>
<text x="10" y="54.0">stratified_variant_87</text>
<rect x="240" y="40.0" width="612.5" height="14" fill="#4c78a8"/>
<text x="860.5" y="52.0">87.5%</text>
<text x="10" y="76.0">phase3_full_eval</text>
<rect x="240" y="62.0" width="581.0" height="14" fill="#4c78a8"/>
<text x="829.0" y="74.0">83.0%</text>
<text x="10" y="98.0">stratified_variant_60</text>
<rect x="240" y="84.0" width="572.6" height="14" fill="#4c78a8"/>
<text x="820.6" y="96.0">81.8%</text>
<text x="10" y="120.0">stratified_variant_28</text>
<rect x="240" y="106.0" width="525.0" height="14" fill="#4c78a8"/>
<text x="773.0" y="118.0">75.0%</text>
<text x="10" y="142.0">stratified_variant_82</text>
<rect x="240" y="128.0" width="525.0" height="14" fill="#4c78a8"/>
<text x="773.0" y="140.0">75.0%</text>
<text x="10" y="164.0">phase2_10x12_ab_pvs_id</text>
<rect x="240" y="150.0" width="493.5" height="14" fill="#4c78a8"/>
<text x="741.5" y="162.0">70.5%</text>
<text x="10" y="186.0">sf2000</text>
<rect x="240" y="172.0" width="485.1" height="14" fill="#e45756"/>
<text x="733.1" y="184.0">69.3%</text>
<text x="10" y="208.0">sf2500</text>
<rect x="240" y="194.0" width="477.4" height="14" fill="#e45756"/>
<text x="725.4" y="206.0">68.2%</text>
<text x="10" y="230.0">stratified_variant_09</text>
<rect x="240" y="216.0" width="413.7" height="14" fill="#4c78a8"/>
<text x="661.7" y="228.0">59.1%</text>
<text x="10" y="252.0">stratified_variant_45</text>
<rect x="240" y="238.0" width="406.0" height="14" fill="#4c78a8"/>
<text x="654.0" y="250.0">58.0%</text>
<text x="10" y="274.0">strong_variant_02</text>
<rect x="240" y="260.0" width="406.0" height="14" fill="#4c78a8"/>
<text x="654.0" y="272.0">58.0%</text>
<text x="10" y="296.0">stratified_variant_55</text>
<rect x="240" y="282.0" width="397.6" height="14" fill="#4c78a8"/>
<text x="645.6" y="294.0">56.8%</text>
<text x="10" y="318.0">stratified_variant_17</text>
<rect x="240" y="304.0" width="342.3" height="14" fill="#4c78a8"/>
<text x="590.3" y="316.0">48.9%</text>
<text x="10" y="340.0">phase1_minimax</text>
<rect x="240" y="326.0" width="310.1" height="14" fill="#4c78a8"/>
<text x="558.1" y="338.0">44.3%</text>
<text x="10" y="362.0">sf1500</text>
<rect x="240" y="348.0" width="302.4" height="14" fill="#e45756"/>
<text x="550.4" y="360.0">43.2%</text>
<text x="10" y="384.0">stratified_variant_61</text>
<rect x="240" y="370.0" width="302.4" height="14" fill="#4c78a8"/>
<text x="550.4" y="382.0">43.2%</text>
<text x="10" y="406.0">stratified_variant_04</text>
<rect x="240" y="392.0" width="206.5" height="14" fill="#4c78a8"/>
<text x="454.5" y="404.0">29.5%</text>
<text x="10" y="428.0">stratified_variant_78</text>
<rect x="240" y="414.0" width="182.7" height="14" fill="#4c78a8"/>
<text x="430.7" y="426.0">26.1%</text>
<text x="10" y="450.0">stratified_variant_43</text>
<rect x="240" y="436.0" width="167.3" height="14" fill="#4c78a8"/>
<text x="415.3" y="448.0">23.9%</text>
<text x="10" y="472.0">stratified_variant_98</text>
<rect x="240" y="458.0" width="111.3" height="14" fill="#4c78a8"/>
<text x="359.3" y="470.0">15.9%</text>
<text x="10" y="494.0">stratified_variant_97</text>
<rect x="240" y="480.0" width="111.3" height="14" fill="#4c78a8"/>
<text x="359.3" y="492.0">15.9%</text>
<text x="10" y="516.0">stratified_variant_65</text>
<rect x="240" y="502.0" width="95.2" height="14" fill="#4c78a8"/>
<text x="343.2" y="514.0">13.6%</text>
<text x="10" y="538.0">stratified_variant_66</text>
<rect x="240" y="524.0" width="23.8" height="14" fill="#4c78a8"/>
<text x="271.8" y="536.0">3.4%</text>
</svg>
