<svg xmlns="http://www.w3.org/2000/svg" width="980" height="586" viewBox="0 0 980 586">
<style>text{font-family:Menlo,Consolas,monospace;font-size:12px;fill:#222}.grid{stroke:#ddd;stroke-width:1}</style>
<rect x="0" y="0" width="980" height="586" fill="#fff"/>
<text x="490.0" y="24" text-anchor="middle">Anchored Diversity Tournament Score Ladder</text>
<line class="grid" x1="240.0" y1="40" x2="240.0" y2="562"/>
<text x="240.0" y="580" text-anchor="middle">0%</text>
<line class="grid" x1="380.0" y1="40" x2="380.0" y2="562"/>
<text x="380.0" y="580" text-anchor="middle">20%</text>
<line class="grid" x1="520.0" y1="40" x2="520.0" y2="562"/>
<text x="520.0" y="580" text-anchor="middle">40%</text>
<line class="grid" x1="660.0" y1="40" x2="660.0" y2="562"/>
<text x="660.0" y="580" text-anchor="middle">60%</text>
<line class="grid" x1="800.0" y1="40" x2="800.0" y2="562"/>
<text x="800.0" y="580" text-anchor="middle">80%</text>
<line class="grid" x1="940.0" y1="40" x2="940.0" y2="562"/>
<text x="940.0" y="580" text-anchor="middle">100%</text>
<text x="10" y="54.0">phase3_full_eval</text>
<rect x="240" y="40.0" width="644.0" height="14" fill="#4c78a8"/>
<text x="892.0" y="52.0">92.0%</text>
<text x="10" y="76.0">sf2500</text>
<rect x="240" y="62.0" width="640.5" height="14" fill="#e45756"/>
<text x="888.5" y="74.0">91.5%</text>
<text x="10" y="98.0">stratified_variant_28</text>
<rect x="240" y="84.0" width="612.5" height="14" fill="#4c78a8"/>
<text x="860.5" y="96.0">87.5%</text>
<text x="10" y="120.0">phase2_10x12_ab_pvs_id</text>
<rect x="240" y="106.0" width="584.5" height="14" fill="#4c78a8"/>
<text x="832.5" y="118.0">83.5%</text>
<text x="10" y="142.0">sf2000</text>
<rect x="240" y="128.0" width="564.9" height="14" fill="#e45756"/>
<text x="812.9" y="140.0">80.7%</text>
<text x="10" y="164.0">stratified_variant_82</text>
<rect x="240" y="150.0" width="529.2" height="14" fill="#4c78a8"/>
<text x="777.2" y="162.0">75.6%</text>
<text x="10" y="186.0">stratified_variant_61</text>
<rect x="240" y="172.0" width="508.9" height="14" fill="#4c78a8"/>
<text x="756.9" y="184.0">72.7%</text>
<text x="10" y="208.0">sf1500</text>
<rect x="240" y="194.0" width="501.2" height="14" fill="#e45756"/>
<text x="749.2" y="206.0">71.6%</text>
<text x="10" y="230.0">stratified_variant_09</text>
<rect x="240" y="216.0" width="489.3" height="14" fill="#4c78a8"/>
<text x="737.3" y="228.0">69.9%</text>
<text x="10" y="252.0">strong_variant_02</text>
<rect x="240" y="238.0" width="481.6" height="14" fill="#4c78a8"/>
<text x="729.6" y="250.0">68.8%</text>
<text x="10" y="274.0">stratified_variant_65</text>
<rect x="240" y="260.0" width="385.7" height="14" fill="#4c78a8"/>
<text x="633.7" y="272.0">55.1%</text>
<text x="10" y="296.0">phase1_minimax</text>
<rect x="240" y="282.0" width="250.6" height="14" fill="#4c78a8"/>
<text x="498.6" y="294.0">35.8%</text>
<text x="10" y="318.0">stratified_variant_97</text>
<rect x="240" y="304.0" width="246.4" height="14" fill="#4c78a8"/>
<text x="494.4" y="316.0">35.2%</text>
<text x="10" y="340.0">stratified_variant_04</text>
<rect x="240" y="326.0" width="238.7" height="14" fill="#4c78a8"/>
<text x="486.7" y="338.0">34.1%</text>
<text x="10" y="362.0">stratified_variant_43</text>
<rect x="240" y="348.0" width="234.5" height="14" fill="#4c78a8"/>
<text x="482.5" y="360.0">33.5%</text>
<text x="10" y="384.0">stratified_variant_87</text>
<rect x="240" y="370.0" width="226.8" height="14" fill="#4c78a8"/>
<text x="474.8" y="382.0">32.4%</text>
<text x="10" y="406.0">stratified_variant_60</text>
<rect x="240" y="392.0" width="222.6" height="14" fill="#4c78a8"/>
<text x="470.6" y="404.0">31.8%</text>
<text x="10" y="428.0">stratified_variant_45</text>
<rect x="240" y="414.0" width="214.9" height="14" fill="#4c78a8"/>
<text x="462.9" y="426.0">30.7%</text>
<text x="10" y="450.0">stratified_variant_78</text>
<rect x="240" y="436.0" width="194.6" height="14" fill="#4c78a8"/>
<text x="442.6" y="448.0">27.8%</text>
<text x="10" y="472.0">stratified_variant_66</text>
<rect x="240" y="458.0" width="170.8" height="14" fill="#4c78a8"/>
<text x="418.8" y="470.0">24.4%</text>
<text x="10" y="494.0">stratified_variant_55</text>
<rect x="240" y="480.0" width="75.6" height="14" fill="#4c78a8"/>
<text x="323.6" y="492.0">10.8%</text>
<text x="10" y="516.0">stratified_variant_17</text>
<rect x="240" y="502.0" width="16.1" height="14" fill="#4c78a8"/>
<text x="264.1" y="514.0">2.3%</text>
<text x="10" y="538.0">stratified_variant_98</text>
<rect x="240" y="524.0" width="16.1" height="14" fill="#4c78a8"/>
<text x="264.1" y="536.0">2.3%</text>
</svg>
