<svg xmlns="http://www.w3.org/2000/svg" width="980" height="630" viewBox="0 0 980 630">
<style>text{font-family:Menlo,Consolas,monospace;font-size:12px;fill:#222} .axis{stroke:#333;stroke-width:1} .grid{stroke:#ddd;stroke-width:1}</style>
<rect x="0" y="0" width="980" height="630" fill="#ffffff"/>
<text x="490.0" y="24" text-anchor="middle">Fastest Screen-Passing Variants by Perft Time</text>
<text x="10" y="64.0">01</text>
<text x="40" y="64.0">stratified_variant_45</text>
<rect x="250" y="50.0" width="601.5" height="14" fill="#ff7f0e"/>
<text x="859.5" y="62.0">1.461s</text>
<text x="970" y="64.0" text-anchor="end">0x88__alpha_beta__rich_eval</text>
<text x="10" y="86.0">02</text>
<text x="40" y="86.0">stratified_variant_94</text>
<rect x="250" y="72.0" width="604.8" height="14" fill="#ff7f0e"/>
<text x="862.8" y="84.0">1.469s</text>
<text x="970" y="86.0" text-anchor="end">0x88__alpha_beta__rich_eval</text>
<text x="10" y="108.0">03</text>
<text x="40" y="108.0">stratified_variant_100</text>
<rect x="250" y="94.0" width="614.2" height="14" fill="#d62728"/>
<text x="872.2" y="106.0">1.492s</text>
<text x="970" y="108.0" text-anchor="end">10x12 Board__negamax__rich_eval</text>
<text x="10" y="130.0">04</text>
<text x="40" y="130.0">stratified_variant_42</text>
<rect x="250" y="116.0" width="632.4" height="14" fill="#2ca02c"/>
<text x="890.4" y="128.0">1.536s</text>
<text x="970" y="130.0" text-anchor="end">Mailbox__alpha_beta__rich_eval</text>
<text x="10" y="152.0">05</text>
<text x="40" y="152.0">stratified_variant_82</text>
<rect x="250" y="138.0" width="636.5" height="14" fill="#ff7f0e"/>
<text x="894.5" y="150.0">1.546s</text>
<text x="970" y="152.0" text-anchor="end">0x88__minimax__rich_eval</text>
<text x="10" y="174.0">06</text>
<text x="40" y="174.0">stratified_variant_18</text>
<rect x="250" y="160.0" width="641.0" height="14" fill="#2ca02c"/>
<text x="899.0" y="172.0">1.557s</text>
<text x="970" y="174.0" text-anchor="end">Mailbox__minimax__pst_eval</text>
<text x="10" y="196.0">07</text>
<text x="40" y="196.0">stratified_variant_58</text>
<rect x="250" y="182.0" width="645.5" height="14" fill="#2ca02c"/>
<text x="903.5" y="194.0">1.568s</text>
<text x="970" y="196.0" text-anchor="end">Mailbox__pruning_full__rich_eval</text>
<text x="10" y="218.0">08</text>
<text x="40" y="218.0">stratified_variant_50</text>
<rect x="250" y="204.0" width="649.7" height="14" fill="#2ca02c"/>
<text x="907.7" y="216.0">1.578s</text>
<text x="970" y="218.0" text-anchor="end">Mailbox__minimax__structural_eval</text>
<text x="10" y="240.0">09</text>
<text x="40" y="240.0">stratified_variant_87</text>
<rect x="250" y="226.0" width="650.1" height="14" fill="#ff7f0e"/>
<text x="908.1" y="238.0">1.579s</text>
<text x="970" y="240.0" text-anchor="end">0x88__pruning_full__rich_eval</text>
<text x="10" y="262.0">10</text>
<text x="40" y="262.0">stratified_variant_28</text>
<rect x="250" y="248.0" width="651.3" height="14" fill="#ff7f0e"/>
<text x="909.3" y="260.0">1.582s</text>
<text x="970" y="262.0" text-anchor="end">0x88__minimax__structural_eval</text>
<text x="10" y="284.0">11</text>
<text x="40" y="284.0">stratified_variant_62</text>
<rect x="250" y="270.0" width="652.9" height="14" fill="#ff7f0e"/>
<text x="910.9" y="282.0">1.586s</text>
<text x="970" y="284.0" text-anchor="end">0x88__alpha_beta__rich_eval</text>
<text x="10" y="306.0">12</text>
<text x="40" y="306.0">stratified_variant_03</text>
<rect x="250" y="292.0" width="655.4" height="14" fill="#d62728"/>
<text x="913.4" y="304.0">1.592s</text>
<text x="970" y="306.0" text-anchor="end">10x12 Board__pruning_full__rich_eval</text>
<text x="10" y="328.0">13</text>
<text x="40" y="328.0">stratified_variant_43</text>
<rect x="250" y="314.0" width="655.4" height="14" fill="#d62728"/>
<text x="913.4" y="326.0">1.592s</text>
<text x="970" y="328.0" text-anchor="end">10x12 Board__alpha_beta__rich_eval</text>
<text x="10" y="350.0">14</text>
<text x="40" y="350.0">stratified_variant_16</text>
<rect x="250" y="336.0" width="655.8" height="14" fill="#2ca02c"/>
<text x="913.8" y="348.0">1.593s</text>
<text x="970" y="350.0" text-anchor="end">Mailbox__alpha_beta__rich_eval</text>
<text x="10" y="372.0">15</text>
<text x="40" y="372.0">stratified_variant_68</text>
<rect x="250" y="358.0" width="656.2" height="14" fill="#d62728"/>
<text x="914.2" y="370.0">1.594s</text>
<text x="970" y="372.0" text-anchor="end">10x12 Board__negamax__rich_eval</text>
<text x="10" y="394.0">16</text>
<text x="40" y="394.0">stratified_variant_74</text>
<rect x="250" y="380.0" width="663.2" height="14" fill="#2ca02c"/>
<text x="921.2" y="392.0">1.611s</text>
<text x="970" y="394.0" text-anchor="end">Mailbox__pruning_full__rich_eval</text>
<text x="10" y="416.0">17</text>
<text x="40" y="416.0">stratified_variant_75</text>
<rect x="250" y="402.0" width="663.7" height="14" fill="#2ca02c"/>
<text x="921.7" y="414.0">1.612s</text>
<text x="970" y="416.0" text-anchor="end">Mailbox__alpha_beta__rich_eval</text>
<text x="10" y="438.0">18</text>
<text x="40" y="438.0">stratified_variant_11</text>
<rect x="250" y="424.0" width="666.1" height="14" fill="#2ca02c"/>
<text x="924.1" y="436.0">1.618s</text>
<text x="970" y="438.0" text-anchor="end">Mailbox__minimax__rich_eval</text>
<text x="10" y="460.0">19</text>
<text x="40" y="460.0">stratified_variant_63</text>
<rect x="250" y="446.0" width="671.1" height="14" fill="#2ca02c"/>
<text x="929.1" y="458.0">1.630s</text>
<text x="970" y="460.0" text-anchor="end">Mailbox__negamax__rich_eval</text>
<text x="10" y="482.0">20</text>
<text x="40" y="482.0">stratified_variant_04</text>
<rect x="250" y="468.0" width="671.9" height="14" fill="#ff7f0e"/>
<text x="929.9" y="480.0">1.632s</text>
<text x="970" y="482.0" text-anchor="end">0x88__minimax__pst_eval</text>
<text x="10" y="504.0">21</text>
<text x="40" y="504.0">stratified_variant_22</text>
<rect x="250" y="490.0" width="675.2" height="14" fill="#2ca02c"/>
<text x="933.2" y="502.0">1.640s</text>
<text x="970" y="504.0" text-anchor="end">Mailbox__negamax__rich_eval</text>
<text x="10" y="526.0">22</text>
<text x="40" y="526.0">stratified_variant_05</text>
<rect x="250" y="512.0" width="676.8" height="14" fill="#d62728"/>
<text x="934.8" y="524.0">1.644s</text>
<text x="970" y="526.0" text-anchor="end">10x12 Board__negamax__rich_eval</text>
<text x="10" y="548.0">23</text>
<text x="40" y="548.0">stratified_variant_88</text>
<rect x="250" y="534.0" width="680.5" height="14" fill="#2ca02c"/>
<text x="938.5" y="546.0">1.653s</text>
<text x="970" y="548.0" text-anchor="end">Mailbox__minimax__rich_eval</text>
<text x="10" y="570.0">24</text>
<text x="40" y="570.0">stratified_variant_15</text>
<rect x="250" y="556.0" width="686.3" height="14" fill="#2ca02c"/>
<text x="944.3" y="568.0">1.667s</text>
<text x="970" y="570.0" text-anchor="end">Mailbox__pruning_full__rich_eval</text>
<text x="10" y="592.0">25</text>
<text x="40" y="592.0">stratified_variant_01</text>
<rect x="250" y="578.0" width="690.0" height="14" fill="#2ca02c"/>
<text x="948.0" y="590.0">1.676s</text>
<text x="970" y="592.0" text-anchor="end">Mailbox__minimax__structural_eval</text>
</svg>
