<svg xmlns="http://www.w3.org/2000/svg" width="980" height="560" viewBox="0 0 980 560">
<style>text{font-family:Menlo,Consolas,monospace;font-size:12px;fill:#222} .axis{stroke:#333;stroke-width:1} .grid{stroke:#ddd;stroke-width:1} .box{stroke:#333;stroke-width:1.2} .median{stroke:#111;stroke-width:2} .whisker{stroke:#333;stroke-width:1.2} .outlier{fill:#111}</style>
<rect x="0" y="0" width="980" height="560" fill="#fff"/>
<text x="490.0" y="22" text-anchor="middle">Perft Distribution by Board Family</text>
<line class="grid" x1="80" y1="450.0" x2="950" y2="450.0"/>
<text x="72" y="454.0" text-anchor="end">0.00</text>
<line class="grid" x1="80" y1="368.0" x2="950" y2="368.0"/>
<text x="72" y="372.0" text-anchor="end">7.53</text>
<line class="grid" x1="80" y1="286.0" x2="950" y2="286.0"/>
<text x="72" y="290.0" text-anchor="end">15.05</text>
<line class="grid" x1="80" y1="204.0" x2="950" y2="204.0"/>
<text x="72" y="208.0" text-anchor="end">22.57</text>
<line class="grid" x1="80" y1="122.0" x2="950" y2="122.0"/>
<text x="72" y="126.0" text-anchor="end">30.10</text>
<line class="grid" x1="80" y1="40.0" x2="950" y2="40.0"/>
<text x="72" y="44.0" text-anchor="end">37.62</text>
<rect class="box" x="138.8" y="421.4" width="100.0" height="11.1" fill="#4c78a8" fill-opacity="0.70"><title>0x88: median=1.873s q1=1.609s q3=2.623s n=23</title></rect>
<line class="median" x1="138.8" y1="429.6" x2="238.8" y2="429.6"/>
<line class="whisker" x1="188.8" y1="421.4" x2="188.8" y2="418.5"/>
<line class="whisker" x1="188.8" y1="432.5" x2="188.8" y2="434.1"/>
<line class="whisker" x1="160.8" y1="418.5" x2="216.8" y2="418.5"/>
<line class="whisker" x1="160.8" y1="434.1" x2="216.8" y2="434.1"/>
<circle class="outlier" cx="188.8" cy="40.0" r="3"/>
<text x="188.8" y="515" text-anchor="middle">0x88</text>
<text x="188.8" y="532" text-anchor="middle">n=23</text>
<rect class="box" x="356.2" y="428.1" width="100.0" height="3.2" fill="#f58518" fill-opacity="0.70"><title>10x12 Board: median=1.745s q1=1.714s q3=2.008s n=25</title></rect>
<line class="median" x1="356.2" y1="431.0" x2="456.2" y2="431.0"/>
<line class="whisker" x1="406.2" y1="428.1" x2="406.2" y2="424.0"/>
<line class="whisker" x1="406.2" y1="431.3" x2="406.2" y2="433.7"/>
<line class="whisker" x1="378.2" y1="424.0" x2="434.2" y2="424.0"/>
<line class="whisker" x1="378.2" y1="433.7" x2="434.2" y2="433.7"/>
<circle class="outlier" cx="406.2" cy="422.0" r="3"/>
<circle class="outlier" cx="406.2" cy="421.4" r="3"/>
<circle class="outlier" cx="406.2" cy="421.1" r="3"/>
<circle class="outlier" cx="406.2" cy="330.5" r="3"/>
<text x="406.2" y="515" text-anchor="middle">10x12 Board</text>
<text x="406.2" y="532" text-anchor="middle">n=25</text>
<rect class="box" x="573.8" y="407.2" width="100.0" height="7.2" fill="#54a24b" fill-opacity="0.70"><title>Bitboards: median=3.372s q1=3.271s q3=3.928s n=28</title></rect>
<line class="median" x1="573.8" y1="413.2" x2="673.8" y2="413.2"/>
<line class="whisker" x1="623.8" y1="407.2" x2="623.8" y2="405.6"/>
<line class="whisker" x1="623.8" y1="414.4" x2="623.8" y2="417.4"/>
<line class="whisker" x1="595.8" y1="405.6" x2="651.8" y2="405.6"/>
<line class="whisker" x1="595.8" y1="417.4" x2="651.8" y2="417.4"/>
<circle class="outlier" cx="623.8" cy="172.5" r="3"/>
<text x="623.8" y="515" text-anchor="middle">Bitboards</text>
<text x="623.8" y="532" text-anchor="middle">n=28</text>
<rect class="box" x="791.2" y="425.3" width="100.0" height="7.1" fill="#e45756" fill-opacity="0.70"><title>Mailbox: median=1.713s q1=1.617s q3=2.266s n=28</title></rect>
<line class="median" x1="791.2" y1="431.3" x2="891.2" y2="431.3"/>
<line class="whisker" x1="841.2" y1="425.3" x2="841.2" y2="420.5"/>
<line class="whisker" x1="841.2" y1="432.4" x2="841.2" y2="433.3"/>
<line class="whisker" x1="813.2" y1="420.5" x2="869.2" y2="420.5"/>
<line class="whisker" x1="813.2" y1="433.3" x2="869.2" y2="433.3"/>
<circle class="outlier" cx="841.2" cy="347.2" r="3"/>
<circle class="outlier" cx="841.2" cy="322.5" r="3"/>
<text x="841.2" y="515" text-anchor="middle">Mailbox</text>
<text x="841.2" y="532" text-anchor="middle">n=28</text>
<line class="axis" x1="80" y1="450" x2="950" y2="450"/>
<line class="axis" x1="80" y1="40" x2="80" y2="450"/>
<text x="18" y="280.0" text-anchor="middle" transform="rotate(-90 18 280.0)">Perft Time (s)</text>
</svg>
