<svg xmlns="http://www.w3.org/2000/svg" width="980" height="560" viewBox="0 0 980 560">
<style>text{font-family:Menlo,Consolas,monospace;font-size:12px;fill:#222} .axis{stroke:#333;stroke-width:1} .grid{stroke:#ddd;stroke-width:1} .box{stroke:#333;stroke-width:1.2} .median{stroke:#111;stroke-width:2} .whisker{stroke:#333;stroke-width:1.2} .outlier{fill:#111}</style>
<rect x="0" y="0" width="980" height="560" fill="#fff"/>
<text x="490.0" y="22" text-anchor="middle">Perft Distribution by Search Tier</text>
<line class="grid" x1="80" y1="450.0" x2="950" y2="450.0"/>
<text x="72" y="454.0" text-anchor="end">0.00</text>
<line class="grid" x1="80" y1="368.0" x2="950" y2="368.0"/>
<text x="72" y="372.0" text-anchor="end">7.53</text>
<line class="grid" x1="80" y1="286.0" x2="950" y2="286.0"/>
<text x="72" y="290.0" text-anchor="end">15.05</text>
<line class="grid" x1="80" y1="204.0" x2="950" y2="204.0"/>
<text x="72" y="208.0" text-anchor="end">22.57</text>
<line class="grid" x1="80" y1="122.0" x2="950" y2="122.0"/>
<text x="72" y="126.0" text-anchor="end">30.10</text>
<line class="grid" x1="80" y1="40.0" x2="950" y2="40.0"/>
<text x="72" y="44.0" text-anchor="end">37.62</text>
<rect class="box" x="127.0" y="408.5" width="80.0" height="24.1" fill="#4c78a8" fill-opacity="0.70"><title>alpha_beta: median=2.087s q1=1.598s q3=3.808s n=22</title></rect>
<line class="median" x1="127.0" y1="427.3" x2="207.0" y2="427.3"/>
<line class="whisker" x1="167.0" y1="408.5" x2="167.0" y2="405.6"/>
<line class="whisker" x1="167.0" y1="432.6" x2="167.0" y2="434.1"/>
<line class="whisker" x1="144.6" y1="405.6" x2="189.4" y2="405.6"/>
<line class="whisker" x1="144.6" y1="434.1" x2="189.4" y2="434.1"/>
<circle class="outlier" cx="167.0" cy="330.5" r="3"/>
<circle class="outlier" cx="167.0" cy="322.5" r="3"/>
<text x="167.0" y="515" text-anchor="middle">alpha_beta</text>
<text x="167.0" y="532" text-anchor="middle">n=22</text>
<rect class="box" x="301.0" y="415.2" width="80.0" height="16.3" fill="#f58518" fill-opacity="0.70"><title>minimax: median=1.874s q1=1.695s q3=3.190s n=31</title></rect>
<line class="median" x1="301.0" y1="429.6" x2="381.0" y2="429.6"/>
<line class="whisker" x1="341.0" y1="415.2" x2="341.0" y2="405.7"/>
<line class="whisker" x1="341.0" y1="431.5" x2="341.0" y2="433.2"/>
<line class="whisker" x1="318.6" y1="405.7" x2="363.4" y2="405.7"/>
<line class="whisker" x1="318.6" y1="433.2" x2="363.4" y2="433.2"/>
<circle class="outlier" cx="341.0" cy="347.2" r="3"/>
<circle class="outlier" cx="341.0" cy="172.5" r="3"/>
<circle class="outlier" cx="341.0" cy="40.0" r="3"/>
<text x="341.0" y="515" text-anchor="middle">minimax</text>
<text x="341.0" y="532" text-anchor="middle">n=31</text>
<rect class="box" x="475.0" y="418.8" width="80.0" height="12.6" fill="#54a24b" fill-opacity="0.70"><title>negamax: median=1.760s q1=1.709s q3=2.863s n=21</title></rect>
<line class="median" x1="475.0" y1="430.8" x2="555.0" y2="430.8"/>
<line class="whisker" x1="515.0" y1="418.8" x2="515.0" y2="406.3"/>
<line class="whisker" x1="515.0" y1="431.4" x2="515.0" y2="433.7"/>
<line class="whisker" x1="492.6" y1="406.3" x2="537.4" y2="406.3"/>
<line class="whisker" x1="492.6" y1="433.7" x2="537.4" y2="433.7"/>
<text x="515.0" y="515" text-anchor="middle">negamax</text>
<text x="515.0" y="532" text-anchor="middle">n=21</text>
<rect class="box" x="649.0" y="417.3" width="80.0" height="14.0" fill="#e45756" fill-opacity="0.70"><title>pruning_full: median=2.395s q1=1.716s q3=3.004s n=25</title></rect>
<line class="median" x1="649.0" y1="423.9" x2="729.0" y2="423.9"/>
<line class="whisker" x1="689.0" y1="417.3" x2="689.0" y2="412.7"/>
<line class="whisker" x1="689.0" y1="431.3" x2="689.0" y2="432.9"/>
<line class="whisker" x1="666.6" y1="412.7" x2="711.4" y2="412.7"/>
<line class="whisker" x1="666.6" y1="432.9" x2="711.4" y2="432.9"/>
<text x="689.0" y="515" text-anchor="middle">pruning_full</text>
<text x="689.0" y="532" text-anchor="middle">n=25</text>
<rect class="box" x="823.0" y="414.2" width="80.0" height="16.8" fill="#72b7b2" fill-opacity="0.70"><title>pvs_id: median=1.998s q1=1.745s q3=3.285s n=5</title></rect>
<line class="median" x1="823.0" y1="428.2" x2="903.0" y2="428.2"/>
<line class="whisker" x1="863.0" y1="414.2" x2="863.0" y2="413.3"/>
<line class="whisker" x1="863.0" y1="431.0" x2="863.0" y2="431.3"/>
<line class="whisker" x1="840.6" y1="413.3" x2="885.4" y2="413.3"/>
<line class="whisker" x1="840.6" y1="431.3" x2="885.4" y2="431.3"/>
<text x="863.0" y="515" text-anchor="middle">pvs_id</text>
<text x="863.0" y="532" text-anchor="middle">n=5</text>
<line class="axis" x1="80" y1="450" x2="950" y2="450"/>
<line class="axis" x1="80" y1="40" x2="80" y2="450"/>
<text x="18" y="280.0" text-anchor="middle" transform="rotate(-90 18 280.0)">Perft Time (s)</text>
</svg>
