<svg xmlns="http://www.w3.org/2000/svg" width="980" height="560" viewBox="0 0 980 560">
<style>text{font-family:Menlo,Consolas,monospace;font-size:12px;fill:#222} .axis{stroke:#333;stroke-width:1} .grid{stroke:#ddd;stroke-width:1} .box{stroke:#333;stroke-width:1.2} .median{stroke:#111;stroke-width:2} .whisker{stroke:#333;stroke-width:1.2} .outlier{fill:#111}</style>
<rect x="0" y="0" width="980" height="560" fill="#fff"/>
<text x="490.0" y="22" text-anchor="middle">Perft Distribution by Eval Tier</text>
<line class="grid" x1="80" y1="450.0" x2="950" y2="450.0"/>
<text x="72" y="454.0" text-anchor="end">0.00</text>
<line class="grid" x1="80" y1="368.0" x2="950" y2="368.0"/>
<text x="72" y="372.0" text-anchor="end">7.53</text>
<line class="grid" x1="80" y1="286.0" x2="950" y2="286.0"/>
<text x="72" y="290.0" text-anchor="end">15.05</text>
<line class="grid" x1="80" y1="204.0" x2="950" y2="204.0"/>
<text x="72" y="208.0" text-anchor="end">22.57</text>
<line class="grid" x1="80" y1="122.0" x2="950" y2="122.0"/>
<text x="72" y="126.0" text-anchor="end">30.10</text>
<line class="grid" x1="80" y1="40.0" x2="950" y2="40.0"/>
<text x="72" y="44.0" text-anchor="end">37.62</text>
<rect class="box" x="138.8" y="416.6" width="100.0" height="8.8" fill="#4c78a8" fill-opacity="0.70"><title>material_eval: median=2.659s q1=2.253s q3=3.064s n=2</title></rect>
<line class="median" x1="138.8" y1="421.0" x2="238.8" y2="421.0"/>
<line class="whisker" x1="188.8" y1="416.6" x2="188.8" y2="412.2"/>
<line class="whisker" x1="188.8" y1="425.5" x2="188.8" y2="429.9"/>
<line class="whisker" x1="160.8" y1="412.2" x2="216.8" y2="412.2"/>
<line class="whisker" x1="160.8" y1="429.9" x2="216.8" y2="429.9"/>
<text x="188.8" y="515" text-anchor="middle">material_eval</text>
<text x="188.8" y="532" text-anchor="middle">n=2</text>
<rect class="box" x="356.2" y="431.1" width="100.0" height="1.5" fill="#f58518" fill-opacity="0.70"><title>pst_eval: median=1.679s q1=1.613s q3=1.731s n=4</title></rect>
<line class="median" x1="356.2" y1="431.7" x2="456.2" y2="431.7"/>
<line class="whisker" x1="406.2" y1="431.1" x2="406.2" y2="431.0"/>
<line class="whisker" x1="406.2" y1="432.4" x2="406.2" y2="433.0"/>
<line class="whisker" x1="378.2" y1="431.0" x2="434.2" y2="431.0"/>
<line class="whisker" x1="378.2" y1="433.0" x2="434.2" y2="433.0"/>
<text x="406.2" y="515" text-anchor="middle">pst_eval</text>
<text x="406.2" y="532" text-anchor="middle">n=4</text>
<rect class="box" x="573.8" y="414.7" width="100.0" height="16.6" fill="#54a24b" fill-opacity="0.70"><title>rich_eval: median=2.008s q1=1.713s q3=3.239s n=87</title></rect>
<line class="median" x1="573.8" y1="428.1" x2="673.8" y2="428.1"/>
<line class="whisker" x1="623.8" y1="414.7" x2="623.8" y2="405.6"/>
<line class="whisker" x1="623.8" y1="431.3" x2="623.8" y2="434.1"/>
<line class="whisker" x1="595.8" y1="405.6" x2="651.8" y2="405.6"/>
<line class="whisker" x1="595.8" y1="434.1" x2="651.8" y2="434.1"/>
<circle class="outlier" cx="623.8" cy="347.2" r="3"/>
<circle class="outlier" cx="623.8" cy="330.5" r="3"/>
<circle class="outlier" cx="623.8" cy="322.5" r="3"/>
<circle class="outlier" cx="623.8" cy="40.0" r="3"/>
<text x="623.8" y="515" text-anchor="middle">rich_eval</text>
<text x="623.8" y="532" text-anchor="middle">n=87</text>
<rect class="box" x="791.2" y="414.6" width="100.0" height="16.6" fill="#e45756" fill-opacity="0.70"><title>structural_eval: median=2.343s q1=1.717s q3=3.244s n=11</title></rect>
<line class="median" x1="791.2" y1="424.5" x2="891.2" y2="424.5"/>
<line class="whisker" x1="841.2" y1="414.6" x2="841.2" y2="406.0"/>
<line class="whisker" x1="841.2" y1="431.3" x2="841.2" y2="432.8"/>
<line class="whisker" x1="813.2" y1="406.0" x2="869.2" y2="406.0"/>
<line class="whisker" x1="813.2" y1="432.8" x2="869.2" y2="432.8"/>
<circle class="outlier" cx="841.2" cy="172.5" r="3"/>
<text x="841.2" y="515" text-anchor="middle">structural_eval</text>
<text x="841.2" y="532" text-anchor="middle">n=11</text>
<line class="axis" x1="80" y1="450" x2="950" y2="450"/>
<line class="axis" x1="80" y1="40" x2="80" y2="450"/>
<text x="18" y="280.0" text-anchor="middle" transform="rotate(-90 18 280.0)">Perft Time (s)</text>
</svg>
