<svg xmlns="http://www.w3.org/2000/svg" width="920" height="520" viewBox="0 0 920 520">
<style>text{font-family:Menlo,Consolas,monospace;font-size:12px;fill:#222} .axis{stroke:#333;stroke-width:1} .grid{stroke:#ddd;stroke-width:1} .label{font-size:11px}</style>
<rect x="0" y="0" width="920" height="520" fill="#f7fbff"/>
<text x="460.0" y="22" text-anchor="middle">Mean Perft Time by Search Tier</text>
<line class="grid" x1="70" y1="410.0" x2="890" y2="410.0"/>
<text class="label" x="62" y="414.0" text-anchor="end">0.00</text>
<line class="grid" x1="70" y1="336.0" x2="890" y2="336.0"/>
<text class="label" x="62" y="340.0" text-anchor="end">0.87</text>
<line class="grid" x1="70" y1="262.0" x2="890" y2="262.0"/>
<text class="label" x="62" y="266.0" text-anchor="end">1.74</text>
<line class="grid" x1="70" y1="188.0" x2="890" y2="188.0"/>
<text class="label" x="62" y="192.0" text-anchor="end">2.61</text>
<line class="grid" x1="70" y1="114.0" x2="890" y2="114.0"/>
<text class="label" x="62" y="118.0" text-anchor="end">3.49</text>
<line class="grid" x1="70" y1="40.0" x2="890" y2="40.0"/>
<text class="label" x="62" y="44.0" text-anchor="end">4.36</text>
<rect x="101.2" y="138.6" width="101.7" height="271.4" fill="#4c78a8"><title>alpha_beta: mean=3.196s n=22</title></rect>
<text class="label" x="152.0" y="130.6" text-anchor="middle">3.20</text>
<text class="label" x="152.0" y="475" text-anchor="middle">alpha_beta</text>
<text class="label" x="152.0" y="490" text-anchor="middle">n=22</text>
<rect x="265.2" y="40.0" width="101.7" height="370.0" fill="#f58518"><title>minimax: mean=4.357s n=31</title></rect>
<text class="label" x="316.0" y="32.0" text-anchor="middle">4.36</text>
<text class="label" x="316.0" y="475" text-anchor="middle">minimax</text>
<text class="label" x="316.0" y="490" text-anchor="middle">n=31</text>
<rect x="429.2" y="213.2" width="101.7" height="196.8" fill="#54a24b"><title>negamax: mean=2.318s n=21</title></rect>
<text class="label" x="480.0" y="205.2" text-anchor="middle">2.32</text>
<text class="label" x="480.0" y="475" text-anchor="middle">negamax</text>
<text class="label" x="480.0" y="490" text-anchor="middle">n=21</text>
<rect x="593.2" y="204.6" width="101.7" height="205.4" fill="#e45756"><title>pruning_full: mean=2.419s n=25</title></rect>
<text class="label" x="644.0" y="196.6" text-anchor="middle">2.42</text>
<text class="label" x="644.0" y="475" text-anchor="middle">pruning_full</text>
<text class="label" x="644.0" y="490" text-anchor="middle">n=25</text>
<rect x="757.2" y="204.4" width="101.7" height="205.6" fill="#72b7b2"><title>pvs_id: mean=2.422s n=5</title></rect>
<text class="label" x="808.0" y="196.4" text-anchor="middle">2.42</text>
<text class="label" x="808.0" y="475" text-anchor="middle">pvs_id</text>
<text class="label" x="808.0" y="490" text-anchor="middle">n=5</text>
<line class="axis" x1="70" y1="410" x2="890" y2="410"/>
<line class="axis" x1="70" y1="40" x2="70" y2="410"/>
</svg>
