<svg xmlns="http://www.w3.org/2000/svg" width="1800" height="480" viewBox="0 0 1800 480">
<rect width="100%" height="100%" fill="white"/>
<line x1="150" y1="210" x2="1720" y2="210" stroke="#333" stroke-width="3"/>
<line x1="150.00" y1="210" x2="150.00" y2="224" stroke="#333" stroke-width="2"/>
<text x="150.00" y="258" text-anchor="middle" font-family="Helvetica,Arial,sans-serif" font-size="28">136</text>
<line x1="346.80" y1="210" x2="346.80" y2="224" stroke="#333" stroke-width="2"/>
<text x="346.80" y="258" text-anchor="middle" font-family="Helvetica,Arial,sans-serif" font-size="28">450</text>
<line x1="628.83" y1="210" x2="628.83" y2="224" stroke="#333" stroke-width="2"/>
<text x="628.83" y="258" text-anchor="middle" font-family="Helvetica,Arial,sans-serif" font-size="28">900</text>
<line x1="910.87" y1="210" x2="910.87" y2="224" stroke="#333" stroke-width="2"/>
<text x="910.87" y="258" text-anchor="middle" font-family="Helvetica,Arial,sans-serif" font-size="28">1350</text>
<line x1="1192.91" y1="210" x2="1192.91" y2="224" stroke="#333" stroke-width="2"/>
<text x="1192.91" y="258" text-anchor="middle" font-family="Helvetica,Arial,sans-serif" font-size="28">1800</text>
<line x1="1474.94" y1="210" x2="1474.94" y2="224" stroke="#333" stroke-width="2"/>
<text x="1474.94" y="258" text-anchor="middle" font-family="Helvetica,Arial,sans-serif" font-size="28">2250</text>
<line x1="1720.00" y1="210" x2="1720.00" y2="224" stroke="#333" stroke-width="2"/>
<text x="1720.00" y="258" text-anchor="middle" font-family="Helvetica,Arial,sans-serif" font-size="28">2641</text>
<line x1="150.00" y1="186" x2="874.21" y2="186" stroke="#3f6b35" stroke-width="4"/>
<line x1="275.66" y1="186" x2="1720.00" y2="186" stroke="#3f6b35" stroke-width="4"/>
<line x1="150.00" y1="168" x2="150.00" y2="204" stroke="#3f6b35" stroke-width="4"/>
<line x1="1720.00" y1="168" x2="1720.00" y2="204" stroke="#3f6b35" stroke-width="4"/>
<rect x="874.21" y="150" width="1.00" height="56" fill="#e6f3df" stroke="#3f6b35" stroke-width="4"/>
<line x1="663.93" y1="150" x2="663.93" y2="206" stroke="#9d2d2d" stroke-width="5"/>
<text x="900" y="360" text-anchor="middle" font-family="Helvetica,Arial,sans-serif" font-size="30">Heuristic span non-empty LOC per compile-time feature</text>
</svg>
