<svg xmlns="http://www.w3.org/2000/svg" width="1800" height="480" viewBox="0 0 1800 480">
<rect width="100%" height="100%" fill="white"/>
<line x1="150" y1="210" x2="1720" y2="210" stroke="#333" stroke-width="3"/>
<line x1="150.00" y1="210" x2="150.00" y2="224" stroke="#333" stroke-width="2"/>
<text x="150.00" y="258" text-anchor="middle" font-family="Helvetica,Arial,sans-serif" font-size="28">1</text>
<line x1="456.30" y1="210" x2="456.30" y2="224" stroke="#333" stroke-width="2"/>
<text x="456.30" y="258" text-anchor="middle" font-family="Helvetica,Arial,sans-serif" font-size="28">3</text>
<line x1="791.97" y1="210" x2="791.97" y2="224" stroke="#333" stroke-width="2"/>
<text x="791.97" y="258" text-anchor="middle" font-family="Helvetica,Arial,sans-serif" font-size="28">10</text>
<line x1="1098.26" y1="210" x2="1098.26" y2="224" stroke="#333" stroke-width="2"/>
<text x="1098.26" y="258" text-anchor="middle" font-family="Helvetica,Arial,sans-serif" font-size="28">30</text>
<line x1="1433.94" y1="210" x2="1433.94" y2="224" stroke="#333" stroke-width="2"/>
<text x="1433.94" y="258" text-anchor="middle" font-family="Helvetica,Arial,sans-serif" font-size="28">100</text>
<line x1="1720.00" y1="210" x2="1720.00" y2="224" stroke="#333" stroke-width="2"/>
<text x="1720.00" y="258" text-anchor="middle" font-family="Helvetica,Arial,sans-serif" font-size="28">279</text>
<line x1="150.00" y1="186" x2="432.04" y2="186" stroke="#2b4c7e" stroke-width="4"/>
<line x1="1002.12" y1="186" x2="1211.31" y2="186" stroke="#2b4c7e" stroke-width="4"/>
<line x1="150.00" y1="168" x2="150.00" y2="204" stroke="#2b4c7e" stroke-width="4"/>
<line x1="1211.31" y1="168" x2="1211.31" y2="204" stroke="#2b4c7e" stroke-width="4"/>
<rect x="432.04" y="150" width="570.08" height="56" fill="#d6e6f2" stroke="#2b4c7e" stroke-width="4"/>
<line x1="762.59" y1="150" x2="762.59" y2="206" stroke="#a61c3c" stroke-width="5"/>
<text x="900" y="360" text-anchor="middle" font-family="Helvetica,Arial,sans-serif" font-size="30">Guarded non-empty LOC per compile-time feature (log scale)</text>
<circle cx="1391.89" cy="186" r="8" fill="#2b4c7e"/>
<circle cx="1428.30" cy="186" r="8" fill="#2b4c7e"/>
<circle cx="1455.39" cy="186" r="8" fill="#2b4c7e"/>
<circle cx="1484.77" cy="186" r="8" fill="#2b4c7e"/>
<circle cx="1669.77" cy="186" r="8" fill="#2b4c7e"/>
<circle cx="1680.33" cy="186" r="8" fill="#2b4c7e"/>
<circle cx="1720.00" cy="186" r="8" fill="#2b4c7e"/>
</svg>