<?xml version="1.0" encoding="UTF-8"?>
<svg xmlns="http://www.w3.org/2000/svg" viewBox="0 0 1778 1610" width="1778" height="1610">
<style>text { dominant-baseline: alphabetic; }</style>
<rect width="100%" height="100%" fill="#fafbfc"/>
<text x="20" y="28" font-family="Helvetica, Arial, sans-serif" font-size="14" font-weight="bold" fill="#111">Chess Engine Product Line — Feature Model (left-to-right)</text>
<polygon points="382.0,127.0 424.0,73.0 424.0,181.0" fill="#ffffff" fill-opacity="0.35" stroke="#1f4e79" stroke-width="1.0"/><polygon points="382.0,415.0 424.0,289.0 424.0,541.0" fill="#ffffff" fill-opacity="0.35" stroke="#1f4e79" stroke-width="1.0"/><polygon points="584.0,289.0 626.0,253.0 626.0,325.0" fill="#1f4e79" fill-opacity="0.35" stroke="#1f4e79" stroke-width="1.0"/><polygon points="584.0,415.0 626.0,361.0 626.0,469.0" fill="#1f4e79" fill-opacity="0.35" stroke="#1f4e79" stroke-width="1.0"/><polygon points="976.0,415.0 1018.0,379.0 1018.0,451.0" fill="#1f4e79" fill-opacity="0.35" stroke="#1f4e79" stroke-width="1.0"/><polygon points="382.0,649.0 424.0,577.0 424.0,721.0" fill="#1f4e79" fill-opacity="0.35" stroke="#1f4e79" stroke-width="1.0"/><polygon points="382.0,847.0 424.0,829.0 424.0,865.0" fill="#1f4e79" fill-opacity="0.35" stroke="#1f4e79" stroke-width="1.0"/><polygon points="382.0,973.0 424.0,901.0 424.0,1045.0" fill="#1f4e79" fill-opacity="0.35" stroke="#1f4e79" stroke-width="1.0"/><polygon points="382.0,1189.0 424.0,1081.0 424.0,1297.0" fill="#1f4e79" fill-opacity="0.35" stroke="#1f4e79" stroke-width="1.0"/><polygon points="976.0,1189.0 1018.0,1153.0 1018.0,1225.0" fill="#1f4e79" fill-opacity="0.35" stroke="#1f4e79" stroke-width="1.0"/><polygon points="584.0,1405.0 626.0,1369.0 626.0,1441.0" fill="#1f4e79" fill-opacity="0.35" stroke="#1f4e79" stroke-width="1.0"/>
<path d="M 180.0,802.0 L 201.0,802.0 L 201.0,127.0 L 222.0,127.0" fill="none" stroke="#6b7a8f" stroke-width="1.1"/>
<circle cx="216.5" cy="127.0" r="4.5" fill="#ffffff" stroke="#1f4e79" stroke-width="1.1"/><path d="M 382.0,127.0 L 403.0,127.0 L 403.0,73.0 L 424.0,73.0" fill="none" stroke="#6b7a8f" stroke-width="1.1"/><path d="M 382.0,127.0 L 498.0,127.0 L 498.0,73.0 L 614.0,73.0" fill="none" stroke="#6b7a8f" stroke-width="1.1"/><path d="M 382.0,127.0 L 403.0,127.0 L 403.0,109.0 L 424.0,109.0" fill="none" stroke="#6b7a8f" stroke-width="1.1"/><path d="M 382.0,127.0 L 498.0,127.0 L 498.0,109.0 L 614.0,109.0" fill="none" stroke="#6b7a8f" stroke-width="1.1"/><path d="M 382.0,127.0 L 403.0,127.0 L 403.0,145.0 L 424.0,145.0" fill="none" stroke="#6b7a8f" stroke-width="1.1"/><path d="M 382.0,127.0 L 498.0,127.0 L 498.0,145.0 L 614.0,145.0" fill="none" stroke="#6b7a8f" stroke-width="1.1"/><path d="M 382.0,127.0 L 403.0,127.0 L 403.0,181.0 L 424.0,181.0" fill="none" stroke="#6b7a8f" stroke-width="1.1"/><path d="M 382.0,127.0 L 498.0,127.0 L 498.0,181.0 L 614.0,181.0" fill="none" stroke="#6b7a8f" stroke-width="1.1"/><path d="M 180.0,802.0 L 201.0,802.0 L 201.0,217.0 L 222.0,217.0" fill="none" stroke="#6b7a8f" stroke-width="1.1"/>
<circle cx="216.5" cy="217.0" r="4.5" fill="#ffffff" stroke="#1f4e79" stroke-width="1.1"/><path d="M 180.0,802.0 L 201.0,802.0 L 201.0,415.0 L 222.0,415.0" fill="none" stroke="#6b7a8f" stroke-width="1.1"/>
<circle cx="216.5" cy="415.0" r="4.5" fill="#ffffff" stroke="#1f4e79" stroke-width="1.1"/><path d="M 382.0,415.0 L 403.0,415.0 L 403.0,289.0 L 424.0,289.0" fill="none" stroke="#6b7a8f" stroke-width="1.1"/><path d="M 584.0,289.0 L 605.0,289.0 L 605.0,253.0 L 626.0,253.0" fill="none" stroke="#6b7a8f" stroke-width="1.1"/><path d="M 584.0,289.0 L 605.0,289.0 L 605.0,289.0 L 626.0,289.0" fill="none" stroke="#6b7a8f" stroke-width="1.1"/><path d="M 584.0,289.0 L 605.0,289.0 L 605.0,325.0 L 626.0,325.0" fill="none" stroke="#6b7a8f" stroke-width="1.1"/><path d="M 382.0,415.0 L 649.5,415.0 L 649.5,289.0 L 917.0,289.0" fill="none" stroke="#6b7a8f" stroke-width="1.1"/><path d="M 382.0,415.0 L 403.0,415.0 L 403.0,415.0 L 424.0,415.0" fill="none" stroke="#6b7a8f" stroke-width="1.1"/><path d="M 584.0,415.0 L 605.0,415.0 L 605.0,361.0 L 626.0,361.0" fill="none" stroke="#6b7a8f" stroke-width="1.1"/><path d="M 584.0,415.0 L 605.0,415.0 L 605.0,397.0 L 626.0,397.0" fill="none" stroke="#6b7a8f" stroke-width="1.1"/><path d="M 584.0,415.0 L 605.0,415.0 L 605.0,433.0 L 626.0,433.0" fill="none" stroke="#6b7a8f" stroke-width="1.1"/><path d="M 584.0,415.0 L 605.0,415.0 L 605.0,469.0 L 626.0,469.0" fill="none" stroke="#6b7a8f" stroke-width="1.1"/><path d="M 382.0,415.0 L 599.0,415.0 L 599.0,415.0 L 816.0,415.0" fill="none" stroke="#6b7a8f" stroke-width="1.1"/><path d="M 976.0,415.0 L 997.0,415.0 L 997.0,379.0 L 1018.0,379.0" fill="none" stroke="#6b7a8f" stroke-width="1.1"/><path d="M 976.0,415.0 L 997.0,415.0 L 997.0,415.0 L 1018.0,415.0" fill="none" stroke="#6b7a8f" stroke-width="1.1"/><path d="M 976.0,415.0 L 997.0,415.0 L 997.0,451.0 L 1018.0,451.0" fill="none" stroke="#6b7a8f" stroke-width="1.1"/><path d="M 382.0,415.0 L 453.5,415.0 L 453.5,505.0 L 525.0,505.0" fill="none" stroke="#6b7a8f" stroke-width="1.1"/><path d="M 382.0,415.0 L 649.5,415.0 L 649.5,505.0 L 917.0,505.0" fill="none" stroke="#6b7a8f" stroke-width="1.1"/><path d="M 382.0,415.0 L 453.5,415.0 L 453.5,541.0 L 525.0,541.0" fill="none" stroke="#6b7a8f" stroke-width="1.1"/><path d="M 180.0,802.0 L 201.0,802.0 L 201.0,649.0 L 222.0,649.0" fill="none" stroke="#6b7a8f" stroke-width="1.1"/>
<circle cx="216.5" cy="649.0" r="4.5" fill="#ffffff" stroke="#1f4e79" stroke-width="1.1"/><path d="M 382.0,649.0 L 403.0,649.0 L 403.0,577.0 L 424.0,577.0" fill="none" stroke="#6b7a8f" stroke-width="1.1"/><path d="M 382.0,649.0 L 403.0,649.0 L 403.0,613.0 L 424.0,613.0" fill="none" stroke="#6b7a8f" stroke-width="1.1"/><path d="M 382.0,649.0 L 403.0,649.0 L 403.0,649.0 L 424.0,649.0" fill="none" stroke="#6b7a8f" stroke-width="1.1"/><path d="M 382.0,649.0 L 403.0,649.0 L 403.0,685.0 L 424.0,685.0" fill="none" stroke="#6b7a8f" stroke-width="1.1"/><path d="M 382.0,649.0 L 403.0,649.0 L 403.0,721.0 L 424.0,721.0" fill="none" stroke="#6b7a8f" stroke-width="1.1"/><path d="M 180.0,802.0 L 201.0,802.0 L 201.0,757.0 L 222.0,757.0" fill="none" stroke="#6b7a8f" stroke-width="1.1"/>
<circle cx="216.5" cy="757.0" r="4.5" fill="#ffffff" stroke="#1f4e79" stroke-width="1.1"/><path d="M 382.0,757.0 L 403.0,757.0 L 403.0,757.0 L 424.0,757.0" fill="none" stroke="#6b7a8f" stroke-width="1.1"/>
<circle cx="418.5" cy="757.0" r="4.5" fill="#1f4e79" stroke="#1f4e79" stroke-width="1.1"/><path d="M 180.0,802.0 L 201.0,802.0 L 201.0,793.0 L 222.0,793.0" fill="none" stroke="#6b7a8f" stroke-width="1.1"/>
<circle cx="216.5" cy="793.0" r="4.5" fill="#ffffff" stroke="#1f4e79" stroke-width="1.1"/><path d="M 180.0,802.0 L 201.0,802.0 L 201.0,847.0 L 222.0,847.0" fill="none" stroke="#6b7a8f" stroke-width="1.1"/>
<circle cx="216.5" cy="847.0" r="4.5" fill="#ffffff" stroke="#1f4e79" stroke-width="1.1"/><path d="M 382.0,847.0 L 403.0,847.0 L 403.0,829.0 L 424.0,829.0" fill="none" stroke="#6b7a8f" stroke-width="1.1"/><path d="M 382.0,847.0 L 403.0,847.0 L 403.0,865.0 L 424.0,865.0" fill="none" stroke="#6b7a8f" stroke-width="1.1"/><path d="M 180.0,802.0 L 201.0,802.0 L 201.0,973.0 L 222.0,973.0" fill="none" stroke="#6b7a8f" stroke-width="1.1"/>
<circle cx="216.5" cy="973.0" r="4.5" fill="#ffffff" stroke="#1f4e79" stroke-width="1.1"/><path d="M 382.0,973.0 L 403.0,973.0 L 403.0,901.0 L 424.0,901.0" fill="none" stroke="#6b7a8f" stroke-width="1.1"/><path d="M 382.0,973.0 L 403.0,973.0 L 403.0,937.0 L 424.0,937.0" fill="none" stroke="#6b7a8f" stroke-width="1.1"/><path d="M 382.0,973.0 L 403.0,973.0 L 403.0,973.0 L 424.0,973.0" fill="none" stroke="#6b7a8f" stroke-width="1.1"/><path d="M 382.0,973.0 L 403.0,973.0 L 403.0,1009.0 L 424.0,1009.0" fill="none" stroke="#6b7a8f" stroke-width="1.1"/><path d="M 382.0,973.0 L 403.0,973.0 L 403.0,1045.0 L 424.0,1045.0" fill="none" stroke="#6b7a8f" stroke-width="1.1"/><path d="M 180.0,802.0 L 201.0,802.0 L 201.0,1189.0 L 222.0,1189.0" fill="none" stroke="#6b7a8f" stroke-width="1.1"/>
<circle cx="216.5" cy="1189.0" r="4.5" fill="#ffffff" stroke="#1f4e79" stroke-width="1.1"/><path d="M 382.0,1189.0 L 403.0,1189.0 L 403.0,1081.0 L 424.0,1081.0" fill="none" stroke="#6b7a8f" stroke-width="1.1"/><path d="M 382.0,1189.0 L 599.0,1189.0 L 599.0,1081.0 L 816.0,1081.0" fill="none" stroke="#6b7a8f" stroke-width="1.1"/><path d="M 382.0,1189.0 L 403.0,1189.0 L 403.0,1117.0 L 424.0,1117.0" fill="none" stroke="#6b7a8f" stroke-width="1.1"/><path d="M 382.0,1189.0 L 599.0,1189.0 L 599.0,1117.0 L 816.0,1117.0" fill="none" stroke="#6b7a8f" stroke-width="1.1"/><path d="M 382.0,1189.0 L 403.0,1189.0 L 403.0,1189.0 L 424.0,1189.0" fill="none" stroke="#6b7a8f" stroke-width="1.1"/><path d="M 382.0,1189.0 L 498.0,1189.0 L 498.0,1189.0 L 614.0,1189.0" fill="none" stroke="#6b7a8f" stroke-width="1.1"/><path d="M 774.0,1189.0 L 795.0,1189.0 L 795.0,1189.0 L 816.0,1189.0" fill="none" stroke="#6b7a8f" stroke-width="1.1"/>
<circle cx="810.5" cy="1189.0" r="4.5" fill="#ffffff" stroke="#1f4e79" stroke-width="1.1"/><path d="M 976.0,1189.0 L 997.0,1189.0 L 997.0,1153.0 L 1018.0,1153.0" fill="none" stroke="#6b7a8f" stroke-width="1.1"/><path d="M 976.0,1189.0 L 997.0,1189.0 L 997.0,1189.0 L 1018.0,1189.0" fill="none" stroke="#6b7a8f" stroke-width="1.1"/><path d="M 976.0,1189.0 L 997.0,1189.0 L 997.0,1225.0 L 1018.0,1225.0" fill="none" stroke="#6b7a8f" stroke-width="1.1"/><path d="M 382.0,1189.0 L 403.0,1189.0 L 403.0,1261.0 L 424.0,1261.0" fill="none" stroke="#6b7a8f" stroke-width="1.1"/><path d="M 382.0,1189.0 L 599.0,1189.0 L 599.0,1261.0 L 816.0,1261.0" fill="none" stroke="#6b7a8f" stroke-width="1.1"/><path d="M 382.0,1189.0 L 403.0,1189.0 L 403.0,1297.0 L 424.0,1297.0" fill="none" stroke="#6b7a8f" stroke-width="1.1"/><path d="M 382.0,1189.0 L 599.0,1189.0 L 599.0,1297.0 L 816.0,1297.0" fill="none" stroke="#6b7a8f" stroke-width="1.1"/><path d="M 180.0,802.0 L 201.0,802.0 L 201.0,1333.0 L 222.0,1333.0" fill="none" stroke="#6b7a8f" stroke-width="1.1"/>
<circle cx="216.5" cy="1333.0" r="4.5" fill="#ffffff" stroke="#1f4e79" stroke-width="1.1"/><path d="M 382.0,1333.0 L 403.0,1333.0 L 403.0,1333.0 L 424.0,1333.0" fill="none" stroke="#6b7a8f" stroke-width="1.1"/>
<circle cx="418.5" cy="1333.0" r="4.5" fill="#1f4e79" stroke="#1f4e79" stroke-width="1.1"/><path d="M 180.0,802.0 L 201.0,802.0 L 201.0,1405.0 L 222.0,1405.0" fill="none" stroke="#6b7a8f" stroke-width="1.1"/>
<circle cx="216.5" cy="1405.0" r="4.5" fill="#ffffff" stroke="#1f4e79" stroke-width="1.1"/><path d="M 382.0,1405.0 L 403.0,1405.0 L 403.0,1405.0 L 424.0,1405.0" fill="none" stroke="#6b7a8f" stroke-width="1.1"/>
<circle cx="418.5" cy="1405.0" r="4.5" fill="#1f4e79" stroke="#1f4e79" stroke-width="1.1"/><path d="M 584.0,1405.0 L 605.0,1405.0 L 605.0,1369.0 L 626.0,1369.0" fill="none" stroke="#6b7a8f" stroke-width="1.1"/><path d="M 584.0,1405.0 L 605.0,1405.0 L 605.0,1405.0 L 626.0,1405.0" fill="none" stroke="#6b7a8f" stroke-width="1.1"/><path d="M 584.0,1405.0 L 605.0,1405.0 L 605.0,1441.0 L 626.0,1441.0" fill="none" stroke="#6b7a8f" stroke-width="1.1"/><path d="M 180.0,802.0 L 201.0,802.0 L 201.0,1477.0 L 222.0,1477.0" fill="none" stroke="#6b7a8f" stroke-width="1.1"/>
<circle cx="216.5" cy="1477.0" r="4.5" fill="#ffffff" stroke="#1f4e79" stroke-width="1.1"/>
<rect x="20.0" y="789.0" width="160" height="26" rx="5" ry="5" fill="#e8f1fb" stroke="#1f4e79" stroke-width="1.2"/>
<text x="100.0" y="806.0" font-family="Helvetica, Arial, sans-serif" font-size="11" text-anchor="middle" fill="#111">ChessEngineProductLine</text><rect x="222.0" y="114.0" width="160" height="26" rx="5" ry="5" fill="#e8f1fb" stroke="#1f4e79" stroke-width="1.2"/>
<text x="302.0" y="131.0" font-family="Helvetica, Arial, sans-serif" font-size="11" text-anchor="middle" fill="#111">BoardRepresentation</text><rect x="424.0" y="60.0" width="160" height="26" rx="5" ry="5" fill="#ffffff" stroke="#1f4e79" stroke-width="1.2"/>
<text x="504.0" y="77.0" font-family="Helvetica, Arial, sans-serif" font-size="11" text-anchor="middle" fill="#111">0x88</text><rect x="614.0" y="60.0" width="160" height="26" rx="5" ry="5" fill="#ffffff" stroke="#1f4e79" stroke-width="1.2"/>
<text x="694.0" y="77.0" font-family="Helvetica, Arial, sans-serif" font-size="11" text-anchor="middle" fill="#111">10x12 Board</text><rect x="424.0" y="96.0" width="160" height="26" rx="5" ry="5" fill="#ffffff" stroke="#1f4e79" stroke-width="1.2"/>
<text x="504.0" y="113.0" font-family="Helvetica, Arial, sans-serif" font-size="11" text-anchor="middle" fill="#111">Bitboards</text><rect x="614.0" y="96.0" width="160" height="26" rx="5" ry="5" fill="#ffffff" stroke="#1f4e79" stroke-width="1.2"/>
<text x="694.0" y="113.0" font-family="Helvetica, Arial, sans-serif" font-size="11" text-anchor="middle" fill="#111">Copy-Make</text><rect x="424.0" y="132.0" width="160" height="26" rx="5" ry="5" fill="#ffffff" stroke="#1f4e79" stroke-width="1.2"/>
<text x="504.0" y="149.0" font-family="Helvetica, Arial, sans-serif" font-size="11" text-anchor="middle" fill="#111">Mailbox</text><rect x="614.0" y="132.0" width="160" height="26" rx="5" ry="5" fill="#ffffff" stroke="#1f4e79" stroke-width="1.2"/>
<text x="694.0" y="149.0" font-family="Helvetica, Arial, sans-serif" font-size="11" text-anchor="middle" fill="#111">Make Move</text><rect x="424.0" y="168.0" width="160" height="26" rx="5" ry="5" fill="#ffffff" stroke="#1f4e79" stroke-width="1.2"/>
<text x="504.0" y="185.0" font-family="Helvetica, Arial, sans-serif" font-size="11" text-anchor="middle" fill="#111">Piece Lists</text><rect x="614.0" y="168.0" width="160" height="26" rx="5" ry="5" fill="#ffffff" stroke="#1f4e79" stroke-width="1.2"/>
<text x="694.0" y="185.0" font-family="Helvetica, Arial, sans-serif" font-size="11" text-anchor="middle" fill="#111">Unmake Move</text><rect x="222.0" y="204.0" width="160" height="26" rx="5" ry="5" fill="#ffffff" stroke="#1f4e79" stroke-width="1.2"/>
<text x="302.0" y="221.0" font-family="Helvetica, Arial, sans-serif" font-size="11" text-anchor="middle" fill="#111">Endgame</text><rect x="222.0" y="402.0" width="160" height="26" rx="5" ry="5" fill="#e8f1fb" stroke="#1f4e79" stroke-width="1.2"/>
<text x="302.0" y="419.0" font-family="Helvetica, Arial, sans-serif" font-size="11" text-anchor="middle" fill="#111">Evaluation</text><rect x="424.0" y="276.0" width="160" height="26" rx="5" ry="5" fill="#e8f1fb" stroke="#1f4e79" stroke-width="1.2"/>
<text x="504.0" y="293.0" font-family="Helvetica, Arial, sans-serif" font-size="11" text-anchor="middle" fill="#111">King Terms</text><rect x="626.0" y="240.0" width="160" height="26" rx="5" ry="5" fill="#ffffff" stroke="#1f4e79" stroke-width="1.2"/>
<text x="706.0" y="257.0" font-family="Helvetica, Arial, sans-serif" font-size="11" text-anchor="middle" fill="#111">King Activity</text><rect x="626.0" y="276.0" width="160" height="26" rx="5" ry="5" fill="#ffffff" stroke="#1f4e79" stroke-width="1.2"/>
<text x="706.0" y="293.0" font-family="Helvetica, Arial, sans-serif" font-size="11" text-anchor="middle" fill="#111">King Pressure</text><rect x="626.0" y="312.0" width="160" height="26" rx="5" ry="5" fill="#ffffff" stroke="#1f4e79" stroke-width="1.2"/>
<text x="706.0" y="329.0" font-family="Helvetica, Arial, sans-serif" font-size="11" text-anchor="middle" fill="#111">King Shelter</text><rect x="917.0" y="276.0" width="160" height="26" rx="5" ry="5" fill="#ffffff" stroke="#1f4e79" stroke-width="1.2"/>
<text x="997.0" y="293.0" font-family="Helvetica, Arial, sans-serif" font-size="11" text-anchor="middle" fill="#111">Mobility</text><rect x="424.0" y="402.0" width="160" height="26" rx="5" ry="5" fill="#e8f1fb" stroke="#1f4e79" stroke-width="1.2"/>
<text x="504.0" y="419.0" font-family="Helvetica, Arial, sans-serif" font-size="11" text-anchor="middle" fill="#111">Pawn Structure</text><rect x="626.0" y="348.0" width="160" height="26" rx="5" ry="5" fill="#ffffff" stroke="#1f4e79" stroke-width="1.2"/>
<text x="706.0" y="365.0" font-family="Helvetica, Arial, sans-serif" font-size="11" text-anchor="middle" fill="#111">Connected Pawn</text><rect x="626.0" y="384.0" width="160" height="26" rx="5" ry="5" fill="#ffffff" stroke="#1f4e79" stroke-width="1.2"/>
<text x="706.0" y="401.0" font-family="Helvetica, Arial, sans-serif" font-size="11" text-anchor="middle" fill="#111">Doubled Pawn</text><rect x="626.0" y="420.0" width="160" height="26" rx="5" ry="5" fill="#ffffff" stroke="#1f4e79" stroke-width="1.2"/>
<text x="706.0" y="437.0" font-family="Helvetica, Arial, sans-serif" font-size="11" text-anchor="middle" fill="#111">Isolated Pawn</text><rect x="626.0" y="456.0" width="160" height="26" rx="5" ry="5" fill="#ffffff" stroke="#1f4e79" stroke-width="1.2"/>
<text x="706.0" y="473.0" font-family="Helvetica, Arial, sans-serif" font-size="11" text-anchor="middle" fill="#111">Passed Pawn</text><rect x="816.0" y="402.0" width="160" height="26" rx="5" ry="5" fill="#e8f1fb" stroke="#1f4e79" stroke-width="1.2"/>
<text x="896.0" y="419.0" font-family="Helvetica, Arial, sans-serif" font-size="11" text-anchor="middle" fill="#111">Piece Coordination</text><rect x="1018.0" y="366.0" width="160" height="26" rx="5" ry="5" fill="#ffffff" stroke="#1f4e79" stroke-width="1.2"/>
<text x="1098.0" y="383.0" font-family="Helvetica, Arial, sans-serif" font-size="11" text-anchor="middle" fill="#111">Bishop Pair</text><rect x="1018.0" y="402.0" width="160" height="26" rx="5" ry="5" fill="#ffffff" stroke="#1f4e79" stroke-width="1.2"/>
<text x="1098.0" y="419.0" font-family="Helvetica, Arial, sans-serif" font-size="11" text-anchor="middle" fill="#111">Rook on Open File</text><rect x="1018.0" y="438.0" width="160" height="26" rx="5" ry="5" fill="#ffffff" stroke="#1f4e79" stroke-width="1.2"/>
<text x="1098.0" y="455.0" font-family="Helvetica, Arial, sans-serif" font-size="11" text-anchor="middle" fill="#111">Rook Semi-Open File</text><rect x="525.0" y="492.0" width="160" height="26" rx="5" ry="5" fill="#ffffff" stroke="#1f4e79" stroke-width="1.2"/>
<text x="605.0" y="509.0" font-family="Helvetica, Arial, sans-serif" font-size="11" text-anchor="middle" fill="#111">Piece-Square Tables</text><rect x="917.0" y="492.0" width="160" height="26" rx="5" ry="5" fill="#ffffff" stroke="#1f4e79" stroke-width="1.2"/>
<text x="997.0" y="503.0" font-family="Helvetica, Arial, sans-serif" font-size="10" text-anchor="middle" fill="#111">Static Exchange</text>
<text x="997.0" y="514.0" font-family="Helvetica, Arial, sans-serif" font-size="10" text-anchor="middle" fill="#111">Evaluation</text><rect x="525.0" y="528.0" width="160" height="26" rx="5" ry="5" fill="#ffffff" stroke="#1f4e79" stroke-width="1.2"/>
<text x="605.0" y="545.0" font-family="Helvetica, Arial, sans-serif" font-size="11" text-anchor="middle" fill="#111">Tapered Eval</text><rect x="222.0" y="636.0" width="160" height="26" rx="5" ry="5" fill="#e8f1fb" stroke="#1f4e79" stroke-width="1.2"/>
<text x="302.0" y="653.0" font-family="Helvetica, Arial, sans-serif" font-size="11" text-anchor="middle" fill="#111">Move Generation</text><rect x="424.0" y="564.0" width="160" height="26" rx="5" ry="5" fill="#ffffff" stroke="#1f4e79" stroke-width="1.2"/>
<text x="504.0" y="581.0" font-family="Helvetica, Arial, sans-serif" font-size="11" text-anchor="middle" fill="#111">Castling</text><rect x="424.0" y="600.0" width="160" height="26" rx="5" ry="5" fill="#ffffff" stroke="#1f4e79" stroke-width="1.2"/>
<text x="504.0" y="617.0" font-family="Helvetica, Arial, sans-serif" font-size="11" text-anchor="middle" fill="#111">En Passant</text><rect x="424.0" y="636.0" width="160" height="26" rx="5" ry="5" fill="#ffffff" stroke="#1f4e79" stroke-width="1.2"/>
<text x="504.0" y="653.0" font-family="Helvetica, Arial, sans-serif" font-size="11" text-anchor="middle" fill="#111">Legal Move Generation</text><rect x="424.0" y="672.0" width="160" height="26" rx="5" ry="5" fill="#ffffff" stroke="#1f4e79" stroke-width="1.2"/>
<text x="504.0" y="689.0" font-family="Helvetica, Arial, sans-serif" font-size="11" text-anchor="middle" fill="#111">Magic Bitboards</text><rect x="424.0" y="708.0" width="160" height="26" rx="5" ry="5" fill="#ffffff" stroke="#1f4e79" stroke-width="1.2"/>
<text x="504.0" y="719.0" font-family="Helvetica, Arial, sans-serif" font-size="10" text-anchor="middle" fill="#111">Pseudo-Legal Move</text>
<text x="504.0" y="730.0" font-family="Helvetica, Arial, sans-serif" font-size="10" text-anchor="middle" fill="#111">Generation</text><rect x="222.0" y="744.0" width="160" height="26" rx="5" ry="5" fill="#e8f1fb" stroke="#1f4e79" stroke-width="1.2"/>
<text x="302.0" y="761.0" font-family="Helvetica, Arial, sans-serif" font-size="11" text-anchor="middle" fill="#111">Opening</text><rect x="424.0" y="744.0" width="160" height="26" rx="5" ry="5" fill="#ffffff" stroke="#1f4e79" stroke-width="1.2"/>
<text x="504.0" y="761.0" font-family="Helvetica, Arial, sans-serif" font-size="11" text-anchor="middle" fill="#111">Opening Book</text><rect x="222.0" y="780.0" width="160" height="26" rx="5" ry="5" fill="#ffffff" stroke="#1f4e79" stroke-width="1.2"/>
<text x="302.0" y="797.0" font-family="Helvetica, Arial, sans-serif" font-size="11" text-anchor="middle" fill="#111">Parallelism</text><rect x="222.0" y="834.0" width="160" height="26" rx="5" ry="5" fill="#e8f1fb" stroke="#1f4e79" stroke-width="1.2"/>
<text x="302.0" y="851.0" font-family="Helvetica, Arial, sans-serif" font-size="11" text-anchor="middle" fill="#111">Protocol</text><rect x="424.0" y="816.0" width="160" height="26" rx="5" ry="5" fill="#ffffff" stroke="#1f4e79" stroke-width="1.2"/>
<text x="504.0" y="833.0" font-family="Helvetica, Arial, sans-serif" font-size="11" text-anchor="middle" fill="#111">FEN</text><rect x="424.0" y="852.0" width="160" height="26" rx="5" ry="5" fill="#ffffff" stroke="#1f4e79" stroke-width="1.2"/>
<text x="504.0" y="869.0" font-family="Helvetica, Arial, sans-serif" font-size="11" text-anchor="middle" fill="#111">UCI</text><rect x="222.0" y="960.0" width="160" height="26" rx="5" ry="5" fill="#e8f1fb" stroke="#1f4e79" stroke-width="1.2"/>
<text x="302.0" y="977.0" font-family="Helvetica, Arial, sans-serif" font-size="11" text-anchor="middle" fill="#111">PruningReductions</text><rect x="424.0" y="888.0" width="160" height="26" rx="5" ry="5" fill="#ffffff" stroke="#1f4e79" stroke-width="1.2"/>
<text x="504.0" y="905.0" font-family="Helvetica, Arial, sans-serif" font-size="11" text-anchor="middle" fill="#111">Delta Pruning</text><rect x="424.0" y="924.0" width="160" height="26" rx="5" ry="5" fill="#ffffff" stroke="#1f4e79" stroke-width="1.2"/>
<text x="504.0" y="941.0" font-family="Helvetica, Arial, sans-serif" font-size="11" text-anchor="middle" fill="#111">Futility Pruning</text><rect x="424.0" y="960.0" width="160" height="26" rx="5" ry="5" fill="#ffffff" stroke="#1f4e79" stroke-width="1.2"/>
<text x="504.0" y="977.0" font-family="Helvetica, Arial, sans-serif" font-size="11" text-anchor="middle" fill="#111">Late Move Reductions</text><rect x="424.0" y="996.0" width="160" height="26" rx="5" ry="5" fill="#ffffff" stroke="#1f4e79" stroke-width="1.2"/>
<text x="504.0" y="1013.0" font-family="Helvetica, Arial, sans-serif" font-size="11" text-anchor="middle" fill="#111">Null Move Pruning</text><rect x="424.0" y="1032.0" width="160" height="26" rx="5" ry="5" fill="#ffffff" stroke="#1f4e79" stroke-width="1.2"/>
<text x="504.0" y="1049.0" font-family="Helvetica, Arial, sans-serif" font-size="11" text-anchor="middle" fill="#111">Razoring</text><rect x="222.0" y="1176.0" width="160" height="26" rx="5" ry="5" fill="#e8f1fb" stroke="#1f4e79" stroke-width="1.2"/>
<text x="302.0" y="1193.0" font-family="Helvetica, Arial, sans-serif" font-size="11" text-anchor="middle" fill="#111">Search</text><rect x="424.0" y="1068.0" width="160" height="26" rx="5" ry="5" fill="#ffffff" stroke="#1f4e79" stroke-width="1.2"/>
<text x="504.0" y="1085.0" font-family="Helvetica, Arial, sans-serif" font-size="11" text-anchor="middle" fill="#111">Alpha-Beta</text><rect x="816.0" y="1068.0" width="160" height="26" rx="5" ry="5" fill="#ffffff" stroke="#1f4e79" stroke-width="1.2"/>
<text x="896.0" y="1085.0" font-family="Helvetica, Arial, sans-serif" font-size="11" text-anchor="middle" fill="#111">Aspiration Windows</text><rect x="424.0" y="1104.0" width="160" height="26" rx="5" ry="5" fill="#ffffff" stroke="#1f4e79" stroke-width="1.2"/>
<text x="504.0" y="1121.0" font-family="Helvetica, Arial, sans-serif" font-size="11" text-anchor="middle" fill="#111">Fifty-Move Rule</text><rect x="816.0" y="1104.0" width="160" height="26" rx="5" ry="5" fill="#ffffff" stroke="#1f4e79" stroke-width="1.2"/>
<text x="896.0" y="1121.0" font-family="Helvetica, Arial, sans-serif" font-size="11" text-anchor="middle" fill="#111">Iterative Deepening</text><rect x="424.0" y="1176.0" width="160" height="26" rx="5" ry="5" fill="#ffffff" stroke="#1f4e79" stroke-width="1.2"/>
<text x="504.0" y="1193.0" font-family="Helvetica, Arial, sans-serif" font-size="11" text-anchor="middle" fill="#111">Minimax</text><rect x="614.0" y="1176.0" width="160" height="26" rx="5" ry="5" fill="#e8f1fb" stroke="#1f4e79" stroke-width="1.2"/>
<text x="694.0" y="1193.0" font-family="Helvetica, Arial, sans-serif" font-size="11" text-anchor="middle" fill="#111">Move Ordering</text><rect x="816.0" y="1176.0" width="160" height="26" rx="5" ry="5" fill="#e8f1fb" stroke="#1f4e79" stroke-width="1.2"/>
<text x="896.0" y="1193.0" font-family="Helvetica, Arial, sans-serif" font-size="11" text-anchor="middle" fill="#111">Ordering Heuristics</text><rect x="1018.0" y="1140.0" width="160" height="26" rx="5" ry="5" fill="#ffffff" stroke="#1f4e79" stroke-width="1.2"/>
<text x="1098.0" y="1157.0" font-family="Helvetica, Arial, sans-serif" font-size="11" text-anchor="middle" fill="#111">Hash Move</text><rect x="1018.0" y="1176.0" width="160" height="26" rx="5" ry="5" fill="#ffffff" stroke="#1f4e79" stroke-width="1.2"/>
<text x="1098.0" y="1193.0" font-family="Helvetica, Arial, sans-serif" font-size="11" text-anchor="middle" fill="#111">History Heuristic</text><rect x="1018.0" y="1212.0" width="160" height="26" rx="5" ry="5" fill="#ffffff" stroke="#1f4e79" stroke-width="1.2"/>
<text x="1098.0" y="1229.0" font-family="Helvetica, Arial, sans-serif" font-size="11" text-anchor="middle" fill="#111">Killer Heuristic</text><rect x="424.0" y="1248.0" width="160" height="26" rx="5" ry="5" fill="#ffffff" stroke="#1f4e79" stroke-width="1.2"/>
<text x="504.0" y="1265.0" font-family="Helvetica, Arial, sans-serif" font-size="11" text-anchor="middle" fill="#111">Negamax</text><rect x="816.0" y="1248.0" width="160" height="26" rx="5" ry="5" fill="#ffffff" stroke="#1f4e79" stroke-width="1.2"/>
<text x="896.0" y="1259.0" font-family="Helvetica, Arial, sans-serif" font-size="10" text-anchor="middle" fill="#111">Principal Variation</text>
<text x="896.0" y="1270.0" font-family="Helvetica, Arial, sans-serif" font-size="10" text-anchor="middle" fill="#111">Search</text><rect x="424.0" y="1284.0" width="160" height="26" rx="5" ry="5" fill="#ffffff" stroke="#1f4e79" stroke-width="1.2"/>
<text x="504.0" y="1301.0" font-family="Helvetica, Arial, sans-serif" font-size="11" text-anchor="middle" fill="#111">Quiescence Search</text><rect x="816.0" y="1284.0" width="160" height="26" rx="5" ry="5" fill="#ffffff" stroke="#1f4e79" stroke-width="1.2"/>
<text x="896.0" y="1301.0" font-family="Helvetica, Arial, sans-serif" font-size="11" text-anchor="middle" fill="#111">Threefold Repetition</text><rect x="222.0" y="1320.0" width="160" height="26" rx="5" ry="5" fill="#e8f1fb" stroke="#1f4e79" stroke-width="1.2"/>
<text x="302.0" y="1337.0" font-family="Helvetica, Arial, sans-serif" font-size="11" text-anchor="middle" fill="#111">Time Management</text><rect x="424.0" y="1320.0" width="160" height="26" rx="5" ry="5" fill="#ffffff" stroke="#1f4e79" stroke-width="1.2"/>
<text x="504.0" y="1337.0" font-family="Helvetica, Arial, sans-serif" font-size="11" text-anchor="middle" fill="#111">Pondering</text><rect x="222.0" y="1392.0" width="160" height="26" rx="5" ry="5" fill="#e8f1fb" stroke="#1f4e79" stroke-width="1.2"/>
<text x="302.0" y="1409.0" font-family="Helvetica, Arial, sans-serif" font-size="11" text-anchor="middle" fill="#111">Transposition Table</text><rect x="424.0" y="1392.0" width="160" height="26" rx="5" ry="5" fill="#e8f1fb" stroke="#1f4e79" stroke-width="1.2"/>
<text x="504.0" y="1409.0" font-family="Helvetica, Arial, sans-serif" font-size="11" text-anchor="middle" fill="#111">TT Support</text><rect x="626.0" y="1356.0" width="160" height="26" rx="5" ry="5" fill="#ffffff" stroke="#1f4e79" stroke-width="1.2"/>
<text x="706.0" y="1373.0" font-family="Helvetica, Arial, sans-serif" font-size="11" text-anchor="middle" fill="#111">Pawn Hash Table</text><rect x="626.0" y="1392.0" width="160" height="26" rx="5" ry="5" fill="#ffffff" stroke="#1f4e79" stroke-width="1.2"/>
<text x="706.0" y="1409.0" font-family="Helvetica, Arial, sans-serif" font-size="11" text-anchor="middle" fill="#111">Replacement Schemes</text><rect x="626.0" y="1428.0" width="160" height="26" rx="5" ry="5" fill="#ffffff" stroke="#1f4e79" stroke-width="1.2"/>
<text x="706.0" y="1445.0" font-family="Helvetica, Arial, sans-serif" font-size="11" text-anchor="middle" fill="#111">Zobrist Hashing</text><rect x="222.0" y="1464.0" width="160" height="26" rx="5" ry="5" fill="#ffffff" stroke="#1f4e79" stroke-width="1.2"/>
<text x="302.0" y="1481.0" font-family="Helvetica, Arial, sans-serif" font-size="11" text-anchor="middle" fill="#111">Tuning</text>

<g transform="translate(20,1575.0)">
  <text x="0" y="12" font-family="Helvetica, Arial, sans-serif" font-size="12" font-weight="bold" fill="#111">Legend</text>
  <circle cx="10" cy="30" r="4.5" fill="#1f4e79" stroke="#1f4e79"/>
  <text x="22" y="34" font-family="Helvetica, Arial, sans-serif" font-size="11" fill="#111">mandatory</text>
  <circle cx="110" cy="30" r="4.5" fill="#ffffff" stroke="#1f4e79"/>
  <text x="122" y="34" font-family="Helvetica, Arial, sans-serif" font-size="11" fill="#111">optional</text>
  <polygon points="200,22 214,26 200,30" fill="#1f4e79" fill-opacity="0.35" stroke="#1f4e79"/>
  <text x="222" y="34" font-family="Helvetica, Arial, sans-serif" font-size="11" fill="#111">or (≥1)</text>
  <polygon points="300,22 314,26 300,30" fill="#ffffff" stroke="#1f4e79"/>
  <text x="322" y="34" font-family="Helvetica, Arial, sans-serif" font-size="11" fill="#111">alt (XOR)</text>
</g>

<text x="1238.0" y="30" font-family="Helvetica, Arial, sans-serif" font-size="13" font-weight="bold" fill="#111">Cross-tree constraints (49)</text><text x="1238.0" y="50" font-family="Menlo, monospace" font-size="10.5" fill="#111">Magic Bitboards → Bitboards</text><text x="1238.0" y="64" font-family="Menlo, monospace" font-size="10.5" fill="#111">Legal Move Generation → Move Generation</text><text x="1238.0" y="78" font-family="Menlo, monospace" font-size="10.5" fill="#111">Pseudo-Legal Move Generation → Move Generation</text><text x="1238.0" y="92" font-family="Menlo, monospace" font-size="10.5" fill="#111">Copy-Make → Make Move</text><text x="1238.0" y="106" font-family="Menlo, monospace" font-size="10.5" fill="#111">Unmake Move → Make Move</text><text x="1238.0" y="120" font-family="Menlo, monospace" font-size="10.5" fill="#111">Castling → Legal Move Generation</text><text x="1238.0" y="134" font-family="Menlo, monospace" font-size="10.5" fill="#111">En Passant → Legal Move Generation</text><text x="1238.0" y="148" font-family="Menlo, monospace" font-size="10.5" fill="#111">Minimax → Make Move</text><text x="1238.0" y="162" font-family="Menlo, monospace" font-size="10.5" fill="#111">Minimax → Unmake Move</text><text x="1238.0" y="176" font-family="Menlo, monospace" font-size="10.5" fill="#111">Alpha-Beta → Make Move</text><text x="1238.0" y="190" font-family="Menlo, monospace" font-size="10.5" fill="#111">Alpha-Beta → Unmake Move</text><text x="1238.0" y="204" font-family="Menlo, monospace" font-size="10.5" fill="#111">Alpha-Beta → Castling</text><text x="1238.0" y="218" font-family="Menlo, monospace" font-size="10.5" fill="#111">Alpha-Beta → En Passant</text><text x="1238.0" y="232" font-family="Menlo, monospace" font-size="10.5" fill="#111">Alpha-Beta → Threefold Repetition</text><text x="1238.0" y="246" font-family="Menlo, monospace" font-size="10.5" fill="#111">Alpha-Beta → Fifty-Move Rule</text><text x="1238.0" y="260" font-family="Menlo, monospace" font-size="10.5" fill="#111">Negamax → Make Move</text><text x="1238.0" y="274" font-family="Menlo, monospace" font-size="10.5" fill="#111">Negamax → Unmake Move</text><text x="1238.0" y="288" font-family="Menlo, monospace" font-size="10.5" fill="#111">Quiescence Search → Make Move</text><text x="1238.0" y="302" font-family="Menlo, monospace" font-size="10.5" fill="#111">Quiescence Search → Unmake Move</text><text x="1238.0" y="316" font-family="Menlo, monospace" font-size="10.5" fill="#111">Hash Move → Transposition Table</text><text x="1238.0" y="330" font-family="Menlo, monospace" font-size="10.5" fill="#111">Hash Move → Move Ordering</text><text x="1238.0" y="344" font-family="Menlo, monospace" font-size="10.5" fill="#111">Killer Heuristic → Move Ordering</text><text x="1238.0" y="358" font-family="Menlo, monospace" font-size="10.5" fill="#111">History Heuristic → Move Ordering</text><text x="1238.0" y="372" font-family="Menlo, monospace" font-size="10.5" fill="#111">Pawn Hash Table → Zobrist Hashing</text><text x="1238.0" y="386" font-family="Menlo, monospace" font-size="10.5" fill="#111">Replacement Schemes → Transposition Table</text><text x="1238.0" y="400" font-family="Menlo, monospace" font-size="10.5" fill="#111">Principal Variation Search → Alpha-Beta</text><text x="1238.0" y="414" font-family="Menlo, monospace" font-size="10.5" fill="#111">Aspiration Windows → Alpha-Beta</text><text x="1238.0" y="428" font-family="Menlo, monospace" font-size="10.5" fill="#111">Null Move Pruning → Alpha-Beta</text><text x="1238.0" y="442" font-family="Menlo, monospace" font-size="10.5" fill="#111">Late Move Reductions → Alpha-Beta</text><text x="1238.0" y="456" font-family="Menlo, monospace" font-size="10.5" fill="#111">Futility Pruning → Alpha-Beta</text><text x="1238.0" y="470" font-family="Menlo, monospace" font-size="10.5" fill="#111">Delta Pruning → Quiescence Search</text><text x="1238.0" y="484" font-family="Menlo, monospace" font-size="10.5" fill="#111">Passed Pawn → Evaluation</text><text x="1238.0" y="498" font-family="Menlo, monospace" font-size="10.5" fill="#111">Isolated Pawn → Evaluation</text><text x="1238.0" y="512" font-family="Menlo, monospace" font-size="10.5" fill="#111">Doubled Pawn → Evaluation</text><text x="1238.0" y="526" font-family="Menlo, monospace" font-size="10.5" fill="#111">Connected Pawn → Evaluation</text><text x="1238.0" y="540" font-family="Menlo, monospace" font-size="10.5" fill="#111">Bishop Pair → Evaluation</text><text x="1238.0" y="554" font-family="Menlo, monospace" font-size="10.5" fill="#111">Rook on Open File → Evaluation</text><text x="1238.0" y="568" font-family="Menlo, monospace" font-size="10.5" fill="#111">Rook Semi-Open File → Evaluation</text><text x="1238.0" y="582" font-family="Menlo, monospace" font-size="10.5" fill="#111">King Pressure → Evaluation</text><text x="1238.0" y="596" font-family="Menlo, monospace" font-size="10.5" fill="#111">King Shelter → Evaluation</text><text x="1238.0" y="610" font-family="Menlo, monospace" font-size="10.5" fill="#111">King Activity → Evaluation</text><text x="1238.0" y="624" font-family="Menlo, monospace" font-size="10.5" fill="#111">King Activity → Tapered Eval</text><text x="1238.0" y="638" font-family="Menlo, monospace" font-size="10.5" fill="#111">¬(Minimax ∧ Negamax)</text><text x="1238.0" y="652" font-family="Menlo, monospace" font-size="10.5" fill="#111">¬(Bitboards ∧ Mailbox)</text><text x="1238.0" y="666" font-family="Menlo, monospace" font-size="10.5" fill="#111">¬(Bitboards ∧ 0x88)</text><text x="1238.0" y="680" font-family="Menlo, monospace" font-size="10.5" fill="#111">¬(Bitboards ∧ 10x12 Board)</text><text x="1238.0" y="694" font-family="Menlo, monospace" font-size="10.5" fill="#111">¬(Mailbox ∧ 0x88)</text><text x="1238.0" y="708" font-family="Menlo, monospace" font-size="10.5" fill="#111">¬(Mailbox ∧ 10x12 Board)</text><text x="1238.0" y="722" font-family="Menlo, monospace" font-size="10.5" fill="#111">¬(0x88 ∧ 10x12 Board)</text>
</svg>
