<svg xmlns="http://www.w3.org/2000/svg" width="760" height="420" viewBox="0 0 760 420">
<style>text{font-family:Menlo,Consolas,monospace;font-size:12px;fill:#222} .axis{stroke:#333;stroke-width:1} .grid{stroke:#ddd;stroke-width:1} .label{font-size:11px}</style>
<rect x="0" y="0" width="760" height="420" fill="#f7fbff"/>
<text x="380.0" y="22" text-anchor="middle">Mean Perft Time by Board Family</text>
<line class="grid" x1="70" y1="350.0" x2="730" y2="350.0"/>
<text class="label" x="62" y="354.0" text-anchor="end">0.00</text>
<line class="grid" x1="70" y1="288.0" x2="730" y2="288.0"/>
<text class="label" x="62" y="292.0" text-anchor="end">0.36</text>
<line class="grid" x1="70" y1="226.0" x2="730" y2="226.0"/>
<text class="label" x="62" y="230.0" text-anchor="end">0.72</text>
<line class="grid" x1="70" y1="164.0" x2="730" y2="164.0"/>
<text class="label" x="62" y="168.0" text-anchor="end">1.08</text>
<line class="grid" x1="70" y1="102.0" x2="730" y2="102.0"/>
<text class="label" x="62" y="106.0" text-anchor="end">1.43</text>
<line class="grid" x1="70" y1="40.0" x2="730" y2="40.0"/>
<text class="label" x="62" y="44.0" text-anchor="end">1.79</text>
<rect x="103.0" y="40.0" width="99.0" height="310.0" fill="#ff7f0e"><title>0x88: 1.793s</title></rect>
<text class="label" x="152.5" y="385" text-anchor="middle">0x88</text>
<text class="label" x="152.5" y="34.0" text-anchor="middle">1.79</text>
<rect x="268.0" y="246.1" width="99.0" height="103.9" fill="#d62728"><title>10x12 Board: 0.601s</title></rect>
<text class="label" x="317.5" y="385" text-anchor="middle">10x12 Board</text>
<text class="label" x="317.5" y="240.1" text-anchor="middle">0.60</text>
<rect x="433.0" y="165.2" width="99.0" height="184.8" fill="#1f77b4"><title>Bitboards: 1.069s</title></rect>
<text class="label" x="482.5" y="385" text-anchor="middle">Bitboards</text>
<text class="label" x="482.5" y="159.2" text-anchor="middle">1.07</text>
<rect x="598.0" y="201.0" width="99.0" height="149.0" fill="#2ca02c"><title>Mailbox: 0.862s</title></rect>
<text class="label" x="647.5" y="385" text-anchor="middle">Mailbox</text>
<text class="label" x="647.5" y="195.0" text-anchor="middle">0.86</text>
<line class="axis" x1="70" y1="350" x2="730" y2="350"/>
<line class="axis" x1="70" y1="40" x2="70" y2="350"/>
<text x="380.0" y="412" text-anchor="middle">Board Family</text>
<text x="18" y="210.0" text-anchor="middle" transform="rotate(-90 18 210.0)">Mean Perft Time (s)</text>
</svg>
