<svg xmlns="http://www.w3.org/2000/svg" width="630" height="1300" viewBox="0 0 630 1300">
<style>text{font-family:Menlo,Consolas,monospace;font-size:12px;fill:#222}.cell{stroke:#ddd;stroke-width:1}</style>
<rect x="0" y="0" width="630" height="1300" fill="#fff"/>
<text x="430" y="24" text-anchor="middle">Anchor Matchup Heatmap</text>
<text x="300.0" y="52" text-anchor="middle">sf2500</text>
<text x="420.0" y="52" text-anchor="middle">sf2000</text>
<text x="540.0" y="52" text-anchor="middle">sf1500</text>
<text x="232" y="86.0" text-anchor="end">stratified_variant_28</text>
<rect class="cell" x="240" y="70" width="120" height="24" fill="rgb(160,156,76)"/>
<text x="300.0" y="86.0" text-anchor="middle">2.0/4</text>
<rect class="cell" x="360" y="70" width="120" height="24" fill="rgb(85,216,56)"/>
<text x="420.0" y="86.0" text-anchor="middle">4.0/4</text>
<rect class="cell" x="480" y="70" width="120" height="24" fill="rgb(85,216,56)"/>
<text x="540.0" y="86.0" text-anchor="middle">4.0/4</text>
<text x="232" y="110.0" text-anchor="end">phase2_10x12_ab_pvs_id</text>
<rect class="cell" x="240" y="94" width="120" height="24" fill="rgb(197,126,86)"/>
<text x="300.0" y="110.0" text-anchor="middle">1.0/4</text>
<rect class="cell" x="360" y="94" width="120" height="24" fill="rgb(141,171,71)"/>
<text x="420.0" y="110.0" text-anchor="middle">2.5/4</text>
<rect class="cell" x="480" y="94" width="120" height="24" fill="rgb(85,216,56)"/>
<text x="540.0" y="110.0" text-anchor="middle">4.0/4</text>
<text x="232" y="134.0" text-anchor="end">phase3_full_eval</text>
<rect class="cell" x="240" y="118" width="120" height="24" fill="rgb(178,141,81)"/>
<text x="300.0" y="134.0" text-anchor="middle">1.5/4</text>
<rect class="cell" x="360" y="118" width="120" height="24" fill="rgb(178,141,81)"/>
<text x="420.0" y="134.0" text-anchor="middle">1.5/4</text>
<rect class="cell" x="480" y="118" width="120" height="24" fill="rgb(122,186,66)"/>
<text x="540.0" y="134.0" text-anchor="middle">3.0/4</text>
<text x="232" y="158.0" text-anchor="end">stratified_variant_31</text>
<rect class="cell" x="240" y="142" width="120" height="24" fill="rgb(235,96,96)"/>
<text x="300.0" y="158.0" text-anchor="middle">0.0/4</text>
<rect class="cell" x="360" y="142" width="120" height="24" fill="rgb(178,141,81)"/>
<text x="420.0" y="158.0" text-anchor="middle">1.5/4</text>
<rect class="cell" x="480" y="142" width="120" height="24" fill="rgb(85,216,56)"/>
<text x="540.0" y="158.0" text-anchor="middle">4.0/4</text>
<text x="232" y="182.0" text-anchor="end">strong_variant_02</text>
<rect class="cell" x="240" y="166" width="120" height="24" fill="rgb(197,126,86)"/>
<text x="300.0" y="182.0" text-anchor="middle">1.0/4</text>
<rect class="cell" x="360" y="166" width="120" height="24" fill="rgb(197,126,86)"/>
<text x="420.0" y="182.0" text-anchor="middle">1.0/4</text>
<rect class="cell" x="480" y="166" width="120" height="24" fill="rgb(85,216,56)"/>
<text x="540.0" y="182.0" text-anchor="middle">4.0/4</text>
<text x="232" y="206.0" text-anchor="end">stratified_variant_61</text>
<rect class="cell" x="240" y="190" width="120" height="24" fill="rgb(235,96,96)"/>
<text x="300.0" y="206.0" text-anchor="middle">0.0/4</text>
<rect class="cell" x="360" y="190" width="120" height="24" fill="rgb(160,156,76)"/>
<text x="420.0" y="206.0" text-anchor="middle">2.0/4</text>
<rect class="cell" x="480" y="190" width="120" height="24" fill="rgb(160,156,76)"/>
<text x="540.0" y="206.0" text-anchor="middle">2.0/4</text>
<text x="232" y="230.0" text-anchor="end">stratified_variant_13</text>
<rect class="cell" x="240" y="214" width="120" height="24" fill="rgb(235,96,96)"/>
<text x="300.0" y="230.0" text-anchor="middle">0.0/4</text>
<rect class="cell" x="360" y="214" width="120" height="24" fill="rgb(160,156,76)"/>
<text x="420.0" y="230.0" text-anchor="middle">2.0/4</text>
<rect class="cell" x="480" y="214" width="120" height="24" fill="rgb(197,126,86)"/>
<text x="540.0" y="230.0" text-anchor="middle">1.0/4</text>
<text x="232" y="254.0" text-anchor="end">stratified_variant_09</text>
<rect class="cell" x="240" y="238" width="120" height="24" fill="rgb(235,96,96)"/>
<text x="300.0" y="254.0" text-anchor="middle">0.0/4</text>
<rect class="cell" x="360" y="238" width="120" height="24" fill="rgb(197,126,86)"/>
<text x="420.0" y="254.0" text-anchor="middle">1.0/4</text>
<rect class="cell" x="480" y="238" width="120" height="24" fill="rgb(160,156,76)"/>
<text x="540.0" y="254.0" text-anchor="middle">2.0/4</text>
<text x="232" y="278.0" text-anchor="end">stratified_variant_72</text>
<rect class="cell" x="240" y="262" width="120" height="24" fill="rgb(235,96,96)"/>
<text x="300.0" y="278.0" text-anchor="middle">0.0/4</text>
<rect class="cell" x="360" y="262" width="120" height="24" fill="rgb(160,156,76)"/>
<text x="420.0" y="278.0" text-anchor="middle">2.0/4</text>
<rect class="cell" x="480" y="262" width="120" height="24" fill="rgb(160,156,76)"/>
<text x="540.0" y="278.0" text-anchor="middle">2.0/4</text>
<text x="232" y="302.0" text-anchor="end">stratified_variant_90</text>
<rect class="cell" x="240" y="286" width="120" height="24" fill="rgb(235,96,96)"/>
<text x="300.0" y="302.0" text-anchor="middle">0.0/4</text>
<rect class="cell" x="360" y="286" width="120" height="24" fill="rgb(160,156,76)"/>
<text x="420.0" y="302.0" text-anchor="middle">2.0/4</text>
<rect class="cell" x="480" y="286" width="120" height="24" fill="rgb(85,216,56)"/>
<text x="540.0" y="302.0" text-anchor="middle">4.0/4</text>
<text x="232" y="326.0" text-anchor="end">stratified_variant_33</text>
<rect class="cell" x="240" y="310" width="120" height="24" fill="rgb(216,111,91)"/>
<text x="300.0" y="326.0" text-anchor="middle">0.5/4</text>
<rect class="cell" x="360" y="310" width="120" height="24" fill="rgb(178,141,81)"/>
<text x="420.0" y="326.0" text-anchor="middle">1.5/4</text>
<rect class="cell" x="480" y="310" width="120" height="24" fill="rgb(141,171,71)"/>
<text x="540.0" y="326.0" text-anchor="middle">2.5/4</text>
<text x="232" y="350.0" text-anchor="end">stratified_variant_82</text>
<rect class="cell" x="240" y="334" width="120" height="24" fill="rgb(235,96,96)"/>
<text x="300.0" y="350.0" text-anchor="middle">0.0/4</text>
<rect class="cell" x="360" y="334" width="120" height="24" fill="rgb(235,96,96)"/>
<text x="420.0" y="350.0" text-anchor="middle">0.0/4</text>
<rect class="cell" x="480" y="334" width="120" height="24" fill="rgb(122,186,66)"/>
<text x="540.0" y="350.0" text-anchor="middle">3.0/4</text>
<text x="232" y="374.0" text-anchor="end">stratified_variant_18</text>
<rect class="cell" x="240" y="358" width="120" height="24" fill="rgb(235,96,96)"/>
<text x="300.0" y="374.0" text-anchor="middle">0.0/4</text>
<rect class="cell" x="360" y="358" width="120" height="24" fill="rgb(235,96,96)"/>
<text x="420.0" y="374.0" text-anchor="middle">0.0/4</text>
<rect class="cell" x="480" y="358" width="120" height="24" fill="rgb(160,156,76)"/>
<text x="540.0" y="374.0" text-anchor="middle">2.0/4</text>
<text x="232" y="398.0" text-anchor="end">stratified_variant_02</text>
<rect class="cell" x="240" y="382" width="120" height="24" fill="rgb(197,126,86)"/>
<text x="300.0" y="398.0" text-anchor="middle">1.0/4</text>
<rect class="cell" x="360" y="382" width="120" height="24" fill="rgb(235,96,96)"/>
<text x="420.0" y="398.0" text-anchor="middle">0.0/4</text>
<rect class="cell" x="480" y="382" width="120" height="24" fill="rgb(141,171,71)"/>
<text x="540.0" y="398.0" text-anchor="middle">2.5/4</text>
<text x="232" y="422.0" text-anchor="end">stratified_variant_27</text>
<rect class="cell" x="240" y="406" width="120" height="24" fill="rgb(235,96,96)"/>
<text x="300.0" y="422.0" text-anchor="middle">0.0/4</text>
<rect class="cell" x="360" y="406" width="120" height="24" fill="rgb(216,111,91)"/>
<text x="420.0" y="422.0" text-anchor="middle">0.5/4</text>
<rect class="cell" x="480" y="406" width="120" height="24" fill="rgb(122,186,66)"/>
<text x="540.0" y="422.0" text-anchor="middle">3.0/4</text>
<text x="232" y="446.0" text-anchor="end">stratified_variant_100</text>
<rect class="cell" x="240" y="430" width="120" height="24" fill="rgb(235,96,96)"/>
<text x="300.0" y="446.0" text-anchor="middle">0.0/4</text>
<rect class="cell" x="360" y="430" width="120" height="24" fill="rgb(235,96,96)"/>
<text x="420.0" y="446.0" text-anchor="middle">0.0/4</text>
<rect class="cell" x="480" y="430" width="120" height="24" fill="rgb(197,126,86)"/>
<text x="540.0" y="446.0" text-anchor="middle">1.0/4</text>
<text x="232" y="470.0" text-anchor="end">stratified_variant_65</text>
<rect class="cell" x="240" y="454" width="120" height="24" fill="rgb(235,96,96)"/>
<text x="300.0" y="470.0" text-anchor="middle">0.0/4</text>
<rect class="cell" x="360" y="454" width="120" height="24" fill="rgb(235,96,96)"/>
<text x="420.0" y="470.0" text-anchor="middle">0.0/4</text>
<rect class="cell" x="480" y="454" width="120" height="24" fill="rgb(197,126,86)"/>
<text x="540.0" y="470.0" text-anchor="middle">1.0/4</text>
<text x="232" y="494.0" text-anchor="end">stratified_variant_64</text>
<rect class="cell" x="240" y="478" width="120" height="24" fill="rgb(235,96,96)"/>
<text x="300.0" y="494.0" text-anchor="middle">0.0/4</text>
<rect class="cell" x="360" y="478" width="120" height="24" fill="rgb(235,96,96)"/>
<text x="420.0" y="494.0" text-anchor="middle">0.0/4</text>
<rect class="cell" x="480" y="478" width="120" height="24" fill="rgb(235,96,96)"/>
<text x="540.0" y="494.0" text-anchor="middle">0.0/4</text>
<text x="232" y="518.0" text-anchor="end">stratified_variant_46</text>
<rect class="cell" x="240" y="502" width="120" height="24" fill="rgb(235,96,96)"/>
<text x="300.0" y="518.0" text-anchor="middle">0.0/4</text>
<rect class="cell" x="360" y="502" width="120" height="24" fill="rgb(235,96,96)"/>
<text x="420.0" y="518.0" text-anchor="middle">0.0/4</text>
<rect class="cell" x="480" y="502" width="120" height="24" fill="rgb(235,96,96)"/>
<text x="540.0" y="518.0" text-anchor="middle">0.0/4</text>
<text x="232" y="542.0" text-anchor="end">stratified_variant_57</text>
<rect class="cell" x="240" y="526" width="120" height="24" fill="rgb(235,96,96)"/>
<text x="300.0" y="542.0" text-anchor="middle">0.0/4</text>
<rect class="cell" x="360" y="526" width="120" height="24" fill="rgb(235,96,96)"/>
<text x="420.0" y="542.0" text-anchor="middle">0.0/4</text>
<rect class="cell" x="480" y="526" width="120" height="24" fill="rgb(235,96,96)"/>
<text x="540.0" y="542.0" text-anchor="middle">0.0/4</text>
<text x="232" y="566.0" text-anchor="end">stratified_variant_70</text>
<rect class="cell" x="240" y="550" width="120" height="24" fill="rgb(235,96,96)"/>
<text x="300.0" y="566.0" text-anchor="middle">0.0/4</text>
<rect class="cell" x="360" y="550" width="120" height="24" fill="rgb(235,96,96)"/>
<text x="420.0" y="566.0" text-anchor="middle">0.0/4</text>
<rect class="cell" x="480" y="550" width="120" height="24" fill="rgb(235,96,96)"/>
<text x="540.0" y="566.0" text-anchor="middle">0.0/4</text>
<text x="232" y="590.0" text-anchor="end">stratified_variant_58</text>
<rect class="cell" x="240" y="574" width="120" height="24" fill="rgb(235,96,96)"/>
<text x="300.0" y="590.0" text-anchor="middle">0.0/4</text>
<rect class="cell" x="360" y="574" width="120" height="24" fill="rgb(235,96,96)"/>
<text x="420.0" y="590.0" text-anchor="middle">0.0/4</text>
<rect class="cell" x="480" y="574" width="120" height="24" fill="rgb(197,126,86)"/>
<text x="540.0" y="590.0" text-anchor="middle">1.0/4</text>
<text x="232" y="614.0" text-anchor="end">phase1_minimax</text>
<rect class="cell" x="240" y="598" width="120" height="24" fill="rgb(235,96,96)"/>
<text x="300.0" y="614.0" text-anchor="middle">0.0/4</text>
<rect class="cell" x="360" y="598" width="120" height="24" fill="rgb(235,96,96)"/>
<text x="420.0" y="614.0" text-anchor="middle">0.0/4</text>
<rect class="cell" x="480" y="598" width="120" height="24" fill="rgb(235,96,96)"/>
<text x="540.0" y="614.0" text-anchor="middle">0.0/4</text>
<text x="232" y="638.0" text-anchor="end">stratified_variant_97</text>
<rect class="cell" x="240" y="622" width="120" height="24" fill="rgb(235,96,96)"/>
<text x="300.0" y="638.0" text-anchor="middle">0.0/4</text>
<rect class="cell" x="360" y="622" width="120" height="24" fill="rgb(235,96,96)"/>
<text x="420.0" y="638.0" text-anchor="middle">0.0/4</text>
<rect class="cell" x="480" y="622" width="120" height="24" fill="rgb(235,96,96)"/>
<text x="540.0" y="638.0" text-anchor="middle">0.0/4</text>
<text x="232" y="662.0" text-anchor="end">stratified_variant_43</text>
<rect class="cell" x="240" y="646" width="120" height="24" fill="rgb(235,96,96)"/>
<text x="300.0" y="662.0" text-anchor="middle">0.0/4</text>
<rect class="cell" x="360" y="646" width="120" height="24" fill="rgb(235,96,96)"/>
<text x="420.0" y="662.0" text-anchor="middle">0.0/4</text>
<rect class="cell" x="480" y="646" width="120" height="24" fill="rgb(235,96,96)"/>
<text x="540.0" y="662.0" text-anchor="middle">0.0/4</text>
<text x="232" y="686.0" text-anchor="end">stratified_variant_21</text>
<rect class="cell" x="240" y="670" width="120" height="24" fill="rgb(235,96,96)"/>
<text x="300.0" y="686.0" text-anchor="middle">0.0/4</text>
<rect class="cell" x="360" y="670" width="120" height="24" fill="rgb(235,96,96)"/>
<text x="420.0" y="686.0" text-anchor="middle">0.0/4</text>
<rect class="cell" x="480" y="670" width="120" height="24" fill="rgb(235,96,96)"/>
<text x="540.0" y="686.0" text-anchor="middle">0.0/4</text>
<text x="232" y="710.0" text-anchor="end">stratified_variant_60</text>
<rect class="cell" x="240" y="694" width="120" height="24" fill="rgb(235,96,96)"/>
<text x="300.0" y="710.0" text-anchor="middle">0.0/4</text>
<rect class="cell" x="360" y="694" width="120" height="24" fill="rgb(235,96,96)"/>
<text x="420.0" y="710.0" text-anchor="middle">0.0/4</text>
<rect class="cell" x="480" y="694" width="120" height="24" fill="rgb(235,96,96)"/>
<text x="540.0" y="710.0" text-anchor="middle">0.0/4</text>
<text x="232" y="734.0" text-anchor="end">stratified_variant_11</text>
<rect class="cell" x="240" y="718" width="120" height="24" fill="rgb(235,96,96)"/>
<text x="300.0" y="734.0" text-anchor="middle">0.0/4</text>
<rect class="cell" x="360" y="718" width="120" height="24" fill="rgb(235,96,96)"/>
<text x="420.0" y="734.0" text-anchor="middle">0.0/4</text>
<rect class="cell" x="480" y="718" width="120" height="24" fill="rgb(235,96,96)"/>
<text x="540.0" y="734.0" text-anchor="middle">0.0/4</text>
<text x="232" y="758.0" text-anchor="end">stratified_variant_07</text>
<rect class="cell" x="240" y="742" width="120" height="24" fill="rgb(235,96,96)"/>
<text x="300.0" y="758.0" text-anchor="middle">0.0/4</text>
<rect class="cell" x="360" y="742" width="120" height="24" fill="rgb(235,96,96)"/>
<text x="420.0" y="758.0" text-anchor="middle">0.0/4</text>
<rect class="cell" x="480" y="742" width="120" height="24" fill="rgb(235,96,96)"/>
<text x="540.0" y="758.0" text-anchor="middle">0.0/4</text>
<text x="232" y="782.0" text-anchor="end">stratified_variant_52</text>
<rect class="cell" x="240" y="766" width="120" height="24" fill="rgb(235,96,96)"/>
<text x="300.0" y="782.0" text-anchor="middle">0.0/4</text>
<rect class="cell" x="360" y="766" width="120" height="24" fill="rgb(235,96,96)"/>
<text x="420.0" y="782.0" text-anchor="middle">0.0/4</text>
<rect class="cell" x="480" y="766" width="120" height="24" fill="rgb(235,96,96)"/>
<text x="540.0" y="782.0" text-anchor="middle">0.0/4</text>
<text x="232" y="806.0" text-anchor="end">stratified_variant_04</text>
<rect class="cell" x="240" y="790" width="120" height="24" fill="rgb(235,96,96)"/>
<text x="300.0" y="806.0" text-anchor="middle">0.0/4</text>
<rect class="cell" x="360" y="790" width="120" height="24" fill="rgb(235,96,96)"/>
<text x="420.0" y="806.0" text-anchor="middle">0.0/4</text>
<rect class="cell" x="480" y="790" width="120" height="24" fill="rgb(235,96,96)"/>
<text x="540.0" y="806.0" text-anchor="middle">0.0/4</text>
<text x="232" y="830.0" text-anchor="end">stratified_variant_63</text>
<rect class="cell" x="240" y="814" width="120" height="24" fill="rgb(235,96,96)"/>
<text x="300.0" y="830.0" text-anchor="middle">0.0/4</text>
<rect class="cell" x="360" y="814" width="120" height="24" fill="rgb(235,96,96)"/>
<text x="420.0" y="830.0" text-anchor="middle">0.0/4</text>
<rect class="cell" x="480" y="814" width="120" height="24" fill="rgb(235,96,96)"/>
<text x="540.0" y="830.0" text-anchor="middle">0.0/4</text>
<text x="232" y="854.0" text-anchor="end">stratified_variant_29</text>
<rect class="cell" x="240" y="838" width="120" height="24" fill="rgb(235,96,96)"/>
<text x="300.0" y="854.0" text-anchor="middle">0.0/4</text>
<rect class="cell" x="360" y="838" width="120" height="24" fill="rgb(235,96,96)"/>
<text x="420.0" y="854.0" text-anchor="middle">0.0/4</text>
<rect class="cell" x="480" y="838" width="120" height="24" fill="rgb(235,96,96)"/>
<text x="540.0" y="854.0" text-anchor="middle">0.0/4</text>
<text x="232" y="878.0" text-anchor="end">stratified_variant_87</text>
<rect class="cell" x="240" y="862" width="120" height="24" fill="rgb(235,96,96)"/>
<text x="300.0" y="878.0" text-anchor="middle">0.0/4</text>
<rect class="cell" x="360" y="862" width="120" height="24" fill="rgb(235,96,96)"/>
<text x="420.0" y="878.0" text-anchor="middle">0.0/4</text>
<rect class="cell" x="480" y="862" width="120" height="24" fill="rgb(235,96,96)"/>
<text x="540.0" y="878.0" text-anchor="middle">0.0/4</text>
<text x="232" y="902.0" text-anchor="end">stratified_variant_23</text>
<rect class="cell" x="240" y="886" width="120" height="24" fill="rgb(235,96,96)"/>
<text x="300.0" y="902.0" text-anchor="middle">0.0/4</text>
<rect class="cell" x="360" y="886" width="120" height="24" fill="rgb(235,96,96)"/>
<text x="420.0" y="902.0" text-anchor="middle">0.0/4</text>
<rect class="cell" x="480" y="886" width="120" height="24" fill="rgb(235,96,96)"/>
<text x="540.0" y="902.0" text-anchor="middle">0.0/4</text>
<text x="232" y="926.0" text-anchor="end">stratified_variant_42</text>
<rect class="cell" x="240" y="910" width="120" height="24" fill="rgb(235,96,96)"/>
<text x="300.0" y="926.0" text-anchor="middle">0.0/4</text>
<rect class="cell" x="360" y="910" width="120" height="24" fill="rgb(235,96,96)"/>
<text x="420.0" y="926.0" text-anchor="middle">0.0/4</text>
<rect class="cell" x="480" y="910" width="120" height="24" fill="rgb(235,96,96)"/>
<text x="540.0" y="926.0" text-anchor="middle">0.0/4</text>
<text x="232" y="950.0" text-anchor="end">stratified_variant_45</text>
<rect class="cell" x="240" y="934" width="120" height="24" fill="rgb(235,96,96)"/>
<text x="300.0" y="950.0" text-anchor="middle">0.0/4</text>
<rect class="cell" x="360" y="934" width="120" height="24" fill="rgb(235,96,96)"/>
<text x="420.0" y="950.0" text-anchor="middle">0.0/4</text>
<rect class="cell" x="480" y="934" width="120" height="24" fill="rgb(235,96,96)"/>
<text x="540.0" y="950.0" text-anchor="middle">0.0/4</text>
<text x="232" y="974.0" text-anchor="end">stratified_variant_50</text>
<rect class="cell" x="240" y="958" width="120" height="24" fill="rgb(235,96,96)"/>
<text x="300.0" y="974.0" text-anchor="middle">0.0/4</text>
<rect class="cell" x="360" y="958" width="120" height="24" fill="rgb(235,96,96)"/>
<text x="420.0" y="974.0" text-anchor="middle">0.0/4</text>
<rect class="cell" x="480" y="958" width="120" height="24" fill="rgb(235,96,96)"/>
<text x="540.0" y="974.0" text-anchor="middle">0.0/4</text>
<text x="232" y="998.0" text-anchor="end">stratified_variant_69</text>
<rect class="cell" x="240" y="982" width="120" height="24" fill="rgb(235,96,96)"/>
<text x="300.0" y="998.0" text-anchor="middle">0.0/4</text>
<rect class="cell" x="360" y="982" width="120" height="24" fill="rgb(235,96,96)"/>
<text x="420.0" y="998.0" text-anchor="middle">0.0/4</text>
<rect class="cell" x="480" y="982" width="120" height="24" fill="rgb(235,96,96)"/>
<text x="540.0" y="998.0" text-anchor="middle">0.0/4</text>
<text x="232" y="1022.0" text-anchor="end">stratified_variant_78</text>
<rect class="cell" x="240" y="1006" width="120" height="24" fill="rgb(235,96,96)"/>
<text x="300.0" y="1022.0" text-anchor="middle">0.0/4</text>
<rect class="cell" x="360" y="1006" width="120" height="24" fill="rgb(235,96,96)"/>
<text x="420.0" y="1022.0" text-anchor="middle">0.0/4</text>
<rect class="cell" x="480" y="1006" width="120" height="24" fill="rgb(235,96,96)"/>
<text x="540.0" y="1022.0" text-anchor="middle">0.0/4</text>
<text x="232" y="1046.0" text-anchor="end">stratified_variant_93</text>
<rect class="cell" x="240" y="1030" width="120" height="24" fill="rgb(235,96,96)"/>
<text x="300.0" y="1046.0" text-anchor="middle">0.0/4</text>
<rect class="cell" x="360" y="1030" width="120" height="24" fill="rgb(235,96,96)"/>
<text x="420.0" y="1046.0" text-anchor="middle">0.0/4</text>
<rect class="cell" x="480" y="1030" width="120" height="24" fill="rgb(235,96,96)"/>
<text x="540.0" y="1046.0" text-anchor="middle">0.0/4</text>
<text x="232" y="1070.0" text-anchor="end">stratified_variant_59</text>
<rect class="cell" x="240" y="1054" width="120" height="24" fill="rgb(235,96,96)"/>
<text x="300.0" y="1070.0" text-anchor="middle">0.0/4</text>
<rect class="cell" x="360" y="1054" width="120" height="24" fill="rgb(235,96,96)"/>
<text x="420.0" y="1070.0" text-anchor="middle">0.0/4</text>
<rect class="cell" x="480" y="1054" width="120" height="24" fill="rgb(235,96,96)"/>
<text x="540.0" y="1070.0" text-anchor="middle">0.0/4</text>
<text x="232" y="1094.0" text-anchor="end">stratified_variant_03</text>
<rect class="cell" x="240" y="1078" width="120" height="24" fill="rgb(235,96,96)"/>
<text x="300.0" y="1094.0" text-anchor="middle">0.0/4</text>
<rect class="cell" x="360" y="1078" width="120" height="24" fill="rgb(235,96,96)"/>
<text x="420.0" y="1094.0" text-anchor="middle">0.0/4</text>
<rect class="cell" x="480" y="1078" width="120" height="24" fill="rgb(235,96,96)"/>
<text x="540.0" y="1094.0" text-anchor="middle">0.0/4</text>
<text x="232" y="1118.0" text-anchor="end">stratified_variant_66</text>
<rect class="cell" x="240" y="1102" width="120" height="24" fill="rgb(235,96,96)"/>
<text x="300.0" y="1118.0" text-anchor="middle">0.0/4</text>
<rect class="cell" x="360" y="1102" width="120" height="24" fill="rgb(235,96,96)"/>
<text x="420.0" y="1118.0" text-anchor="middle">0.0/4</text>
<rect class="cell" x="480" y="1102" width="120" height="24" fill="rgb(235,96,96)"/>
<text x="540.0" y="1118.0" text-anchor="middle">0.0/4</text>
<text x="232" y="1142.0" text-anchor="end">stratified_variant_39</text>
<rect class="cell" x="240" y="1126" width="120" height="24" fill="rgb(235,96,96)"/>
<text x="300.0" y="1142.0" text-anchor="middle">0.0/4</text>
<rect class="cell" x="360" y="1126" width="120" height="24" fill="rgb(235,96,96)"/>
<text x="420.0" y="1142.0" text-anchor="middle">0.0/4</text>
<rect class="cell" x="480" y="1126" width="120" height="24" fill="rgb(235,96,96)"/>
<text x="540.0" y="1142.0" text-anchor="middle">0.0/4</text>
<text x="232" y="1166.0" text-anchor="end">stratified_variant_55</text>
<rect class="cell" x="240" y="1150" width="120" height="24" fill="rgb(235,96,96)"/>
<text x="300.0" y="1166.0" text-anchor="middle">0.0/4</text>
<rect class="cell" x="360" y="1150" width="120" height="24" fill="rgb(235,96,96)"/>
<text x="420.0" y="1166.0" text-anchor="middle">0.0/4</text>
<rect class="cell" x="480" y="1150" width="120" height="24" fill="rgb(235,96,96)"/>
<text x="540.0" y="1166.0" text-anchor="middle">0.0/4</text>
<text x="232" y="1190.0" text-anchor="end">stratified_variant_10</text>
<rect class="cell" x="240" y="1174" width="120" height="24" fill="rgb(235,96,96)"/>
<text x="300.0" y="1190.0" text-anchor="middle">0.0/4</text>
<rect class="cell" x="360" y="1174" width="120" height="24" fill="rgb(235,96,96)"/>
<text x="420.0" y="1190.0" text-anchor="middle">0.0/4</text>
<rect class="cell" x="480" y="1174" width="120" height="24" fill="rgb(235,96,96)"/>
<text x="540.0" y="1190.0" text-anchor="middle">0.0/4</text>
<text x="232" y="1214.0" text-anchor="end">stratified_variant_17</text>
<rect class="cell" x="240" y="1198" width="120" height="24" fill="rgb(235,96,96)"/>
<text x="300.0" y="1214.0" text-anchor="middle">0.0/4</text>
<rect class="cell" x="360" y="1198" width="120" height="24" fill="rgb(235,96,96)"/>
<text x="420.0" y="1214.0" text-anchor="middle">0.0/4</text>
<rect class="cell" x="480" y="1198" width="120" height="24" fill="rgb(235,96,96)"/>
<text x="540.0" y="1214.0" text-anchor="middle">0.0/4</text>
<text x="232" y="1238.0" text-anchor="end">stratified_variant_91</text>
<rect class="cell" x="240" y="1222" width="120" height="24" fill="rgb(235,96,96)"/>
<text x="300.0" y="1238.0" text-anchor="middle">0.0/4</text>
<rect class="cell" x="360" y="1222" width="120" height="24" fill="rgb(235,96,96)"/>
<text x="420.0" y="1238.0" text-anchor="middle">0.0/4</text>
<rect class="cell" x="480" y="1222" width="120" height="24" fill="rgb(235,96,96)"/>
<text x="540.0" y="1238.0" text-anchor="middle">0.0/4</text>
<text x="232" y="1262.0" text-anchor="end">stratified_variant_98</text>
<rect class="cell" x="240" y="1246" width="120" height="24" fill="rgb(235,96,96)"/>
<text x="300.0" y="1262.0" text-anchor="middle">0.0/4</text>
<rect class="cell" x="360" y="1246" width="120" height="24" fill="rgb(235,96,96)"/>
<text x="420.0" y="1262.0" text-anchor="middle">0.0/4</text>
<rect class="cell" x="480" y="1246" width="120" height="24" fill="rgb(235,96,96)"/>
<text x="540.0" y="1262.0" text-anchor="middle">0.0/4</text>
</svg>
