<svg xmlns="http://www.w3.org/2000/svg" width="980" height="620" viewBox="0 0 980 620">
<style>text{font-family:Menlo,Consolas,monospace;font-size:12px;fill:#222}.grid{stroke:#ddd;stroke-width:1}.axis{stroke:#333;stroke-width:1}.anchor{stroke:#999;stroke-width:1.2;stroke-dasharray:5 4}.label{font-size:11px}</style>
<rect x="0" y="0" width="980" height="620" fill="#fff"/>
<text x="490" y="22" text-anchor="middle">Realistic Strength vs Perft-6 Runtime</text>
<line class="grid" x1="80" y1="555.0" x2="810" y2="555.0"/>
<text x="70" y="559.0" text-anchor="end">0%</text>
<line class="grid" x1="80" y1="452.0" x2="810" y2="452.0"/>
<text x="70" y="456.0" text-anchor="end">20%</text>
<line class="grid" x1="80" y1="349.0" x2="810" y2="349.0"/>
<text x="70" y="353.0" text-anchor="end">40%</text>
<line class="grid" x1="80" y1="246.0" x2="810" y2="246.0"/>
<text x="70" y="250.0" text-anchor="end">60%</text>
<line class="grid" x1="80" y1="143.0" x2="810" y2="143.0"/>
<text x="70" y="147.0" text-anchor="end">80%</text>
<line class="grid" x1="80" y1="40.0" x2="810" y2="40.0"/>
<text x="70" y="44.0" text-anchor="end">100%</text>
<line class="grid" x1="80.0" y1="40" x2="80.0" y2="555"/>
<text x="80.0" y="602" text-anchor="middle">1.5s</text>
<line class="grid" x1="226.0" y1="40" x2="226.0" y2="555"/>
<text x="226.0" y="602" text-anchor="middle">6.3s</text>
<line class="grid" x1="372.0" y1="40" x2="372.0" y2="555"/>
<text x="372.0" y="602" text-anchor="middle">11.1s</text>
<line class="grid" x1="518.0" y1="40" x2="518.0" y2="555"/>
<text x="518.0" y="602" text-anchor="middle">15.9s</text>
<line class="grid" x1="664.0" y1="40" x2="664.0" y2="555"/>
<text x="664.0" y="602" text-anchor="middle">20.7s</text>
<line class="grid" x1="810.0" y1="40" x2="810.0" y2="555"/>
<text x="810.0" y="602" text-anchor="middle">25.5s</text>
<line class="anchor" x1="80" y1="58.5" x2="810" y2="58.5"/>
<rect x="818.0" y="39.0" width="95.8" height="16" rx="3" ry="3" fill="#ffffff" fill-opacity="0.92" stroke="#cbd5e0"/>
<text class="label" x="823.0" y="50.0">sf2500: 96.4%</text>
<line class="anchor" x1="80" y1="101.8" x2="810" y2="101.8"/>
<rect x="818.0" y="82.3" width="95.8" height="16" rx="3" ry="3" fill="#ffffff" fill-opacity="0.92" stroke="#cbd5e0"/>
<text class="label" x="823.0" y="93.3">sf2000: 88.0%</text>
<line class="anchor" x1="80" y1="173.9" x2="810" y2="173.9"/>
<rect x="818.0" y="154.4" width="95.8" height="16" rx="3" ry="3" fill="#ffffff" fill-opacity="0.92" stroke="#cbd5e0"/>
<text class="label" x="823.0" y="165.4">sf1500: 74.0%</text>
<line class="axis" x1="80" y1="555" x2="810" y2="555"/>
<line class="axis" x1="80" y1="40" x2="80" y2="555"/>
<text x="445.0" y="618" text-anchor="middle">Perft-6 Runtime (s)</text>
<text x="18" y="297.5" text-anchor="middle" transform="rotate(-90 18 297.5)">Tournament Score</text>
<circle cx="83.7" cy="73.5" r="4" fill="#ff7f0e" stroke="#111" stroke-width="0.6"><title>stratified_variant_28: score=93.5% perft6=1.582s</title></circle>
<line x1="83.7" y1="73.5" x2="-28.3" y2="50.5" stroke="#94a3b8" stroke-width="1"/>
<rect x="-32.3" y="44.5" width="151.2" height="16" rx="3" ry="3" fill="#ffffff" fill-opacity="0.92" stroke="#cbd5e0"/>
<text class="label" x="-28.3" y="55.5">stratified_variant_28</text>
<circle cx="88.6" cy="74.5" r="5" fill="#d62728" stroke="#111" stroke-width="0.6"><title>phase2_10x12_ab_pvs_id: score=93.3% perft6=1.745s</title></circle>
<line x1="88.6" y1="74.5" x2="100.6" y2="91.5" stroke="#94a3b8" stroke-width="1"/>
<rect x="96.6" y="85.5" width="158.4" height="16" rx="3" ry="3" fill="#ffffff" fill-opacity="0.92" stroke="#cbd5e0"/>
<text class="label" x="100.6" y="96.5">phase2_10x12_ab_pvs_id</text>
<circle cx="135.5" cy="74.5" r="5" fill="#1f77b4" stroke="#111" stroke-width="0.6"><title>phase3_full_eval: score=93.3% perft6=3.285s</title></circle>
<line x1="135.5" y1="74.5" x2="147.5" y2="39.5" stroke="#94a3b8" stroke-width="1"/>
<rect x="143.5" y="33.5" width="115.2" height="16" rx="3" ry="3" fill="#ffffff" fill-opacity="0.92" stroke="#cbd5e0"/>
<text class="label" x="147.5" y="44.5">phase3_full_eval</text>
<circle cx="89.1" cy="108.0" r="4" fill="#2ca02c" stroke="#111" stroke-width="0.6"><title>stratified_variant_31: score=86.8% perft6=1.759s</title></circle>
<circle cx="126.6" cy="119.3" r="5" fill="#1f77b4" stroke="#111" stroke-width="0.6"><title>strong_variant_02: score=84.6% perft6=2.994s</title></circle>
<line x1="126.6" y1="119.3" x2="138.6" y2="126.3" stroke="#94a3b8" stroke-width="1"/>
<rect x="134.6" y="120.3" width="122.4" height="16" rx="3" ry="3" fill="#ffffff" fill-opacity="0.92" stroke="#cbd5e0"/>
<text class="label" x="138.6" y="131.3">strong_variant_02</text>
<circle cx="87.7" cy="129.1" r="4" fill="#d62728" stroke="#111" stroke-width="0.6"><title>stratified_variant_61: score=82.7% perft6=1.714s</title></circle>
<circle cx="138.0" cy="132.7" r="4" fill="#1f77b4" stroke="#111" stroke-width="0.6"><title>stratified_variant_13: score=82.0% perft6=3.368s</title></circle>
<circle cx="123.4" cy="135.3" r="4" fill="#ff7f0e" stroke="#111" stroke-width="0.6"><title>stratified_variant_09: score=81.5% perft6=2.888s</title></circle>
<circle cx="113.9" cy="138.9" r="4" fill="#2ca02c" stroke="#111" stroke-width="0.6"><title>stratified_variant_72: score=80.8% perft6=2.575s</title></circle>
<circle cx="103.7" cy="145.1" r="4" fill="#2ca02c" stroke="#111" stroke-width="0.6"><title>stratified_variant_90: score=79.6% perft6=2.24s</title></circle>
<circle cx="92.4" cy="147.6" r="4" fill="#d62728" stroke="#111" stroke-width="0.6"><title>stratified_variant_33: score=79.1% perft6=1.868s</title></circle>
<circle cx="82.6" cy="152.8" r="4" fill="#ff7f0e" stroke="#111" stroke-width="0.6"><title>stratified_variant_82: score=78.1% perft6=1.546s</title></circle>
<circle cx="82.9" cy="165.1" r="4" fill="#2ca02c" stroke="#111" stroke-width="0.6"><title>stratified_variant_18: score=75.7% perft6=1.557s</title></circle>
<circle cx="130.2" cy="168.8" r="4" fill="#1f77b4" stroke="#111" stroke-width="0.6"><title>stratified_variant_02: score=75.0% perft6=3.112s</title></circle>
<circle cx="96.3" cy="176.0" r="4" fill="#d62728" stroke="#111" stroke-width="0.6"><title>stratified_variant_27: score=73.6% perft6=1.998s</title></circle>
<circle cx="80.9" cy="215.6" r="4" fill="#d62728" stroke="#111" stroke-width="0.6"><title>stratified_variant_100: score=65.9% perft6=1.492s</title></circle>
<circle cx="116.8" cy="217.2" r="4" fill="#ff7f0e" stroke="#111" stroke-width="0.6"><title>stratified_variant_65: score=65.6% perft6=2.671s</title></circle>
<circle cx="126.9" cy="230.6" r="4" fill="#1f77b4" stroke="#111" stroke-width="0.6"><title>stratified_variant_64: score=63.0% perft6=3.004s</title></circle>
<circle cx="88.7" cy="248.1" r="4" fill="#2ca02c" stroke="#111" stroke-width="0.6"><title>stratified_variant_46: score=59.6% perft6=1.746s</title></circle>
<circle cx="132.1" cy="348.5" r="4" fill="#1f77b4" stroke="#111" stroke-width="0.6"><title>stratified_variant_57: score=40.1% perft6=3.174s</title></circle>
<circle cx="135.0" cy="355.7" r="4" fill="#1f77b4" stroke="#111" stroke-width="0.6"><title>stratified_variant_70: score=38.7% perft6=3.271s</title></circle>
<circle cx="83.3" cy="359.3" r="4" fill="#2ca02c" stroke="#111" stroke-width="0.6"><title>stratified_variant_58: score=38.0% perft6=1.568s</title></circle>
<circle cx="141.1" cy="362.9" r="5" fill="#1f77b4" stroke="#111" stroke-width="0.6"><title>phase1_minimax: score=37.3% perft6=3.47s</title></circle>
<line x1="141.1" y1="362.9" x2="153.1" y2="331.9" stroke="#94a3b8" stroke-width="1"/>
<rect x="149.1" y="325.9" width="100.8" height="16" rx="3" ry="3" fill="#ffffff" fill-opacity="0.92" stroke="#cbd5e0"/>
<text class="label" x="153.1" y="336.9">phase1_minimax</text>
<circle cx="88.6" cy="364.4" r="4" fill="#ff7f0e" stroke="#111" stroke-width="0.6"><title>stratified_variant_97: score=37.0% perft6=1.744s</title></circle>
<circle cx="84.0" cy="365.5" r="4" fill="#d62728" stroke="#111" stroke-width="0.6"><title>stratified_variant_43: score=36.8% perft6=1.592s</title></circle>
<circle cx="158.4" cy="367.0" r="4" fill="#1f77b4" stroke="#111" stroke-width="0.6"><title>stratified_variant_21: score=36.5% perft6=4.039s</title></circle>
<circle cx="88.2" cy="367.0" r="4" fill="#d62728" stroke="#111" stroke-width="0.6"><title>stratified_variant_60: score=36.5% perft6=1.732s</title></circle>
<circle cx="84.8" cy="369.1" r="4" fill="#2ca02c" stroke="#111" stroke-width="0.6"><title>stratified_variant_11: score=36.1% perft6=1.618s</title></circle>
<circle cx="93.9" cy="371.7" r="4" fill="#d62728" stroke="#111" stroke-width="0.6"><title>stratified_variant_07: score=35.6% perft6=1.917s</title></circle>
<circle cx="88.3" cy="371.7" r="4" fill="#d62728" stroke="#111" stroke-width="0.6"><title>stratified_variant_52: score=35.6% perft6=1.733s</title></circle>
<circle cx="85.2" cy="373.2" r="4" fill="#ff7f0e" stroke="#111" stroke-width="0.6"><title>stratified_variant_04: score=35.3% perft6=1.632s</title></circle>
<circle cx="85.1" cy="373.2" r="4" fill="#2ca02c" stroke="#111" stroke-width="0.6"><title>stratified_variant_63: score=35.3% perft6=1.63s</title></circle>
<circle cx="106.8" cy="377.8" r="4" fill="#2ca02c" stroke="#111" stroke-width="0.6"><title>stratified_variant_29: score=34.4% perft6=2.343s</title></circle>
<circle cx="83.6" cy="379.4" r="4" fill="#ff7f0e" stroke="#111" stroke-width="0.6"><title>stratified_variant_87: score=34.1% perft6=1.579s</title></circle>
<circle cx="91.7" cy="383.0" r="4" fill="#2ca02c" stroke="#111" stroke-width="0.6"><title>stratified_variant_23: score=33.4% perft6=1.847s</title></circle>
<circle cx="82.3" cy="385.6" r="4" fill="#2ca02c" stroke="#111" stroke-width="0.6"><title>stratified_variant_42: score=32.9% perft6=1.536s</title></circle>
<circle cx="80.0" cy="385.6" r="4" fill="#ff7f0e" stroke="#111" stroke-width="0.6"><title>stratified_variant_45: score=32.9% perft6=1.461s</title></circle>
<line x1="80.0" y1="385.6" x2="88.0" y2="368.6" stroke="#94a3b8" stroke-width="1"/>
<rect x="84.0" y="362.6" width="151.2" height="16" rx="3" ry="3" fill="#ffffff" fill-opacity="0.92" stroke="#cbd5e0"/>
<text class="label" x="88.0" y="373.6">stratified_variant_45</text>
<circle cx="83.6" cy="385.6" r="4" fill="#2ca02c" stroke="#111" stroke-width="0.6"><title>stratified_variant_50: score=32.9% perft6=1.578s</title></circle>
<circle cx="131.2" cy="386.6" r="4" fill="#1f77b4" stroke="#111" stroke-width="0.6"><title>stratified_variant_69: score=32.7% perft6=3.144s</title></circle>
<circle cx="92.9" cy="386.6" r="4" fill="#ff7f0e" stroke="#111" stroke-width="0.6"><title>stratified_variant_78: score=32.7% perft6=1.885s</title></circle>
<circle cx="90.2" cy="390.2" r="4" fill="#d62728" stroke="#111" stroke-width="0.6"><title>stratified_variant_93: score=32.0% perft6=1.795s</title></circle>
<circle cx="109.5" cy="394.3" r="4" fill="#2ca02c" stroke="#111" stroke-width="0.6"><title>stratified_variant_59: score=31.2% perft6=2.431s</title></circle>
<circle cx="84.0" cy="421.1" r="4" fill="#d62728" stroke="#111" stroke-width="0.6"><title>stratified_variant_03: score=26.0% perft6=1.592s</title></circle>
<circle cx="92.6" cy="437.6" r="4" fill="#ff7f0e" stroke="#111" stroke-width="0.6"><title>stratified_variant_66: score=22.8% perft6=1.874s</title></circle>
<circle cx="117.8" cy="453.5" r="4" fill="#2ca02c" stroke="#111" stroke-width="0.6"><title>stratified_variant_39: score=19.7% perft6=2.704s</title></circle>
<circle cx="93.8" cy="504.0" r="4" fill="#ff7f0e" stroke="#111" stroke-width="0.6"><title>stratified_variant_55: score=9.9% perft6=1.916s</title></circle>
<circle cx="810.0" cy="537.5" r="4" fill="#1f77b4" stroke="#111" stroke-width="0.6"><title>stratified_variant_10: score=3.4% perft6=25.467s</title></circle>
<line x1="810.0" y1="537.5" x2="818.0" y2="520.5" stroke="#94a3b8" stroke-width="1"/>
<rect x="814.0" y="514.5" width="151.2" height="16" rx="3" ry="3" fill="#ffffff" fill-opacity="0.92" stroke="#cbd5e0"/>
<text class="label" x="818.0" y="525.5">stratified_variant_10</text>
<circle cx="369.0" cy="540.1" r="4" fill="#d62728" stroke="#111" stroke-width="0.6"><title>stratified_variant_17: score=2.9% perft6=10.966s</title></circle>
<circle cx="391.4" cy="540.1" r="4" fill="#2ca02c" stroke="#111" stroke-width="0.6"><title>stratified_variant_91: score=2.9% perft6=11.702s</title></circle>
<line x1="391.4" y1="540.1" x2="399.4" y2="523.1" stroke="#94a3b8" stroke-width="1"/>
<rect x="395.4" y="517.1" width="151.2" height="16" rx="3" ry="3" fill="#ffffff" fill-opacity="0.92" stroke="#cbd5e0"/>
<text class="label" x="399.4" y="528.1">stratified_variant_91</text>
<circle cx="121.0" cy="542.6" r="4" fill="#ff7f0e" stroke="#111" stroke-width="0.6"><title>stratified_variant_98: score=2.4% perft6=2.808s</title></circle>
<line x1="121.0" y1="542.6" x2="129.0" y2="525.6" stroke="#94a3b8" stroke-width="1"/>
<rect x="125.0" y="519.6" width="151.2" height="16" rx="3" ry="3" fill="#ffffff" fill-opacity="0.92" stroke="#cbd5e0"/>
<text class="label" x="129.0" y="530.6">stratified_variant_98</text>
<circle cx="830" cy="473.0" r="5" fill="#1f77b4" stroke="#111" stroke-width="0.6"/>
<text x="842" y="477.0">Bitboards</text>
<circle cx="830" cy="491.0" r="5" fill="#ff7f0e" stroke="#111" stroke-width="0.6"/>
<text x="842" y="495.0">0x88</text>
<circle cx="830" cy="509.0" r="5" fill="#2ca02c" stroke="#111" stroke-width="0.6"/>
<text x="842" y="513.0">Mailbox</text>
<circle cx="830" cy="527.0" r="5" fill="#d62728" stroke="#111" stroke-width="0.6"/>
<text x="842" y="531.0">10x12 Board</text>
</svg>
