<svg xmlns="http://www.w3.org/2000/svg" width="920" height="520" viewBox="0 0 920 520">
<style>text{font-family:Menlo,Consolas,monospace;font-size:12px;fill:#222} .axis{stroke:#333;stroke-width:1} .grid{stroke:#ddd;stroke-width:1} .label{font-size:11px}</style>
<rect x="0" y="0" width="920" height="520" fill="#f7fbff"/>
<text x="460.0" y="22" text-anchor="middle">Mean Perft Time by Board Family</text>
<line class="grid" x1="70" y1="410.0" x2="890" y2="410.0"/>
<text class="label" x="62" y="414.0" text-anchor="end">0.00</text>
<line class="grid" x1="70" y1="336.0" x2="890" y2="336.0"/>
<text class="label" x="62" y="340.0" text-anchor="end">0.36</text>
<line class="grid" x1="70" y1="262.0" x2="890" y2="262.0"/>
<text class="label" x="62" y="266.0" text-anchor="end">0.71</text>
<line class="grid" x1="70" y1="188.0" x2="890" y2="188.0"/>
<text class="label" x="62" y="192.0" text-anchor="end">1.07</text>
<line class="grid" x1="70" y1="114.0" x2="890" y2="114.0"/>
<text class="label" x="62" y="118.0" text-anchor="end">1.42</text>
<line class="grid" x1="70" y1="40.0" x2="890" y2="40.0"/>
<text class="label" x="62" y="44.0" text-anchor="end">1.78</text>
<rect x="109.0" y="40.0" width="127.1" height="370.0" fill="#4c78a8"><title>0x88: mean=1.777s n=23</title></rect>
<text class="label" x="172.5" y="32.0" text-anchor="middle">1.78</text>
<text class="label" x="172.5" y="475" text-anchor="middle">0x88</text>
<text class="label" x="172.5" y="490" text-anchor="middle">n=23</text>
<rect x="313.9" y="286.3" width="127.1" height="123.7" fill="#f58518"><title>10x12 Board: mean=0.594s n=25</title></rect>
<text class="label" x="377.5" y="278.3" text-anchor="middle">0.59</text>
<text class="label" x="377.5" y="475" text-anchor="middle">10x12 Board</text>
<text class="label" x="377.5" y="490" text-anchor="middle">n=25</text>
<rect x="519.0" y="187.4" width="127.1" height="222.6" fill="#54a24b"><title>Bitboards: mean=1.069s n=28</title></rect>
<text class="label" x="582.5" y="179.4" text-anchor="middle">1.07</text>
<text class="label" x="582.5" y="475" text-anchor="middle">Bitboards</text>
<text class="label" x="582.5" y="490" text-anchor="middle">n=28</text>
<rect x="724.0" y="233.9" width="127.1" height="176.1" fill="#e45756"><title>Mailbox: mean=0.846s n=28</title></rect>
<text class="label" x="787.5" y="225.9" text-anchor="middle">0.85</text>
<text class="label" x="787.5" y="475" text-anchor="middle">Mailbox</text>
<text class="label" x="787.5" y="490" text-anchor="middle">n=28</text>
<line class="axis" x1="70" y1="410" x2="890" y2="410"/>
<line class="axis" x1="70" y1="40" x2="70" y2="410"/>
</svg>
